<?xml version="1.0" encoding="UTF-8" standalone="no"?>
<svg
   xmlns:dc="http://purl.org/dc/elements/1.1/"
   xmlns:cc="http://creativecommons.org/ns#"
   xmlns:rdf="http://www.w3.org/1999/02/22-rdf-syntax-ns#"
   xmlns:svg="http://www.w3.org/2000/svg"
   xmlns="http://www.w3.org/2000/svg"
   xmlns:sodipodi="http://sodipodi.sourceforge.net/DTD/sodipodi-0.dtd"
   xmlns:inkscape="http://www.inkscape.org/namespaces/inkscape"
   width="1749.7134"
   height="1893.5433"
   version="1.1"
   id="svg120"
   sodipodi:docname="back.svg"
   inkscape:version="0.92.2 (5c3e80d, 2017-08-06)">
  <metadata
     id="metadata124">
    <rdf:RDF>
      <cc:Work
         rdf:about="">
        <dc:format>image/svg+xml</dc:format>
        <dc:type
           rdf:resource="http://purl.org/dc/dcmitype/StillImage" />
        <dc:title></dc:title>
      </cc:Work>
    </rdf:RDF>
  </metadata>
  <sodipodi:namedview
     pagecolor="#ffffff"
     bordercolor="#666666"
     borderopacity="1"
     objecttolerance="10"
     gridtolerance="10"
     guidetolerance="10"
     inkscape:pageopacity="0"
     inkscape:pageshadow="2"
     inkscape:window-width="1373"
     inkscape:window-height="845"
     id="namedview122"
     showgrid="false"
     fit-margin-top="0"
     fit-margin-left="0"
     fit-margin-right="0"
     fit-margin-bottom="0"
     inkscape:zoom="0.21024131"
     inkscape:cx="667.86718"
     inkscape:cy="842.87502"
     inkscape:window-x="67"
     inkscape:window-y="27"
     inkscape:window-maximized="1"
     inkscape:current-layer="g104" />
  <desc
     id="desc2">/home/henry/Documents/fablab/bartop/Bartop-project/dxf_from_onshape/back.dxf - scale = 1.000000, origin = (0.000000, 0.000000), method = manual</desc>
  <defs
     id="defs16">
    <marker
       id="DistanceX"
       orient="auto"
       refX="0"
       refY="0"
       style="overflow:visible">
      <path
         d="M 3,-3 -3,3 M 0,-5 V 5"
         style="stroke:#000000;stroke-width:0.5"
         id="path4"
         inkscape:connector-curvature="0" />
    </marker>
    <pattern
       height="8"
       id="Hatch"
       patternUnits="userSpaceOnUse"
       width="8"
       x="0"
       y="0">
      <path
         d="M8 4 l-4,4"
         linecap="square"
         stroke="#000000"
         stroke-width="0.25"
         id="path7" />
      <path
         d="M6 2 l-4,4"
         linecap="square"
         stroke="#000000"
         stroke-width="0.25"
         id="path9" />
      <path
         d="M4 0 l-4,4"
         linecap="square"
         stroke="#000000"
         stroke-width="0.25"
         id="path11" />
    </pattern>
    <symbol
       id="*MODEL_SPACE" />
    <symbol
       id="*PAPER_SPACE" />
  </defs>
  <g
     inkscape:groupmode="layer"
     inkscape:label="0"
     id="g18"
     transform="translate(874.85669,-179.74324)" />
  <g
     inkscape:groupmode="layer"
     inkscape:label="SECTION_CUTTING_LINE"
     id="g20"
     transform="translate(874.85669,-179.74324)" />
  <g
     inkscape:groupmode="layer"
     inkscape:label="DETAIL_VIEW_BORDER"
     id="g22"
     transform="translate(874.85669,-179.74324)" />
  <g
     inkscape:groupmode="layer"
     inkscape:label="DETAIL_VIEW_PARENT_BORDER"
     id="g24"
     transform="translate(874.85669,-179.74324)" />
  <g
     inkscape:groupmode="layer"
     inkscape:label="TEXT"
     id="g26"
     transform="translate(874.85669,-179.74324)" />
  <g
     inkscape:groupmode="layer"
     inkscape:label="SKETCHED_GEOMETRY"
     id="g28"
     transform="translate(874.85669,-179.74324)" />
  <g
     inkscape:groupmode="layer"
     inkscape:label="CENTERLINES"
     id="g30"
     transform="translate(874.85669,-179.74324)" />
  <g
     inkscape:groupmode="layer"
     inkscape:label="CENTERMARKS"
     id="g32"
     transform="translate(874.85669,-179.74324)" />
  <g
     inkscape:groupmode="layer"
     inkscape:label="TABLES"
     id="g34"
     transform="translate(874.85669,-179.74324)" />
  <g
     inkscape:groupmode="layer"
     inkscape:label="IMAGES"
     id="g36"
     transform="translate(874.85669,-179.74324)" />
  <g
     inkscape:groupmode="layer"
     inkscape:label="ANNOTATION_LINES"
     id="g38"
     transform="translate(874.85669,-179.74324)" />
  <g
     inkscape:groupmode="layer"
     inkscape:label="ANNOTATION_TEXT"
     id="g40"
     transform="translate(874.85669,-179.74324)" />
  <g
     inkscape:groupmode="layer"
     inkscape:label="SIDE_THREAD_SYMBOLS"
     id="g42"
     transform="translate(874.85669,-179.74324)" />
  <g
     inkscape:groupmode="layer"
     inkscape:label="SIDE_THREAD_SYMBOLS_HIDDEN"
     id="g44"
     transform="translate(874.85669,-179.74324)" />
  <g
     inkscape:groupmode="layer"
     inkscape:label="SURFACE_THREAD_SYMBOLS"
     id="g46"
     transform="translate(874.85669,-179.74324)" />
  <g
     inkscape:groupmode="layer"
     inkscape:label="SURFACE_THREAD_SYMBOLS_ON_"
     id="g48"
     transform="translate(874.85669,-179.74324)" />
  <g
     inkscape:groupmode="layer"
     inkscape:label="SURFACE_THREAD_SYMBOLS_HID"
     id="g50"
     transform="translate(874.85669,-179.74324)" />
  <g
     inkscape:groupmode="layer"
     inkscape:label="BLIND_THREAD_SYMBOLS"
     id="g52"
     transform="translate(874.85669,-179.74324)" />
  <g
     inkscape:groupmode="layer"
     inkscape:label="BLIND_THREAD_SYMBOLS_HIDDE"
     id="g54"
     transform="translate(874.85669,-179.74324)" />
  <g
     inkscape:groupmode="layer"
     inkscape:label="EXPLODE_LINES"
     id="g56"
     transform="translate(874.85669,-179.74324)" />
  <g
     inkscape:groupmode="layer"
     inkscape:label="BREAK_LINES"
     id="g58"
     transform="translate(874.85669,-179.74324)" />
  <g
     inkscape:groupmode="layer"
     inkscape:label="SHEETMETAL_BEND_LINES_UP"
     id="g60"
     transform="translate(874.85669,-179.74324)" />
  <g
     inkscape:groupmode="layer"
     inkscape:label="SHEETMETAL_BEND_LINES_DOWN"
     id="g62"
     transform="translate(874.85669,-179.74324)" />
  <g
     inkscape:groupmode="layer"
     inkscape:label="SHEETMETAL_BEND_TANGENT_LI"
     id="g64"
     transform="translate(874.85669,-179.74324)" />
  <g
     inkscape:groupmode="layer"
     inkscape:label="SHEETMETAL_CUT_LINES"
     id="g66"
     transform="translate(874.85669,-179.74324)" />
  <g
     inkscape:groupmode="layer"
     inkscape:label="HIDDEN"
     id="g68"
     transform="translate(874.85669,-179.74324)" />
  <g
     inkscape:groupmode="layer"
     inkscape:label="VISIBLE"
     id="g104"
     transform="translate(874.85669,-179.74324)">
    <path
       d="m 98.683218,1691.8459 c 0.0081,-117.393 -95.1555001,-212.5629 -212.548468,-212.5629 -117.39297,0 -212.55652,95.1699 -212.54847,212.5629 -0.008,117.3931 95.1555,212.563 212.54847,212.563 117.3929679,0 212.55652,-95.1699 212.548468,-212.563 z"
       style="fill:none;stroke:#000000;stroke-width:3.77952766;stroke-miterlimit:4;stroke-dasharray:none"
       id="path70"
       inkscape:connector-curvature="0"
       sodipodi:nodetypes="cscsc" />
    <path
       d="m 94.88771,1891.1101 c 0,-5.2405 -4.248268,-9.4887 -9.488771,-9.4887 -5.240503,0 -9.488771,4.2482 -9.488771,9.4887 0,5.2405 4.248268,9.4888 9.488771,9.4888 5.240503,0 9.488771,-4.2483 9.488771,-9.4888 z"
       style="fill:none;stroke:#000000;stroke-width:3.77952766;stroke-miterlimit:4;stroke-dasharray:none"
       id="path72"
       inkscape:connector-curvature="0"
       sodipodi:nodetypes="sssss" />
    <path
       d="m -303.64067,1492.5818 c 0,-5.2406 -4.24827,-9.4888 -9.48877,-9.4888 -5.24051,0 -9.48877,4.2482 -9.48877,9.4888 0,5.2405 4.24826,9.4887 9.48877,9.4887 5.2405,0 9.48877,-4.2482 9.48877,-9.4887 z"
       style="fill:none;stroke:#000000;stroke-width:3.77952766;stroke-miterlimit:4;stroke-dasharray:none"
       id="path74"
       inkscape:connector-curvature="0"
       sodipodi:nodetypes="sssss" />
    <path
       d="m 426.04582,230.57521 c 0,-4.71645 -3.82344,-8.53989 -8.5399,-8.53989 -4.71645,0 -8.53989,3.82344 -8.53989,8.53989 0,4.71646 3.82344,8.53989 8.53989,8.53989 4.71646,0 8.5399,-3.82343 8.5399,-8.53989 z"
       style="fill:none;stroke:#000000;stroke-width:3.77952766;stroke-miterlimit:4;stroke-dasharray:none"
       id="path76"
       inkscape:connector-curvature="0"
       sodipodi:nodetypes="sssss" />
    <path
       d="m -788.51687,230.57521 c 0.002,-4.71759 -3.8223,-8.54281 -8.53989,-8.54281 -4.7176,0 -8.54151,3.82522 -8.5399,8.54281 -0.002,4.7176 3.8223,8.54282 8.5399,8.54282 4.71759,0 8.54151,-3.82522 8.53989,-8.54282 z"
       style="fill:none;stroke:#000000;stroke-width:3.77952766;stroke-miterlimit:4;stroke-dasharray:none"
       id="path78"
       inkscape:connector-curvature="0"
       sodipodi:nodetypes="cscsc" />
    <path
       d="m 426.04582,2014.4642 c 0,-4.7165 -3.82344,-8.5399 -8.5399,-8.5399 -4.71645,0 -8.53989,3.8234 -8.53989,8.5399 0,4.7164 3.82344,8.5398 8.53989,8.5398 4.71646,0 8.5399,-3.8234 8.5399,-8.5398 z"
       style="fill:none;stroke:#000000;stroke-width:3.77952766;stroke-miterlimit:4;stroke-dasharray:none"
       id="path80"
       inkscape:connector-curvature="0"
       sodipodi:nodetypes="sssss" />
    <path
       d="m -788.51687,2014.4642 c 0.002,-4.7176 -3.8223,-8.5429 -8.53989,-8.5429 -4.7176,0 -8.54151,3.8253 -8.5399,8.5429 -0.002,4.7176 3.8223,8.5428 8.5399,8.5428 4.71759,0 8.54151,-3.8252 8.53989,-8.5428 z"
       style="fill:none;stroke:#000000;stroke-width:3.77952766;stroke-miterlimit:4;stroke-dasharray:none"
       id="path82"
       inkscape:connector-curvature="0"
       sodipodi:nodetypes="cscsc" />
    <path
       d="m -303.64067,1891.1101 c 0,-5.2405 -4.24827,-9.4887 -9.48877,-9.4887 -5.24051,0 -9.48877,4.2482 -9.48877,9.4887 0,5.2405 4.24826,9.4888 9.48877,9.4888 5.2405,0 9.48877,-4.2483 9.48877,-9.4888 z"
       style="fill:none;stroke:#000000;stroke-width:3.77952766;stroke-miterlimit:4;stroke-dasharray:none"
       id="path84"
       inkscape:connector-curvature="0"
       sodipodi:nodetypes="sssss" />
    <path
       d="m 94.88771,1492.5818 c 0,-5.2406 -4.248268,-9.4888 -9.488771,-9.4888 -5.240503,0 -9.488771,4.2482 -9.488771,9.4888 0,5.2405 4.248268,9.4887 9.488771,9.4887 5.240503,0 9.488771,-4.2482 9.488771,-9.4887 z"
       style="fill:none;stroke:#000000;stroke-width:3.77952766;stroke-miterlimit:4;stroke-dasharray:none"
       id="path86"
       inkscape:connector-curvature="0"
       sodipodi:nodetypes="sssss" />
    <path
       d="m -580.71278,431.73716 h -178.3889 V 325.46292 h 178.3889 z"
       style="fill:none;stroke:#000000;stroke-width:3.77952766;stroke-miterlimit:4;stroke-dasharray:none"
       id="path90"
       inkscape:connector-curvature="0"
       sodipodi:nodetypes="ccccc" />
    <path
       d="M -872.96693,2071.3968 V 181.633 H 872.96693 v 1889.7638 z"
       style="fill:none;stroke:#000000;stroke-width:3.77952766;stroke-miterlimit:4;stroke-dasharray:none"
       id="path96"
       inkscape:connector-curvature="0"
       sodipodi:nodetypes="ccccc" />
  </g>
  <g
     inkscape:groupmode="layer"
     inkscape:label="MODELSKETCH_VISIBLE"
     id="g106"
     transform="translate(874.85669,-179.74324)" />
  <g
     inkscape:groupmode="layer"
     inkscape:label="MODELSKETCH_CONSTRUCTION"
     id="g108"
     transform="translate(874.85669,-179.74324)" />
  <g
     inkscape:groupmode="layer"
     inkscape:label="TANGENT_LINES"
     id="g110"
     transform="translate(874.85669,-179.74324)" />
  <g
     inkscape:groupmode="layer"
     inkscape:label="TANGENT_HIDDEN"
     id="g112"
     transform="translate(874.85669,-179.74324)" />
  <g
     inkscape:groupmode="layer"
     inkscape:label="INVISIBLE_LINES"
     id="g114"
     transform="translate(874.85669,-179.74324)" />
  <g
     inkscape:groupmode="layer"
     inkscape:label="VIEW_HATCHES"
     id="g116"
     transform="translate(874.85669,-179.74324)" />
  <g
     inkscape:groupmode="layer"
     inkscape:label="SECTION_JOG_LINES"
     id="g118"
     transform="translate(874.85669,-179.74324)" />
</svg>
