<?xml version="1.0" encoding="UTF-8" standalone="no"?>
<svg
   xmlns:dc="http://purl.org/dc/elements/1.1/"
   xmlns:cc="http://creativecommons.org/ns#"
   xmlns:rdf="http://www.w3.org/1999/02/22-rdf-syntax-ns#"
   xmlns:svg="http://www.w3.org/2000/svg"
   xmlns="http://www.w3.org/2000/svg"
   xmlns:xlink="http://www.w3.org/1999/xlink"
   xmlns:sodipodi="http://sodipodi.sourceforge.net/DTD/sodipodi-0.dtd"
   xmlns:inkscape="http://www.inkscape.org/namespaces/inkscape"
   width="1889.7638"
   height="340.15747"
   version="1.1"
   id="svg286"
   sodipodi:docname="bottom_marquee.svg"
   inkscape:version="0.92.3 (2405546, 2018-03-11)">
  <metadata
     id="metadata290">
    <rdf:RDF>
      <cc:Work
         rdf:about="">
        <dc:format>image/svg+xml</dc:format>
        <dc:type
           rdf:resource="http://purl.org/dc/dcmitype/StillImage" />
        <dc:title></dc:title>
      </cc:Work>
    </rdf:RDF>
  </metadata>
  <sodipodi:namedview
     pagecolor="#ffffff"
     bordercolor="#666666"
     borderopacity="1"
     objecttolerance="10"
     gridtolerance="10"
     guidetolerance="10"
     inkscape:pageopacity="0"
     inkscape:pageshadow="2"
     inkscape:window-width="1373"
     inkscape:window-height="845"
     id="namedview288"
     showgrid="false"
     fit-margin-top="0"
     fit-margin-left="0"
     fit-margin-right="0"
     fit-margin-bottom="0"
     inkscape:zoom="0.21024131"
     inkscape:cx="1326.5543"
     inkscape:cy="411.80569"
     inkscape:window-x="67"
     inkscape:window-y="27"
     inkscape:window-maximized="1"
     inkscape:current-layer="g270" />
  <desc
     id="desc2">/home/henry/Documents/fablab/bartop/Bartop-project/dxf_from_onshape/bottom_marquee.dxf - scale = 1.000000, origin = (0.000000, 0.000000), method = manual</desc>
  <defs
     id="defs16">
    <marker
       id="DistanceX"
       orient="auto"
       refX="0"
       refY="0"
       style="overflow:visible">
      <path
         d="M 3,-3 -3,3 M 0,-5 V 5"
         style="stroke:#000000;stroke-width:0.5"
         id="path4"
         inkscape:connector-curvature="0" />
    </marker>
    <pattern
       height="8"
       id="Hatch"
       patternUnits="userSpaceOnUse"
       width="8"
       x="0"
       y="0">
      <path
         d="M8 4 l-4,4"
         linecap="square"
         stroke="#000000"
         stroke-width="0.25"
         id="path7" />
      <path
         d="M6 2 l-4,4"
         linecap="square"
         stroke="#000000"
         stroke-width="0.25"
         id="path9" />
      <path
         d="M4 0 l-4,4"
         linecap="square"
         stroke="#000000"
         stroke-width="0.25"
         id="path11" />
    </pattern>
    <symbol
       id="*MODEL_SPACE" />
    <symbol
       id="*PAPER_SPACE" />
    <clipPath
       clipPathUnits="userSpaceOnUse"
       id="clipPath1315">
      <use
         x="0"
         y="0"
         xlink:href="#g1311"
         id="use1317"
         width="100%"
         height="100%" />
    </clipPath>
  </defs>
  <g
     inkscape:groupmode="layer"
     inkscape:label="0"
     id="g18"
     transform="translate(929.70391,-952.44096)" />
  <g
     inkscape:groupmode="layer"
     inkscape:label="SECTION_CUTTING_LINE"
     id="g20"
     transform="translate(929.70391,-952.44096)" />
  <g
     inkscape:groupmode="layer"
     inkscape:label="DETAIL_VIEW_BORDER"
     id="g22"
     transform="translate(929.70391,-952.44096)" />
  <g
     inkscape:groupmode="layer"
     inkscape:label="DETAIL_VIEW_PARENT_BORDER"
     id="g24"
     transform="translate(929.70391,-952.44096)" />
  <g
     inkscape:groupmode="layer"
     inkscape:label="TEXT"
     id="g26"
     transform="translate(929.70391,-952.44096)" />
  <g
     inkscape:groupmode="layer"
     inkscape:label="SKETCHED_GEOMETRY"
     id="g28"
     transform="translate(929.70391,-952.44096)" />
  <g
     inkscape:groupmode="layer"
     inkscape:label="CENTERLINES"
     id="g30"
     transform="translate(929.70391,-952.44096)" />
  <g
     inkscape:groupmode="layer"
     inkscape:label="CENTERMARKS"
     id="g32"
     transform="translate(929.70391,-952.44096)" />
  <g
     inkscape:groupmode="layer"
     inkscape:label="TABLES"
     id="g34"
     transform="translate(929.70391,-952.44096)" />
  <g
     inkscape:groupmode="layer"
     inkscape:label="IMAGES"
     id="g36"
     transform="translate(929.70391,-952.44096)" />
  <g
     inkscape:groupmode="layer"
     inkscape:label="ANNOTATION_LINES"
     id="g38"
     transform="translate(929.70391,-952.44096)" />
  <g
     inkscape:groupmode="layer"
     inkscape:label="ANNOTATION_TEXT"
     id="g40"
     transform="translate(929.70391,-952.44096)" />
  <g
     inkscape:groupmode="layer"
     inkscape:label="SIDE_THREAD_SYMBOLS"
     id="g42"
     transform="translate(929.70391,-952.44096)" />
  <g
     inkscape:groupmode="layer"
     inkscape:label="SIDE_THREAD_SYMBOLS_HIDDEN"
     id="g44"
     transform="translate(929.70391,-952.44096)" />
  <g
     inkscape:groupmode="layer"
     inkscape:label="SURFACE_THREAD_SYMBOLS"
     id="g46"
     transform="translate(929.70391,-952.44096)" />
  <g
     inkscape:groupmode="layer"
     inkscape:label="SURFACE_THREAD_SYMBOLS_ON_"
     id="g48"
     transform="translate(929.70391,-952.44096)" />
  <g
     inkscape:groupmode="layer"
     inkscape:label="SURFACE_THREAD_SYMBOLS_HID"
     id="g50"
     transform="translate(929.70391,-952.44096)" />
  <g
     inkscape:groupmode="layer"
     inkscape:label="BLIND_THREAD_SYMBOLS"
     id="g52"
     transform="translate(929.70391,-952.44096)" />
  <g
     inkscape:groupmode="layer"
     inkscape:label="BLIND_THREAD_SYMBOLS_HIDDE"
     id="g54"
     transform="translate(929.70391,-952.44096)" />
  <g
     inkscape:groupmode="layer"
     inkscape:label="EXPLODE_LINES"
     id="g56"
     transform="translate(929.70391,-952.44096)" />
  <g
     inkscape:groupmode="layer"
     inkscape:label="BREAK_LINES"
     id="g58"
     transform="translate(929.70391,-952.44096)" />
  <g
     inkscape:groupmode="layer"
     inkscape:label="SHEETMETAL_BEND_LINES_UP"
     id="g60"
     transform="translate(929.70391,-952.44096)" />
  <g
     inkscape:groupmode="layer"
     inkscape:label="SHEETMETAL_BEND_LINES_DOWN"
     id="g62"
     transform="translate(929.70391,-952.44096)" />
  <g
     inkscape:groupmode="layer"
     inkscape:label="SHEETMETAL_BEND_TANGENT_LI"
     id="g64"
     transform="translate(929.70391,-952.44096)" />
  <g
     inkscape:groupmode="layer"
     inkscape:label="SHEETMETAL_CUT_LINES"
     id="g66"
     transform="translate(929.70391,-952.44096)" />
  <g
     inkscape:groupmode="layer"
     inkscape:label="HIDDEN"
     id="g68"
     transform="translate(929.70391,-952.44096)" />
  <g
     inkscape:groupmode="layer"
     inkscape:label="VISIBLE"
     id="g270"
     transform="translate(929.70391,-952.44096)">
    <g
       id="g1313"
       clip-path="url(#clipPath1315)"
       transform="rotate(-90,15.178,1122.5197)">
      <g
         inkscape:label="Clip"
         id="g1311">
        <path
           sodipodi:nodetypes="sssss"
           inkscape:connector-curvature="0"
           id="path70"
           style="fill:none;stroke:#000000;stroke-width:3.77952766;stroke-miterlimit:4;stroke-dasharray:none"
           d="m -60.472441,442.20472 c 0,-4.17475 -3.384304,-7.55905 -7.559055,-7.55905 -4.174751,0 -7.559055,3.3843 -7.559055,7.55905 0,4.17476 3.384304,7.55906 7.559055,7.55906 4.174751,0 7.559055,-3.3843 7.559055,-7.55906 z" />
        <path
           sodipodi:nodetypes="sssss"
           inkscape:connector-curvature="0"
           id="path72"
           style="fill:none;stroke:#000000;stroke-width:3.77952766;stroke-miterlimit:4;stroke-dasharray:none"
           d="m -120.94488,442.20472 c 0,-4.17475 -3.38431,-7.55905 -7.55906,-7.55905 -4.17475,0 -7.55905,3.3843 -7.55905,7.55905 0,4.17476 3.3843,7.55906 7.55905,7.55906 4.17475,0 7.55906,-3.3843 7.55906,-7.55906 z" />
        <path
           sodipodi:nodetypes="sssss"
           inkscape:connector-curvature="0"
           id="path74"
           style="fill:none;stroke:#000000;stroke-width:3.77952766;stroke-miterlimit:4;stroke-dasharray:none"
           d="m -17.007874,366.92189 c 0,-4.17476 -3.384304,-7.55905 -7.559055,-7.55905 -4.174751,0 -7.559055,3.38429 -7.559055,7.55905 0,4.17475 3.384304,7.55905 7.559055,7.55905 4.174751,0 7.559055,-3.3843 7.559055,-7.55905 z" />
        <path
           sodipodi:nodetypes="sssss"
           inkscape:connector-curvature="0"
           id="path76"
           style="fill:none;stroke:#000000;stroke-width:3.77952766;stroke-miterlimit:4;stroke-dasharray:none"
           d="m 69.92126,366.92189 c 0,-4.17476 -3.384304,-7.55905 -7.559055,-7.55905 -4.174751,0 -7.559055,3.38429 -7.559055,7.55905 0,4.17475 3.384304,7.55905 7.559055,7.55905 4.174751,0 7.559055,-3.3843 7.559055,-7.55905 z" />
        <path
           sodipodi:nodetypes="sssss"
           inkscape:connector-curvature="0"
           id="path78"
           style="fill:none;stroke:#000000;stroke-width:3.77952766;stroke-miterlimit:4;stroke-dasharray:none"
           d="m 113.38583,442.20472 c 0,-4.17475 -3.38431,-7.55905 -7.55906,-7.55905 -4.17475,0 -7.559053,3.3843 -7.559053,7.55905 0,4.17476 3.384303,7.55906 7.559053,7.55906 4.17475,0 7.55906,-3.3843 7.55906,-7.55906 z" />
        <path
           sodipodi:nodetypes="sssss"
           inkscape:connector-curvature="0"
           id="path80"
           style="fill:none;stroke:#000000;stroke-width:3.77952766;stroke-miterlimit:4;stroke-dasharray:none"
           d="m 69.92126,517.48756 c 0,-4.17475 -3.384304,-7.55905 -7.559055,-7.55905 -4.174751,0 -7.559055,3.3843 -7.559055,7.55905 0,4.17476 3.384304,7.55905 7.559055,7.55905 4.174751,0 7.559055,-3.38429 7.559055,-7.55905 z" />
        <path
           sodipodi:nodetypes="sssss"
           inkscape:connector-curvature="0"
           id="path82"
           style="fill:none;stroke:#000000;stroke-width:3.77952766;stroke-miterlimit:4;stroke-dasharray:none"
           d="m -17.007874,517.48756 c 0,-4.17475 -3.384304,-7.55905 -7.559055,-7.55905 -4.174751,0 -7.559055,3.3843 -7.559055,7.55905 0,4.17476 3.384304,7.55905 7.559055,7.55905 4.174751,0 7.559055,-3.38429 7.559055,-7.55905 z" />
        <path
           sodipodi:nodetypes="sssss"
           inkscape:connector-curvature="0"
           id="path84"
           style="fill:none;stroke:#000000;stroke-width:3.77952766;stroke-miterlimit:4;stroke-dasharray:none"
           d="m -81.789982,397.36748 c 0,-4.17475 -3.384304,-7.55905 -7.559055,-7.55905 -4.174751,0 -7.559055,3.3843 -7.559055,7.55905 0,4.17476 3.384304,7.55905 7.559055,7.55905 4.174751,0 7.559055,-3.38429 7.559055,-7.55905 z" />
        <path
           sodipodi:nodetypes="sssss"
           inkscape:connector-curvature="0"
           id="path86"
           style="fill:none;stroke:#000000;stroke-width:3.77952766;stroke-miterlimit:4;stroke-dasharray:none"
           d="m -18.380549,333.95805 c 0,-4.17475 -3.384305,-7.55905 -7.559056,-7.55905 -4.17475,0 -7.559055,3.3843 -7.559055,7.55905 0,4.17475 3.384305,7.55905 7.559055,7.55905 4.174751,0 7.559056,-3.3843 7.559056,-7.55905 z" />
        <path
           sodipodi:nodetypes="sssss"
           inkscape:connector-curvature="0"
           id="path88"
           style="fill:none;stroke:#000000;stroke-width:3.77952766;stroke-miterlimit:4;stroke-dasharray:none"
           d="m 71.293931,333.95805 c 0,-4.17475 -3.384304,-7.55905 -7.559055,-7.55905 -4.174751,0 -7.559055,3.3843 -7.559055,7.55905 0,4.17475 3.384304,7.55905 7.559055,7.55905 4.174751,0 7.559055,-3.3843 7.559055,-7.55905 z" />
        <path
           sodipodi:nodetypes="sssss"
           inkscape:connector-curvature="0"
           id="path90"
           style="fill:none;stroke:#000000;stroke-width:3.77952766;stroke-miterlimit:4;stroke-dasharray:none"
           d="m 134.70336,397.36748 c 0,-4.17475 -3.3843,-7.55905 -7.55905,-7.55905 -4.17475,0 -7.55906,3.3843 -7.55906,7.55905 0,4.17476 3.38431,7.55905 7.55906,7.55905 4.17475,0 7.55905,-3.38429 7.55905,-7.55905 z" />
        <path
           sodipodi:nodetypes="sssss"
           inkscape:connector-curvature="0"
           id="path92"
           style="fill:none;stroke:#000000;stroke-width:3.77952766;stroke-miterlimit:4;stroke-dasharray:none"
           d="m 134.70336,487.04196 c 0,-4.17475 -3.3843,-7.55905 -7.55905,-7.55905 -4.17475,0 -7.55906,3.3843 -7.55906,7.55905 0,4.17476 3.38431,7.55906 7.55906,7.55906 4.17475,0 7.55905,-3.3843 7.55905,-7.55906 z" />
        <path
           sodipodi:nodetypes="sssss"
           inkscape:connector-curvature="0"
           id="path94"
           style="fill:none;stroke:#000000;stroke-width:3.77952766;stroke-miterlimit:4;stroke-dasharray:none"
           d="m 71.293931,550.4514 c 0,-4.17476 -3.384304,-7.55906 -7.559055,-7.55906 -4.174751,0 -7.559055,3.3843 -7.559055,7.55906 0,4.17475 3.384304,7.55905 7.559055,7.55905 4.174751,0 7.559055,-3.3843 7.559055,-7.55905 z" />
        <path
           sodipodi:nodetypes="sssss"
           inkscape:connector-curvature="0"
           id="path96"
           style="fill:none;stroke:#000000;stroke-width:3.77952766;stroke-miterlimit:4;stroke-dasharray:none"
           d="m -18.380549,550.4514 c 0,-4.17476 -3.384305,-7.55906 -7.559056,-7.55906 -4.17475,0 -7.559055,3.3843 -7.559055,7.55906 0,4.17475 3.384305,7.55905 7.559055,7.55905 4.174751,0 7.559056,-3.3843 7.559056,-7.55905 z" />
        <path
           sodipodi:nodetypes="sssss"
           inkscape:connector-curvature="0"
           id="path98"
           style="fill:none;stroke:#000000;stroke-width:3.77952766;stroke-miterlimit:4;stroke-dasharray:none"
           d="m -81.789982,487.04196 c 0,-4.17475 -3.384304,-7.55905 -7.559055,-7.55905 -4.174751,0 -7.559055,3.3843 -7.559055,7.55905 0,4.17476 3.384304,7.55905 7.559055,7.55905 4.174751,0 7.559055,-3.38429 7.559055,-7.55905 z" />
        <path
           sodipodi:nodetypes="sssss"
           inkscape:connector-curvature="0"
           id="path100"
           style="fill:none;stroke:#000000;stroke-width:3.77952766;stroke-miterlimit:4;stroke-dasharray:none"
           d="m -92.793687,355.56425 c 0,-4.17475 -3.384304,-7.55905 -7.559053,-7.55905 -4.17475,0 -7.55906,3.3843 -7.55906,7.55905 0,4.17476 3.38431,7.55905 7.55906,7.55905 4.174749,0 7.559053,-3.38429 7.559053,-7.55905 z" />
        <path
           sodipodi:nodetypes="sssss"
           inkscape:connector-curvature="0"
           id="path102"
           style="fill:none;stroke:#000000;stroke-width:3.77952766;stroke-miterlimit:4;stroke-dasharray:none"
           d="m -19.0929,302.0175 c 0,-4.17476 -3.384304,-7.55905 -7.559055,-7.55905 -4.174751,0 -7.559055,3.38429 -7.559055,7.55905 0,4.17475 3.384304,7.55905 7.559055,7.55905 4.174751,0 7.559055,-3.3843 7.559055,-7.55905 z" />
        <path
           sodipodi:nodetypes="sssss"
           inkscape:connector-curvature="0"
           id="path104"
           style="fill:none;stroke:#000000;stroke-width:3.77952766;stroke-miterlimit:4;stroke-dasharray:none"
           d="m 72.006282,302.0175 c 0,-4.17476 -3.384305,-7.55906 -7.559056,-7.55906 -4.17475,0 -7.559055,3.3843 -7.559055,7.55906 0,4.17475 3.384305,7.55905 7.559055,7.55905 4.174751,0 7.559056,-3.3843 7.559056,-7.55905 z" />
        <path
           sodipodi:nodetypes="sssss"
           inkscape:connector-curvature="0"
           id="path106"
           style="fill:none;stroke:#000000;stroke-width:3.77952766;stroke-miterlimit:4;stroke-dasharray:none"
           d="m 145.70707,355.56425 c 0,-4.17475 -3.38431,-7.55905 -7.55906,-7.55905 -4.17475,0 -7.55905,3.3843 -7.55905,7.55905 0,4.17476 3.3843,7.55905 7.55905,7.55905 4.17475,0 7.55906,-3.38429 7.55906,-7.55905 z" />
        <path
           sodipodi:nodetypes="sssss"
           inkscape:connector-curvature="0"
           id="path108"
           style="fill:none;stroke:#000000;stroke-width:3.77952766;stroke-miterlimit:4;stroke-dasharray:none"
           d="m 173.85827,442.20472 c 0,-4.17475 -3.38431,-7.55905 -7.55906,-7.55905 -4.17475,0 -7.55905,3.3843 -7.55905,7.55905 0,4.17476 3.3843,7.55906 7.55905,7.55906 4.17475,0 7.55906,-3.3843 7.55906,-7.55906 z" />
        <path
           sodipodi:nodetypes="sssss"
           inkscape:connector-curvature="0"
           id="path110"
           style="fill:none;stroke:#000000;stroke-width:3.77952766;stroke-miterlimit:4;stroke-dasharray:none"
           d="m 145.70707,528.8452 c 0,-4.17476 -3.38431,-7.55905 -7.55906,-7.55905 -4.17475,0 -7.55905,3.38429 -7.55905,7.55905 0,4.17475 3.3843,7.55905 7.55905,7.55905 4.17475,0 7.55906,-3.3843 7.55906,-7.55905 z" />
        <path
           sodipodi:nodetypes="sssss"
           inkscape:connector-curvature="0"
           id="path112"
           style="fill:none;stroke:#000000;stroke-width:3.77952766;stroke-miterlimit:4;stroke-dasharray:none"
           d="m 72.006282,582.39195 c 0,-4.17475 -3.384305,-7.55905 -7.559056,-7.55905 -4.17475,0 -7.559055,3.3843 -7.559055,7.55905 0,4.17476 3.384305,7.55905 7.559055,7.55905 4.174751,0 7.559056,-3.38429 7.559056,-7.55905 z" />
        <path
           sodipodi:nodetypes="sssss"
           inkscape:connector-curvature="0"
           id="path114"
           style="fill:none;stroke:#000000;stroke-width:3.77952766;stroke-miterlimit:4;stroke-dasharray:none"
           d="m -19.0929,582.39195 c 0,-4.17475 -3.384304,-7.55905 -7.559055,-7.55905 -4.174751,0 -7.559055,3.3843 -7.559055,7.55905 0,4.17476 3.384304,7.55905 7.559055,7.55905 4.174751,0 7.559055,-3.38429 7.559055,-7.55905 z" />
        <path
           sodipodi:nodetypes="sssss"
           inkscape:connector-curvature="0"
           id="path116"
           style="fill:none;stroke:#000000;stroke-width:3.77952766;stroke-miterlimit:4;stroke-dasharray:none"
           d="m -92.793687,528.8452 c 0,-4.17476 -3.384304,-7.55905 -7.559053,-7.55905 -4.17475,0 -7.55906,3.38429 -7.55906,7.55905 0,4.17475 3.38431,7.55905 7.55906,7.55905 4.174749,0 7.559053,-3.3843 7.559053,-7.55905 z" />
        <path
           sodipodi:nodetypes="sssss"
           inkscape:connector-curvature="0"
           id="path118"
           style="fill:none;stroke:#000000;stroke-width:3.77952766;stroke-miterlimit:4;stroke-dasharray:none"
           d="m -90.708661,1802.8346 c 0,-4.1747 -3.384305,-7.559 -7.559056,-7.559 -4.174753,0 -7.559053,3.3843 -7.559053,7.559 0,4.1748 3.3843,7.5591 7.559053,7.5591 4.174751,0 7.559056,-3.3843 7.559056,-7.5591 z" />
        <path
           sodipodi:nodetypes="sssss"
           inkscape:connector-curvature="0"
           id="path120"
           style="fill:none;stroke:#000000;stroke-width:3.77952766;stroke-miterlimit:4;stroke-dasharray:none"
           d="m -48.826148,1759.3701 c 0,-4.1748 -3.384304,-7.5591 -7.559055,-7.5591 -4.174751,0 -7.559055,3.3843 -7.559055,7.5591 0,4.1747 3.384304,7.559 7.559055,7.559 4.174751,0 7.559055,-3.3843 7.559055,-7.559 z" />
        <path
           sodipodi:nodetypes="sssss"
           inkscape:connector-curvature="0"
           id="path122"
           style="fill:none;stroke:#000000;stroke-width:3.77952766;stroke-miterlimit:4;stroke-dasharray:none"
           d="m 26.456693,1715.9055 c 0,-4.1747 -3.384304,-7.559 -7.559055,-7.559 -4.174751,0 -7.559055,3.3843 -7.559055,7.559 0,4.1748 3.384304,7.5591 7.559055,7.5591 4.174751,0 7.559055,-3.3843 7.559055,-7.5591 z" />
        <path
           sodipodi:nodetypes="sssss"
           inkscape:connector-curvature="0"
           id="path124"
           style="fill:none;stroke:#000000;stroke-width:3.77952766;stroke-miterlimit:4;stroke-dasharray:none"
           d="m 101.73953,1759.3701 c 0,-4.1748 -3.384304,-7.5591 -7.559055,-7.5591 -4.174751,0 -7.559055,3.3843 -7.559055,7.5591 0,4.1747 3.384304,7.559 7.559055,7.559 4.174751,0 7.559055,-3.3843 7.559055,-7.559 z" />
        <path
           sodipodi:nodetypes="sssss"
           inkscape:connector-curvature="0"
           id="path126"
           style="fill:none;stroke:#000000;stroke-width:3.77952766;stroke-miterlimit:4;stroke-dasharray:none"
           d="m 101.73953,1846.2992 c 0,-4.1747 -3.384304,-7.559 -7.559055,-7.559 -4.174751,0 -7.559055,3.3843 -7.559055,7.559 0,4.1748 3.384304,7.5591 7.559055,7.5591 4.174751,0 7.559055,-3.3843 7.559055,-7.5591 z" />
        <path
           sodipodi:nodetypes="sssss"
           inkscape:connector-curvature="0"
           id="path128"
           style="fill:none;stroke:#000000;stroke-width:3.77952766;stroke-miterlimit:4;stroke-dasharray:none"
           d="m 26.456693,1889.7638 c 0,-4.1748 -3.384304,-7.5591 -7.559055,-7.5591 -4.174751,0 -7.559055,3.3843 -7.559055,7.5591 0,4.1747 3.384304,7.559 7.559055,7.559 4.174751,0 7.559055,-3.3843 7.559055,-7.559 z" />
        <path
           sodipodi:nodetypes="sssss"
           inkscape:connector-curvature="0"
           id="path130"
           style="fill:none;stroke:#000000;stroke-width:3.77952766;stroke-miterlimit:4;stroke-dasharray:none"
           d="m -48.826148,1846.2992 c 0,-4.1747 -3.384304,-7.559 -7.559055,-7.559 -4.174751,0 -7.559055,3.3843 -7.559055,7.559 0,4.1748 3.384304,7.5591 7.559055,7.5591 4.174751,0 7.559055,-3.3843 7.559055,-7.5591 z" />
        <path
           sodipodi:nodetypes="sssss"
           inkscape:connector-curvature="0"
           id="path132"
           style="fill:none;stroke:#000000;stroke-width:3.77952766;stroke-miterlimit:4;stroke-dasharray:none"
           d="m -56.391727,1719.9862 c 0,-4.1747 -3.384304,-7.559 -7.559055,-7.559 -4.174751,0 -7.559055,3.3843 -7.559055,7.559 0,4.1748 3.384304,7.5591 7.559055,7.5591 4.174751,0 7.559055,-3.3843 7.559055,-7.5591 z" />
        <path
           sodipodi:nodetypes="sssss"
           inkscape:connector-curvature="0"
           id="path134"
           style="fill:none;stroke:#000000;stroke-width:3.77952766;stroke-miterlimit:4;stroke-dasharray:none"
           d="m 26.456693,1685.6693 c 0,-4.1748 -3.384304,-7.5591 -7.559055,-7.5591 -4.174751,0 -7.559055,3.3843 -7.559055,7.5591 0,4.1747 3.384304,7.559 7.559055,7.559 4.174751,0 7.559055,-3.3843 7.559055,-7.559 z" />
        <path
           sodipodi:nodetypes="sssss"
           inkscape:connector-curvature="0"
           id="path136"
           style="fill:none;stroke:#000000;stroke-width:3.77952766;stroke-miterlimit:4;stroke-dasharray:none"
           d="m 109.30511,1719.9862 c 0,-4.1747 -3.38431,-7.559 -7.55906,-7.559 -4.174747,0 -7.559052,3.3843 -7.559052,7.559 0,4.1748 3.384305,7.5591 7.559052,7.5591 4.17475,0 7.55906,-3.3843 7.55906,-7.5591 z" />
        <path
           sodipodi:nodetypes="sssss"
           inkscape:connector-curvature="0"
           id="path138"
           style="fill:none;stroke:#000000;stroke-width:3.77952766;stroke-miterlimit:4;stroke-dasharray:none"
           d="m 143.62205,1802.8346 c 0,-4.1747 -3.38431,-7.559 -7.55906,-7.559 -4.17475,0 -7.55905,3.3843 -7.55905,7.559 0,4.1748 3.3843,7.5591 7.55905,7.5591 4.17475,0 7.55906,-3.3843 7.55906,-7.5591 z" />
        <path
           sodipodi:nodetypes="sssss"
           inkscape:connector-curvature="0"
           id="path140"
           style="fill:none;stroke:#000000;stroke-width:3.77952766;stroke-miterlimit:4;stroke-dasharray:none"
           d="m -18.380549,1911.0813 c 0,-4.1747 -3.384305,-7.559 -7.559056,-7.559 -4.17475,0 -7.559055,3.3843 -7.559055,7.559 0,4.1748 3.384305,7.5591 7.559055,7.5591 4.174751,0 7.559056,-3.3843 7.559056,-7.5591 z" />
        <path
           sodipodi:nodetypes="sssss"
           inkscape:connector-curvature="0"
           id="path142"
           style="fill:none;stroke:#000000;stroke-width:3.77952766;stroke-miterlimit:4;stroke-dasharray:none"
           d="m -81.789982,1847.6719 c 0,-4.1748 -3.384304,-7.5591 -7.559055,-7.5591 -4.174751,0 -7.559055,3.3843 -7.559055,7.5591 0,4.1747 3.384304,7.559 7.559055,7.559 4.174751,0 7.559055,-3.3843 7.559055,-7.559 z" />
        <path
           sodipodi:nodetypes="sssss"
           inkscape:connector-curvature="0"
           id="path144"
           style="fill:none;stroke:#000000;stroke-width:3.77952766;stroke-miterlimit:4;stroke-dasharray:none"
           d="m -92.793687,1716.1942 c 0,-4.1748 -3.384304,-7.5591 -7.559053,-7.5591 -4.17475,0 -7.55906,3.3843 -7.55906,7.5591 0,4.1747 3.38431,7.559 7.55906,7.559 4.174749,0 7.559053,-3.3843 7.559053,-7.559 z" />
        <path
           sodipodi:nodetypes="sssss"
           inkscape:connector-curvature="0"
           id="path146"
           style="fill:none;stroke:#000000;stroke-width:3.77952766;stroke-miterlimit:4;stroke-dasharray:none"
           d="m -19.0929,1662.6474 c 0,-4.1747 -3.384304,-7.559 -7.559055,-7.559 -4.174751,0 -7.559055,3.3843 -7.559055,7.559 0,4.1748 3.384304,7.5591 7.559055,7.5591 4.174751,0 7.559055,-3.3843 7.559055,-7.5591 z" />
        <path
           sodipodi:nodetypes="sssss"
           inkscape:connector-curvature="0"
           id="path148"
           style="fill:none;stroke:#000000;stroke-width:3.77952766;stroke-miterlimit:4;stroke-dasharray:none"
           d="m 72.006282,1662.6474 c 0,-4.1747 -3.384305,-7.559 -7.559056,-7.559 -4.17475,0 -7.559055,3.3843 -7.559055,7.559 0,4.1748 3.384305,7.5591 7.559055,7.5591 4.174751,0 7.559056,-3.3843 7.559056,-7.5591 z" />
        <path
           sodipodi:nodetypes="sssss"
           inkscape:connector-curvature="0"
           id="path150"
           style="fill:none;stroke:#000000;stroke-width:3.77952766;stroke-miterlimit:4;stroke-dasharray:none"
           d="m 145.70707,1716.1942 c 0,-4.1748 -3.38431,-7.5591 -7.55906,-7.5591 -4.17475,0 -7.55905,3.3843 -7.55905,7.5591 0,4.1747 3.3843,7.559 7.55905,7.559 4.17475,0 7.55906,-3.3843 7.55906,-7.559 z" />
        <path
           sodipodi:nodetypes="sssss"
           inkscape:connector-curvature="0"
           id="path152"
           style="fill:none;stroke:#000000;stroke-width:3.77952766;stroke-miterlimit:4;stroke-dasharray:none"
           d="m 173.85827,1802.8346 c 0,-4.1747 -3.38431,-7.559 -7.55906,-7.559 -4.17475,0 -7.55905,3.3843 -7.55905,7.559 0,4.1748 3.3843,7.5591 7.55905,7.5591 4.17475,0 7.55906,-3.3843 7.55906,-7.5591 z" />
        <path
           sodipodi:nodetypes="sssss"
           inkscape:connector-curvature="0"
           id="path154"
           style="fill:none;stroke:#000000;stroke-width:3.77952766;stroke-miterlimit:4;stroke-dasharray:none"
           d="m 145.70707,1889.4751 c 0,-4.1747 -3.38431,-7.559 -7.55906,-7.559 -4.17475,0 -7.55905,3.3843 -7.55905,7.559 0,4.1748 3.3843,7.5591 7.55905,7.5591 4.17475,0 7.55906,-3.3843 7.55906,-7.5591 z" />
        <path
           sodipodi:nodetypes="sssss"
           inkscape:connector-curvature="0"
           id="path156"
           style="fill:none;stroke:#000000;stroke-width:3.77952766;stroke-miterlimit:4;stroke-dasharray:none"
           d="m 72.006282,1943.0219 c 0,-4.1748 -3.384305,-7.5591 -7.559056,-7.5591 -4.17475,0 -7.559055,3.3843 -7.559055,7.5591 0,4.1747 3.384305,7.559 7.559055,7.559 4.174751,0 7.559056,-3.3843 7.559056,-7.559 z" />
        <path
           sodipodi:nodetypes="sssss"
           inkscape:connector-curvature="0"
           id="path158"
           style="fill:none;stroke:#000000;stroke-width:3.77952766;stroke-miterlimit:4;stroke-dasharray:none"
           d="m -19.0929,1943.0219 c 0,-4.1748 -3.384304,-7.5591 -7.559055,-7.5591 -4.174751,0 -7.559055,3.3843 -7.559055,7.5591 0,4.1747 3.384304,7.559 7.559055,7.559 4.174751,0 7.559055,-3.3843 7.559055,-7.559 z" />
        <path
           sodipodi:nodetypes="sssss"
           inkscape:connector-curvature="0"
           id="path160"
           style="fill:none;stroke:#000000;stroke-width:3.77952766;stroke-miterlimit:4;stroke-dasharray:none"
           d="m -92.793687,1889.4751 c 0,-4.1747 -3.384304,-7.559 -7.559053,-7.559 -4.17475,0 -7.55906,3.3843 -7.55906,7.559 0,4.1748 3.38431,7.5591 7.55906,7.5591 4.174749,0 7.559053,-3.3843 7.559053,-7.5591 z" />
        <path
           sodipodi:nodetypes="sssss"
           inkscape:connector-curvature="0"
           id="path162"
           style="fill:none;stroke:#000000;stroke-width:3.77952766;stroke-miterlimit:4;stroke-dasharray:none"
           d="m -60.472441,1802.8346 c 0,-4.1747 -3.384304,-7.559 -7.559055,-7.559 -4.174751,0 -7.559055,3.3843 -7.559055,7.559 0,4.1748 3.384304,7.5591 7.559055,7.5591 4.174751,0 7.559055,-3.3843 7.559055,-7.5591 z" />
        <path
           sodipodi:nodetypes="sssss"
           inkscape:connector-curvature="0"
           id="path164"
           style="fill:none;stroke:#000000;stroke-width:3.77952766;stroke-miterlimit:4;stroke-dasharray:none"
           d="m 109.30511,1885.6831 c 0,-4.1748 -3.38431,-7.5591 -7.55906,-7.5591 -4.174747,0 -7.559052,3.3843 -7.559052,7.5591 0,4.1747 3.384305,7.559 7.559052,7.559 4.17475,0 7.55906,-3.3843 7.55906,-7.559 z" />
        <path
           sodipodi:nodetypes="sssss"
           inkscape:connector-curvature="0"
           id="path166"
           style="fill:none;stroke:#000000;stroke-width:3.77952766;stroke-miterlimit:4;stroke-dasharray:none"
           d="m 134.70336,1847.6719 c 0,-4.1748 -3.3843,-7.5591 -7.55905,-7.5591 -4.17475,0 -7.55906,3.3843 -7.55906,7.5591 0,4.1747 3.38431,7.559 7.55906,7.559 4.17475,0 7.55905,-3.3843 7.55905,-7.559 z" />
        <path
           sodipodi:nodetypes="sssss"
           inkscape:connector-curvature="0"
           id="path168"
           style="fill:none;stroke:#000000;stroke-width:3.77952766;stroke-miterlimit:4;stroke-dasharray:none"
           d="m 71.293931,1911.0813 c 0,-4.1747 -3.384304,-7.559 -7.559055,-7.559 -4.174751,0 -7.559055,3.3843 -7.559055,7.559 0,4.1748 3.384304,7.5591 7.559055,7.5591 4.174751,0 7.559055,-3.3843 7.559055,-7.5591 z" />
        <path
           sodipodi:nodetypes="sssss"
           inkscape:connector-curvature="0"
           id="path170"
           style="fill:none;stroke:#000000;stroke-width:3.77952766;stroke-miterlimit:4;stroke-dasharray:none"
           d="m -113.73054,1848.3842 c 1e-5,-4.1747 -3.3843,-7.559 -7.55905,-7.559 -4.17475,0 -7.55906,3.3843 -7.55905,7.559 -1e-5,4.1748 3.3843,7.5591 7.55905,7.5591 4.17475,0 7.55906,-3.3843 7.55905,-7.5591 z" />
        <path
           sodipodi:nodetypes="sssss"
           inkscape:connector-curvature="0"
           id="path172"
           style="fill:none;stroke:#000000;stroke-width:3.77952766;stroke-miterlimit:4;stroke-dasharray:none"
           d="m -60.18378,1922.085 c 0,-4.1747 -3.384304,-7.559 -7.559055,-7.559 -4.174751,0 -7.559055,3.3843 -7.559055,7.559 0,4.1748 3.384304,7.5591 7.559055,7.5591 4.174751,0 7.559055,-3.3843 7.559055,-7.5591 z" />
        <path
           sodipodi:nodetypes="sssss"
           inkscape:connector-curvature="0"
           id="path174"
           style="fill:none;stroke:#000000;stroke-width:3.77952766;stroke-miterlimit:4;stroke-dasharray:none"
           d="m 26.456693,1950.2362 c 0,-4.1747 -3.384304,-7.559 -7.559055,-7.559 -4.174751,0 -7.559055,3.3843 -7.559055,7.559 0,4.1748 3.384304,7.5591 7.559055,7.5591 4.174751,0 7.559055,-3.3843 7.559055,-7.5591 z" />
        <path
           sodipodi:nodetypes="sssss"
           inkscape:connector-curvature="0"
           id="path176"
           style="fill:none;stroke:#000000;stroke-width:3.77952766;stroke-miterlimit:4;stroke-dasharray:none"
           d="m 113.09717,1922.085 c 0,-4.1747 -3.38431,-7.559 -7.55906,-7.559 -4.17475,0 -7.559055,3.3843 -7.559055,7.559 0,4.1748 3.384305,7.5591 7.559055,7.5591 4.17475,0 7.55906,-3.3843 7.55906,-7.5591 z" />
        <path
           sodipodi:nodetypes="sssss"
           inkscape:connector-curvature="0"
           id="path178"
           style="fill:none;stroke:#000000;stroke-width:3.77952766;stroke-miterlimit:4;stroke-dasharray:none"
           d="m 166.64392,1848.3842 c 0,-4.1747 -3.3843,-7.559 -7.55905,-7.559 -4.17476,0 -7.55906,3.3843 -7.55906,7.559 0,4.1748 3.3843,7.5591 7.55906,7.5591 4.17475,0 7.55905,-3.3843 7.55905,-7.5591 z" />
        <path
           sodipodi:nodetypes="sssss"
           inkscape:connector-curvature="0"
           id="path180"
           style="fill:none;stroke:#000000;stroke-width:3.77952766;stroke-miterlimit:4;stroke-dasharray:none"
           d="m 166.64392,1757.2851 c 0,-4.1748 -3.3843,-7.5591 -7.55905,-7.5591 -4.17476,0 -7.55906,3.3843 -7.55906,7.5591 0,4.1747 3.3843,7.559 7.55906,7.559 4.17475,0 7.55905,-3.3843 7.55905,-7.559 z" />
        <path
           sodipodi:nodetypes="sssss"
           inkscape:connector-curvature="0"
           id="path182"
           style="fill:none;stroke:#000000;stroke-width:3.77952766;stroke-miterlimit:4;stroke-dasharray:none"
           d="m 113.09717,1683.5843 c 0,-4.1748 -3.38431,-7.5591 -7.55906,-7.5591 -4.17475,0 -7.559055,3.3843 -7.559055,7.5591 0,4.1747 3.384305,7.559 7.559055,7.559 4.17475,0 7.55906,-3.3843 7.55906,-7.559 z" />
        <path
           sodipodi:nodetypes="sssss"
           inkscape:connector-curvature="0"
           id="path184"
           style="fill:none;stroke:#000000;stroke-width:3.77952766;stroke-miterlimit:4;stroke-dasharray:none"
           d="m 26.456693,1655.4331 c 0,-4.1748 -3.384304,-7.5591 -7.559055,-7.5591 -4.174751,0 -7.559055,3.3843 -7.559055,7.5591 0,4.1747 3.384304,7.559 7.559055,7.559 4.174751,0 7.559055,-3.3843 7.559055,-7.559 z" />
        <path
           sodipodi:nodetypes="sssss"
           inkscape:connector-curvature="0"
           id="path186"
           style="fill:none;stroke:#000000;stroke-width:3.77952766;stroke-miterlimit:4;stroke-dasharray:none"
           d="m -60.18378,1683.5843 c 0,-4.1748 -3.384304,-7.5591 -7.559055,-7.5591 -4.174751,0 -7.559055,3.3843 -7.559055,7.5591 0,4.1747 3.384304,7.559 7.559055,7.559 4.174751,0 7.559055,-3.3843 7.559055,-7.559 z" />
        <path
           sodipodi:nodetypes="sssss"
           inkscape:connector-curvature="0"
           id="path188"
           style="fill:none;stroke:#000000;stroke-width:3.77952766;stroke-miterlimit:4;stroke-dasharray:none"
           d="m -113.73054,1757.2851 c 1e-5,-4.1748 -3.3843,-7.5591 -7.55905,-7.5591 -4.17475,0 -7.55906,3.3843 -7.55905,7.5591 -1e-5,4.1747 3.3843,7.559 7.55905,7.559 4.17475,0 7.55906,-3.3843 7.55905,-7.559 z" />
        <path
           sodipodi:nodetypes="sssss"
           inkscape:connector-curvature="0"
           id="path190"
           style="fill:none;stroke:#000000;stroke-width:3.77952766;stroke-miterlimit:4;stroke-dasharray:none"
           d="m -56.391727,1885.6831 c 0,-4.1748 -3.384304,-7.5591 -7.559055,-7.5591 -4.174751,0 -7.559055,3.3843 -7.559055,7.5591 0,4.1747 3.384304,7.559 7.559055,7.559 4.174751,0 7.559055,-3.3843 7.559055,-7.559 z" />
        <path
           sodipodi:nodetypes="sssss"
           inkscape:connector-curvature="0"
           id="path192"
           style="fill:none;stroke:#000000;stroke-width:3.77952766;stroke-miterlimit:4;stroke-dasharray:none"
           d="m 26.456693,1920 c 0,-4.1748 -3.384304,-7.5591 -7.559055,-7.5591 -4.174751,0 -7.559055,3.3843 -7.559055,7.5591 0,4.1748 3.384304,7.5591 7.559055,7.5591 4.174751,0 7.559055,-3.3843 7.559055,-7.5591 z" />
        <path
           sodipodi:nodetypes="sssss"
           inkscape:connector-curvature="0"
           id="path194"
           style="fill:none;stroke:#000000;stroke-width:3.77952766;stroke-miterlimit:4;stroke-dasharray:none"
           d="m 134.70336,1757.9974 c 0,-4.1748 -3.3843,-7.559 -7.55905,-7.559 -4.17475,0 -7.55906,3.3842 -7.55906,7.559 0,4.1748 3.38431,7.5591 7.55906,7.5591 4.17475,0 7.55905,-3.3843 7.55905,-7.5591 z" />
        <path
           sodipodi:nodetypes="sssss"
           inkscape:connector-curvature="0"
           id="path196"
           style="fill:none;stroke:#000000;stroke-width:3.77952766;stroke-miterlimit:4;stroke-dasharray:none"
           d="m 71.293931,1694.588 c 0,-4.1748 -3.384304,-7.5591 -7.559055,-7.5591 -4.174751,0 -7.559055,3.3843 -7.559055,7.5591 0,4.1747 3.384304,7.559 7.559055,7.559 4.174751,0 7.559055,-3.3843 7.559055,-7.559 z" />
        <path
           sodipodi:nodetypes="sssss"
           inkscape:connector-curvature="0"
           id="path198"
           style="fill:none;stroke:#000000;stroke-width:3.77952766;stroke-miterlimit:4;stroke-dasharray:none"
           d="m -18.380549,1694.588 c 0,-4.1748 -3.384305,-7.5591 -7.559056,-7.5591 -4.17475,0 -7.559055,3.3843 -7.559055,7.5591 0,4.1747 3.384305,7.559 7.559055,7.559 4.174751,0 7.559056,-3.3843 7.559056,-7.559 z" />
        <path
           sodipodi:nodetypes="sssss"
           inkscape:connector-curvature="0"
           id="path200"
           style="fill:none;stroke:#000000;stroke-width:3.77952766;stroke-miterlimit:4;stroke-dasharray:none"
           d="m -81.789982,1757.9974 c 0,-4.1748 -3.384304,-7.559 -7.559055,-7.559 -4.174751,0 -7.559055,3.3842 -7.559055,7.559 0,4.1748 3.384304,7.5591 7.559055,7.5591 4.174751,0 7.559055,-3.3843 7.559055,-7.5591 z" />
        <path
           sodipodi:nodetypes="sssss"
           inkscape:connector-curvature="0"
           id="path202"
           style="fill:none;stroke:#000000;stroke-width:3.77952766;stroke-miterlimit:4;stroke-dasharray:none"
           d="m -17.007874,1878.1175 c 0,-4.1748 -3.384304,-7.5591 -7.559055,-7.5591 -4.174751,0 -7.559055,3.3843 -7.559055,7.5591 0,4.1747 3.384304,7.559 7.559055,7.559 4.174751,0 7.559055,-3.3843 7.559055,-7.559 z" />
        <path
           sodipodi:nodetypes="sssss"
           inkscape:connector-curvature="0"
           id="path204"
           style="fill:none;stroke:#000000;stroke-width:3.77952766;stroke-miterlimit:4;stroke-dasharray:none"
           d="m 69.92126,1878.1175 c 0,-4.1748 -3.384304,-7.5591 -7.559055,-7.5591 -4.174751,0 -7.559055,3.3843 -7.559055,7.5591 0,4.1747 3.384304,7.559 7.559055,7.559 4.174751,0 7.559055,-3.3843 7.559055,-7.559 z" />
        <path
           sodipodi:nodetypes="sssss"
           inkscape:connector-curvature="0"
           id="path206"
           style="fill:none;stroke:#000000;stroke-width:3.77952766;stroke-miterlimit:4;stroke-dasharray:none"
           d="m 113.38583,1802.8346 c 0,-4.1747 -3.38431,-7.559 -7.55906,-7.559 -4.17475,0 -7.559053,3.3843 -7.559053,7.559 0,4.1748 3.384303,7.5591 7.559053,7.5591 4.17475,0 7.55906,-3.3843 7.55906,-7.5591 z" />
        <path
           sodipodi:nodetypes="sssss"
           inkscape:connector-curvature="0"
           id="path208"
           style="fill:none;stroke:#000000;stroke-width:3.77952766;stroke-miterlimit:4;stroke-dasharray:none"
           d="m 69.92126,1727.5518 c 0,-4.1747 -3.384304,-7.559 -7.559055,-7.559 -4.174751,0 -7.559055,3.3843 -7.559055,7.559 0,4.1748 3.384304,7.5591 7.559055,7.5591 4.174751,0 7.559055,-3.3843 7.559055,-7.5591 z" />
        <path
           sodipodi:nodetypes="sssss"
           inkscape:connector-curvature="0"
           id="path210"
           style="fill:none;stroke:#000000;stroke-width:3.77952766;stroke-miterlimit:4;stroke-dasharray:none"
           d="m -17.007874,1727.5518 c 0,-4.1747 -3.384304,-7.559 -7.559055,-7.559 -4.174751,0 -7.559055,3.3843 -7.559055,7.559 0,4.1748 3.384304,7.5591 7.559055,7.5591 4.174751,0 7.559055,-3.3843 7.559055,-7.5591 z" />
        <path
           sodipodi:nodetypes="sssss"
           inkscape:connector-curvature="0"
           id="path212"
           style="fill:none;stroke:#000000;stroke-width:3.77952766;stroke-miterlimit:4;stroke-dasharray:none"
           d="m -120.94488,1802.8346 c 0,-4.1747 -3.38431,-7.559 -7.55906,-7.559 -4.17475,0 -7.55905,3.3843 -7.55905,7.559 0,4.1748 3.3843,7.5591 7.55905,7.5591 4.17475,0 7.55906,-3.3843 7.55906,-7.5591 z" />
        <path
           sodipodi:nodetypes="sssss"
           inkscape:connector-curvature="0"
           id="path214"
           style="fill:none;stroke:#000000;stroke-width:3.77952766;stroke-miterlimit:4;stroke-dasharray:none"
           d="m -113.73054,487.75432 c 1e-5,-4.17476 -3.3843,-7.55905 -7.55905,-7.55905 -4.17475,0 -7.55906,3.38429 -7.55905,7.55905 -1e-5,4.17475 3.3843,7.55905 7.55905,7.55905 4.17475,0 7.55906,-3.3843 7.55905,-7.55905 z" />
        <path
           sodipodi:nodetypes="sssss"
           inkscape:connector-curvature="0"
           id="path216"
           style="fill:none;stroke:#000000;stroke-width:3.77952766;stroke-miterlimit:4;stroke-dasharray:none"
           d="m -60.18378,561.4551 c 0,-4.17475 -3.384304,-7.55905 -7.559055,-7.55905 -4.174751,0 -7.559055,3.3843 -7.559055,7.55905 0,4.17476 3.384304,7.55906 7.559055,7.55906 4.174751,0 7.559055,-3.3843 7.559055,-7.55906 z" />
        <path
           sodipodi:nodetypes="sssss"
           inkscape:connector-curvature="0"
           id="path218"
           style="fill:none;stroke:#000000;stroke-width:3.77952766;stroke-miterlimit:4;stroke-dasharray:none"
           d="m 26.456693,589.6063 c 0,-4.17475 -3.384304,-7.55905 -7.559055,-7.55905 -4.174751,0 -7.559055,3.3843 -7.559055,7.55905 0,4.17475 3.384304,7.55905 7.559055,7.55905 4.174751,0 7.559055,-3.3843 7.559055,-7.55905 z" />
        <path
           sodipodi:nodetypes="sssss"
           inkscape:connector-curvature="0"
           id="path220"
           style="fill:none;stroke:#000000;stroke-width:3.77952766;stroke-miterlimit:4;stroke-dasharray:none"
           d="m 113.09717,561.4551 c 0,-4.17475 -3.38431,-7.55905 -7.55906,-7.55905 -4.17475,0 -7.559055,3.3843 -7.559055,7.55905 0,4.17476 3.384305,7.55906 7.559055,7.55906 4.17475,0 7.55906,-3.3843 7.55906,-7.55906 z" />
        <path
           sodipodi:nodetypes="sssss"
           inkscape:connector-curvature="0"
           id="path222"
           style="fill:none;stroke:#000000;stroke-width:3.77952766;stroke-miterlimit:4;stroke-dasharray:none"
           d="m 166.64392,487.75432 c 0,-4.17476 -3.3843,-7.55906 -7.55905,-7.55906 -4.17476,0 -7.55906,3.3843 -7.55906,7.55906 0,4.17475 3.3843,7.55905 7.55906,7.55905 4.17475,0 7.55905,-3.3843 7.55905,-7.55905 z" />
        <path
           sodipodi:nodetypes="sssss"
           inkscape:connector-curvature="0"
           id="path224"
           style="fill:none;stroke:#000000;stroke-width:3.77952766;stroke-miterlimit:4;stroke-dasharray:none"
           d="m 166.64392,396.65513 c 0,-4.17475 -3.3843,-7.55905 -7.55905,-7.55905 -4.17476,0 -7.55906,3.3843 -7.55906,7.55905 0,4.17476 3.3843,7.55905 7.55906,7.55905 4.17475,0 7.55905,-3.38429 7.55905,-7.55905 z" />
        <path
           sodipodi:nodetypes="sssss"
           inkscape:connector-curvature="0"
           id="path226"
           style="fill:none;stroke:#000000;stroke-width:3.77952766;stroke-miterlimit:4;stroke-dasharray:none"
           d="m 113.09717,322.95434 c 0,-4.17475 -3.38431,-7.55905 -7.55906,-7.55905 -4.17475,0 -7.559055,3.3843 -7.559055,7.55905 0,4.17476 3.384305,7.55906 7.559055,7.55906 4.17475,0 7.55906,-3.3843 7.55906,-7.55906 z" />
        <path
           sodipodi:nodetypes="sssss"
           inkscape:connector-curvature="0"
           id="path228"
           style="fill:none;stroke:#000000;stroke-width:3.77952766;stroke-miterlimit:4;stroke-dasharray:none"
           d="m 26.456693,294.80315 c 0,-4.17475 -3.384304,-7.55905 -7.559055,-7.55905 -4.174751,0 -7.559055,3.3843 -7.559055,7.55905 0,4.17475 3.384304,7.55905 7.559055,7.55905 4.174751,0 7.559055,-3.3843 7.559055,-7.55905 z" />
        <path
           sodipodi:nodetypes="sssss"
           inkscape:connector-curvature="0"
           id="path230"
           style="fill:none;stroke:#000000;stroke-width:3.77952766;stroke-miterlimit:4;stroke-dasharray:none"
           d="m -60.18378,322.95434 c 0,-4.17475 -3.384304,-7.55905 -7.559055,-7.55905 -4.174751,0 -7.559055,3.3843 -7.559055,7.55905 0,4.17476 3.384304,7.55906 7.559055,7.55906 4.174751,0 7.559055,-3.3843 7.559055,-7.55906 z" />
        <path
           sodipodi:nodetypes="sssss"
           inkscape:connector-curvature="0"
           id="path232"
           style="fill:none;stroke:#000000;stroke-width:3.77952766;stroke-miterlimit:4;stroke-dasharray:none"
           d="m -113.73054,396.65513 c 1e-5,-4.17475 -3.3843,-7.55905 -7.55905,-7.55905 -4.17475,0 -7.55906,3.3843 -7.55905,7.55905 -1e-5,4.17476 3.3843,7.55905 7.55905,7.55905 4.17475,0 7.55906,-3.38429 7.55905,-7.55905 z" />
        <path
           sodipodi:nodetypes="sssss"
           inkscape:connector-curvature="0"
           id="path234"
           style="fill:none;stroke:#000000;stroke-width:3.77952766;stroke-miterlimit:4;stroke-dasharray:none"
           d="m -56.391727,525.05314 c 0,-4.17475 -3.384304,-7.55905 -7.559055,-7.55905 -4.174751,0 -7.559055,3.3843 -7.559055,7.55905 0,4.17475 3.384304,7.55905 7.559055,7.55905 4.174751,0 7.559055,-3.3843 7.559055,-7.55905 z" />
        <path
           sodipodi:nodetypes="sssss"
           inkscape:connector-curvature="0"
           id="path236"
           style="fill:none;stroke:#000000;stroke-width:3.77952766;stroke-miterlimit:4;stroke-dasharray:none"
           d="m 26.456693,559.37008 c 0,-4.17475 -3.384304,-7.55905 -7.559055,-7.55905 -4.174751,0 -7.559055,3.3843 -7.559055,7.55905 0,4.17475 3.384304,7.55905 7.559055,7.55905 4.174751,0 7.559055,-3.3843 7.559055,-7.55905 z" />
        <path
           sodipodi:nodetypes="sssss"
           inkscape:connector-curvature="0"
           id="path238"
           style="fill:none;stroke:#000000;stroke-width:3.77952766;stroke-miterlimit:4;stroke-dasharray:none"
           d="m 109.30511,525.05314 c 0,-4.17475 -3.38431,-7.55905 -7.55906,-7.55905 -4.174747,0 -7.559052,3.3843 -7.559052,7.55905 0,4.17475 3.384305,7.55905 7.559052,7.55905 4.17475,0 7.55906,-3.3843 7.55906,-7.55905 z" />
        <path
           sodipodi:nodetypes="sssss"
           inkscape:connector-curvature="0"
           id="path240"
           style="fill:none;stroke:#000000;stroke-width:3.77952766;stroke-miterlimit:4;stroke-dasharray:none"
           d="m 143.62205,442.20472 c 0,-4.17475 -3.38431,-7.55905 -7.55906,-7.55905 -4.17475,0 -7.55905,3.3843 -7.55905,7.55905 0,4.17476 3.3843,7.55906 7.55905,7.55906 4.17475,0 7.55906,-3.3843 7.55906,-7.55906 z" />
        <path
           sodipodi:nodetypes="sssss"
           inkscape:connector-curvature="0"
           id="path242"
           style="fill:none;stroke:#000000;stroke-width:3.77952766;stroke-miterlimit:4;stroke-dasharray:none"
           d="m 109.30511,359.35631 c 0,-4.17475 -3.38431,-7.55905 -7.55906,-7.55905 -4.174747,0 -7.559052,3.3843 -7.559052,7.55905 0,4.17475 3.384305,7.55905 7.559052,7.55905 4.17475,0 7.55906,-3.3843 7.55906,-7.55905 z" />
        <path
           sodipodi:nodetypes="sssss"
           inkscape:connector-curvature="0"
           id="path244"
           style="fill:none;stroke:#000000;stroke-width:3.77952766;stroke-miterlimit:4;stroke-dasharray:none"
           d="m 26.456693,325.03937 c 0,-4.17475 -3.384304,-7.55905 -7.559055,-7.55905 -4.174751,0 -7.559055,3.3843 -7.559055,7.55905 0,4.17475 3.384304,7.55905 7.559055,7.55905 4.174751,0 7.559055,-3.3843 7.559055,-7.55905 z" />
        <path
           sodipodi:nodetypes="sssss"
           inkscape:connector-curvature="0"
           id="path246"
           style="fill:none;stroke:#000000;stroke-width:3.77952766;stroke-miterlimit:4;stroke-dasharray:none"
           d="m -56.391727,359.35631 c 0,-4.17475 -3.384304,-7.55905 -7.559055,-7.55905 -4.174751,0 -7.559055,3.3843 -7.559055,7.55905 0,4.17475 3.384304,7.55905 7.559055,7.55905 4.174751,0 7.559055,-3.3843 7.559055,-7.55905 z" />
        <path
           sodipodi:nodetypes="sssss"
           inkscape:connector-curvature="0"
           id="path248"
           style="fill:none;stroke:#000000;stroke-width:3.77952766;stroke-miterlimit:4;stroke-dasharray:none"
           d="m -48.826148,485.66929 c 0,-4.17475 -3.384304,-7.55905 -7.559055,-7.55905 -4.174751,0 -7.559055,3.3843 -7.559055,7.55905 0,4.17475 3.384304,7.55905 7.559055,7.55905 4.174751,0 7.559055,-3.3843 7.559055,-7.55905 z" />
        <path
           sodipodi:nodetypes="sssss"
           inkscape:connector-curvature="0"
           id="path250"
           style="fill:none;stroke:#000000;stroke-width:3.77952766;stroke-miterlimit:4;stroke-dasharray:none"
           d="m 26.456693,529.13386 c 0,-4.17476 -3.384304,-7.55905 -7.559055,-7.55905 -4.174751,0 -7.559055,3.38429 -7.559055,7.55905 0,4.17475 3.384304,7.55905 7.559055,7.55905 4.174751,0 7.559055,-3.3843 7.559055,-7.55905 z" />
        <path
           sodipodi:nodetypes="sssss"
           inkscape:connector-curvature="0"
           id="path252"
           style="fill:none;stroke:#000000;stroke-width:3.77952766;stroke-miterlimit:4;stroke-dasharray:none"
           d="m 101.73953,485.66929 c 0,-4.17475 -3.384304,-7.55905 -7.559055,-7.55905 -4.174751,0 -7.559055,3.3843 -7.559055,7.55905 0,4.17475 3.384304,7.55905 7.559055,7.55905 4.174751,0 7.559055,-3.3843 7.559055,-7.55905 z" />
        <path
           sodipodi:nodetypes="sssss"
           inkscape:connector-curvature="0"
           id="path254"
           style="fill:none;stroke:#000000;stroke-width:3.77952766;stroke-miterlimit:4;stroke-dasharray:none"
           d="m 101.73953,398.74016 c 0,-4.17476 -3.384304,-7.55905 -7.559055,-7.55905 -4.174751,0 -7.559055,3.38429 -7.559055,7.55905 0,4.17475 3.384304,7.55905 7.559055,7.55905 4.174751,0 7.559055,-3.3843 7.559055,-7.55905 z" />
        <path
           sodipodi:nodetypes="sssss"
           inkscape:connector-curvature="0"
           id="path256"
           style="fill:none;stroke:#000000;stroke-width:3.77952766;stroke-miterlimit:4;stroke-dasharray:none"
           d="m 26.456693,355.27559 c 0,-4.17475 -3.384304,-7.55905 -7.559055,-7.55905 -4.174751,0 -7.559055,3.3843 -7.559055,7.55905 0,4.17475 3.384304,7.55905 7.559055,7.55905 4.174751,0 7.559055,-3.3843 7.559055,-7.55905 z" />
        <path
           sodipodi:nodetypes="sssss"
           inkscape:connector-curvature="0"
           id="path258"
           style="fill:none;stroke:#000000;stroke-width:3.77952766;stroke-miterlimit:4;stroke-dasharray:none"
           d="m -48.826148,398.74016 c 0,-4.17476 -3.384304,-7.55905 -7.559055,-7.55905 -4.174751,0 -7.559055,3.38429 -7.559055,7.55905 0,4.17475 3.384304,7.55905 7.559055,7.55905 4.174751,0 7.559055,-3.3843 7.559055,-7.55905 z" />
        <path
           sodipodi:nodetypes="sssss"
           inkscape:connector-curvature="0"
           id="path260"
           style="fill:none;stroke:#000000;stroke-width:3.77952766;stroke-miterlimit:4;stroke-dasharray:none"
           d="m -90.708661,442.20472 c 0,-4.17475 -3.384305,-7.55905 -7.559056,-7.55905 -4.174753,0 -7.559053,3.3843 -7.559053,7.55905 0,4.17476 3.3843,7.55906 7.559053,7.55906 4.174751,0 7.559056,-3.3843 7.559056,-7.55906 z" />
        <path
           sodipodi:nodetypes="ccccc"
           inkscape:connector-curvature="0"
           id="path262"
           style="fill:none;stroke:#000000;stroke-width:3.77952766;stroke-miterlimit:4;stroke-dasharray:none"
           d="M -154.90074,177.63779 V 2067.4016 H 185.25674 V 177.63779 Z" />
      </g>
    </g>
  </g>
  <g
     inkscape:groupmode="layer"
     inkscape:label="MODELSKETCH_VISIBLE"
     id="g272"
     transform="translate(929.70391,-952.44096)" />
  <g
     inkscape:groupmode="layer"
     inkscape:label="MODELSKETCH_CONSTRUCTION"
     id="g274"
     transform="translate(929.70391,-952.44096)" />
  <g
     inkscape:groupmode="layer"
     inkscape:label="TANGENT_LINES"
     id="g276"
     transform="translate(929.70391,-952.44096)" />
  <g
     inkscape:groupmode="layer"
     inkscape:label="TANGENT_HIDDEN"
     id="g278"
     transform="translate(929.70391,-952.44096)" />
  <g
     inkscape:groupmode="layer"
     inkscape:label="INVISIBLE_LINES"
     id="g280"
     transform="translate(929.70391,-952.44096)" />
  <g
     inkscape:groupmode="layer"
     inkscape:label="VIEW_HATCHES"
     id="g282"
     transform="translate(929.70391,-952.44096)" />
  <g
     inkscape:groupmode="layer"
     inkscape:label="SECTION_JOG_LINES"
     id="g284"
     transform="translate(929.70391,-952.44096)" />
</svg>
