<?xml version="1.0" encoding="UTF-8" standalone="no"?>
<svg
   xmlns:dc="http://purl.org/dc/elements/1.1/"
   xmlns:cc="http://creativecommons.org/ns#"
   xmlns:rdf="http://www.w3.org/1999/02/22-rdf-syntax-ns#"
   xmlns:svg="http://www.w3.org/2000/svg"
   xmlns="http://www.w3.org/2000/svg"
   xmlns:sodipodi="http://sodipodi.sourceforge.net/DTD/sodipodi-0.dtd"
   xmlns:inkscape="http://www.inkscape.org/namespaces/inkscape"
   width="1893.5433"
   height="665.19678"
   version="1.1"
   id="svg136"
   sodipodi:docname="c_panel.svg"
   inkscape:version="0.92.3 (2405546, 2018-03-11)">
  <metadata
     id="metadata140">
    <rdf:RDF>
      <cc:Work
         rdf:about="">
        <dc:format>image/svg+xml</dc:format>
        <dc:type
           rdf:resource="http://purl.org/dc/dcmitype/StillImage" />
        <dc:title></dc:title>
      </cc:Work>
    </rdf:RDF>
  </metadata>
  <sodipodi:namedview
     pagecolor="#ffffff"
     bordercolor="#666666"
     borderopacity="1"
     objecttolerance="10"
     gridtolerance="10"
     guidetolerance="10"
     inkscape:pageopacity="0"
     inkscape:pageshadow="2"
     inkscape:window-width="1373"
     inkscape:window-height="845"
     id="namedview138"
     showgrid="false"
     fit-margin-top="0"
     fit-margin-left="0"
     fit-margin-right="0"
     fit-margin-bottom="0"
     inkscape:zoom="0.21024131"
     inkscape:cx="1343.6221"
     inkscape:cy="893.85824"
     inkscape:window-x="67"
     inkscape:window-y="27"
     inkscape:window-maximized="1"
     inkscape:current-layer="g134" />
  <desc
     id="desc2">/home/henry/Documents/fablab/bartop/Bartop-project/dxf_from_onshape/c_panel.dxf - scale = 1.000000, origin = (0.000000, 0.000000), method = manual</desc>
  <defs
     id="defs16">
    <marker
       id="DistanceX"
       orient="auto"
       refX="0"
       refY="0"
       style="overflow:visible">
      <path
         d="M 3,-3 -3,3 M 0,-5 V 5"
         style="stroke:#000000;stroke-width:0.5"
         id="path4"
         inkscape:connector-curvature="0" />
    </marker>
    <pattern
       height="8"
       id="Hatch"
       patternUnits="userSpaceOnUse"
       width="8"
       x="0"
       y="0">
      <path
         d="M8 4 l-4,4"
         linecap="square"
         stroke="#000000"
         stroke-width="0.25"
         id="path7" />
      <path
         d="M6 2 l-4,4"
         linecap="square"
         stroke="#000000"
         stroke-width="0.25"
         id="path9" />
      <path
         d="M4 0 l-4,4"
         linecap="square"
         stroke="#000000"
         stroke-width="0.25"
         id="path11" />
    </pattern>
    <symbol
       id="*MODEL_SPACE" />
    <symbol
       id="*PAPER_SPACE" />
  </defs>
  <g
     inkscape:groupmode="layer"
     inkscape:label="0"
     id="g18"
     transform="translate(946.77165,-789.92126)" />
  <g
     inkscape:groupmode="layer"
     inkscape:label="SECTION_CUTTING_LINE"
     id="g20"
     transform="translate(946.77165,-789.92126)" />
  <g
     inkscape:groupmode="layer"
     inkscape:label="DETAIL_VIEW_BORDER"
     id="g22"
     transform="translate(946.77165,-789.92126)" />
  <g
     inkscape:groupmode="layer"
     inkscape:label="DETAIL_VIEW_PARENT_BORDER"
     id="g24"
     transform="translate(946.77165,-789.92126)" />
  <g
     inkscape:groupmode="layer"
     inkscape:label="TEXT"
     id="g26"
     transform="translate(946.77165,-789.92126)" />
  <g
     inkscape:groupmode="layer"
     inkscape:label="SKETCHED_GEOMETRY"
     id="g28"
     transform="translate(946.77165,-789.92126)" />
  <g
     inkscape:groupmode="layer"
     inkscape:label="CENTERLINES"
     id="g30"
     transform="translate(946.77165,-789.92126)" />
  <g
     inkscape:groupmode="layer"
     inkscape:label="CENTERMARKS"
     id="g32"
     transform="translate(946.77165,-789.92126)" />
  <g
     inkscape:groupmode="layer"
     inkscape:label="TABLES"
     id="g34"
     transform="translate(946.77165,-789.92126)" />
  <g
     inkscape:groupmode="layer"
     inkscape:label="IMAGES"
     id="g36"
     transform="translate(946.77165,-789.92126)" />
  <g
     inkscape:groupmode="layer"
     inkscape:label="ANNOTATION_LINES"
     id="g38"
     transform="translate(946.77165,-789.92126)" />
  <g
     inkscape:groupmode="layer"
     inkscape:label="ANNOTATION_TEXT"
     id="g40"
     transform="translate(946.77165,-789.92126)" />
  <g
     inkscape:groupmode="layer"
     inkscape:label="SIDE_THREAD_SYMBOLS"
     id="g42"
     transform="translate(946.77165,-789.92126)" />
  <g
     inkscape:groupmode="layer"
     inkscape:label="SIDE_THREAD_SYMBOLS_HIDDEN"
     id="g44"
     transform="translate(946.77165,-789.92126)" />
  <g
     inkscape:groupmode="layer"
     inkscape:label="SURFACE_THREAD_SYMBOLS"
     id="g46"
     transform="translate(946.77165,-789.92126)" />
  <g
     inkscape:groupmode="layer"
     inkscape:label="SURFACE_THREAD_SYMBOLS_ON_"
     id="g48"
     transform="translate(946.77165,-789.92126)" />
  <g
     inkscape:groupmode="layer"
     inkscape:label="SURFACE_THREAD_SYMBOLS_HID"
     id="g50"
     transform="translate(946.77165,-789.92126)" />
  <g
     inkscape:groupmode="layer"
     inkscape:label="BLIND_THREAD_SYMBOLS"
     id="g52"
     transform="translate(946.77165,-789.92126)" />
  <g
     inkscape:groupmode="layer"
     inkscape:label="BLIND_THREAD_SYMBOLS_HIDDE"
     id="g54"
     transform="translate(946.77165,-789.92126)" />
  <g
     inkscape:groupmode="layer"
     inkscape:label="EXPLODE_LINES"
     id="g56"
     transform="translate(946.77165,-789.92126)" />
  <g
     inkscape:groupmode="layer"
     inkscape:label="BREAK_LINES"
     id="g58"
     transform="translate(946.77165,-789.92126)" />
  <g
     inkscape:groupmode="layer"
     inkscape:label="SHEETMETAL_BEND_LINES_UP"
     id="g60"
     transform="translate(946.77165,-789.92126)" />
  <g
     inkscape:groupmode="layer"
     inkscape:label="SHEETMETAL_BEND_LINES_DOWN"
     id="g62"
     transform="translate(946.77165,-789.92126)" />
  <g
     inkscape:groupmode="layer"
     inkscape:label="SHEETMETAL_BEND_TANGENT_LI"
     id="g64"
     transform="translate(946.77165,-789.92126)" />
  <g
     inkscape:groupmode="layer"
     inkscape:label="SHEETMETAL_CUT_LINES"
     id="g66"
     transform="translate(946.77165,-789.92126)" />
  <g
     inkscape:groupmode="layer"
     inkscape:label="HIDDEN"
     id="g68"
     transform="translate(946.77165,-789.92126)" />
  <g
     inkscape:groupmode="layer"
     inkscape:label="VISIBLE"
     id="g120"
     transform="translate(946.77165,-789.92126)">
    <path
       d="m -755.90551,912.75591 c 0.004,-25.05116 -20.3032,-45.36105 -45.35433,-45.36105 -25.05114,0 -45.35805,20.30989 -45.35433,45.36105 -0.004,25.05115 20.30319,45.36104 45.35433,45.36104 25.05113,0 45.35805,-20.30989 45.35433,-45.36104 z"
       style="fill:none;stroke:#000000;stroke-width:3.77952766;stroke-miterlimit:4;stroke-dasharray:none"
       id="path70"
       inkscape:connector-curvature="0"
       sodipodi:nodetypes="cscsc" />
    <path
       d="m 846.61417,912.75591 c 0.004,-25.05116 -20.30319,-45.36105 -45.35433,-45.36105 -25.05113,0 -45.35805,20.30989 -45.35433,45.36105 -0.004,25.05115 20.3032,45.36104 45.35433,45.36104 25.05114,0 45.35805,-20.30989 45.35433,-45.36104 z"
       style="fill:none;stroke:#000000;stroke-width:3.77952766;stroke-miterlimit:4;stroke-dasharray:none"
       id="path72"
       inkscape:connector-curvature="0"
       sodipodi:nodetypes="cscsc" />
    <path
       d="m -291.02362,1058.2677 c 0,-31.3106 -25.38228,-56.6929 -56.69292,-56.6929 -31.31063,0 -56.69291,25.3823 -56.69291,56.6929 0,31.3107 25.38228,56.6929 56.69291,56.6929 31.31064,0 56.69292,-25.3822 56.69292,-56.6929 z"
       style="fill:none;stroke:#000000;stroke-width:3.77952766;stroke-miterlimit:4;stroke-dasharray:none"
       id="path74"
       inkscape:connector-curvature="0"
       sodipodi:nodetypes="sssss" />
    <path
       d="m -291.02362,1196.2205 c 0,-31.3107 -25.38228,-56.6929 -56.69292,-56.6929 -31.31063,0 -56.69291,25.3822 -56.69291,56.6929 0,31.3106 25.38228,56.6929 56.69291,56.6929 31.31064,0 56.69292,-25.3823 56.69292,-56.6929 z"
       style="fill:none;stroke:#000000;stroke-width:3.77952766;stroke-miterlimit:4;stroke-dasharray:none"
       id="path76"
       inkscape:connector-curvature="0"
       sodipodi:nodetypes="sssss" />
    <path
       d="m 476.22047,1126.2992 c 0,-31.3106 -25.38228,-56.6929 -56.69291,-56.6929 -31.31063,0 -56.69291,25.3823 -56.69291,56.6929 0,31.3107 25.38228,56.6929 56.69291,56.6929 31.31063,0 56.69291,-25.3822 56.69291,-56.6929 z"
       style="fill:none;stroke:#000000;stroke-width:3.77952766;stroke-miterlimit:4;stroke-dasharray:none"
       id="path78"
       inkscape:connector-curvature="0"
       sodipodi:nodetypes="sssss" />
    <path
       d="m 733.22835,1092.2835 c 0,-31.3107 -25.38229,-56.6929 -56.69292,-56.6929 -31.31063,0 -56.69291,25.3822 -56.69291,56.6929 0,31.3106 25.38228,56.6929 56.69291,56.6929 31.31063,0 56.69292,-25.3823 56.69292,-56.6929 z"
       style="fill:none;stroke:#000000;stroke-width:3.77952766;stroke-miterlimit:4;stroke-dasharray:none"
       id="path80"
       inkscape:connector-curvature="0"
       sodipodi:nodetypes="sssss" />
    <path
       d="m 597.16535,1196.2205 c 0,-31.3107 -25.38228,-56.6929 -56.69291,-56.6929 -31.31063,0 -56.69291,25.3822 -56.69291,56.6929 0,31.3106 25.38228,56.6929 56.69291,56.6929 31.31063,0 56.69291,-25.3823 56.69291,-56.6929 z"
       style="fill:none;stroke:#000000;stroke-width:3.77952766;stroke-miterlimit:4;stroke-dasharray:none"
       id="path82"
       inkscape:connector-curvature="0"
       sodipodi:nodetypes="sssss" />
    <path
       d="m -902.36221,1018.5827 c 0,-4.6966 -3.80734,-8.504 -8.50393,-8.504 -4.6966,0 -8.50394,3.8074 -8.50394,8.504 0,4.6966 3.80734,8.5039 8.50394,8.5039 4.69659,0 8.50394,-3.8073 8.50393,-8.5039 z"
       style="fill:none;stroke:#000000;stroke-width:3.77952766;stroke-miterlimit:4;stroke-dasharray:none"
       id="path84"
       inkscape:connector-curvature="0"
       sodipodi:nodetypes="sssss" />
    <path
       d="m 919.37008,1018.5827 c 0,-4.6966 -3.80734,-8.504 -8.50394,-8.504 -4.69659,0 -8.50394,3.8074 -8.50393,8.504 0,4.6966 3.80734,8.5039 8.50393,8.5039 4.6966,0 8.50394,-3.8073 8.50394,-8.5039 z"
       style="fill:none;stroke:#000000;stroke-width:3.77952766;stroke-miterlimit:4;stroke-dasharray:none"
       id="path86"
       inkscape:connector-curvature="0"
       sodipodi:nodetypes="sssss" />
    <path
       d="m -411.9685,1264.252 c 0,-31.3107 -25.38229,-56.6929 -56.69292,-56.6929 -31.31063,0 -56.69291,25.3822 -56.69291,56.6929 0,31.3106 25.38228,56.6929 56.69291,56.6929 31.31063,0 56.69292,-25.3823 56.69292,-56.6929 z"
       style="fill:none;stroke:#000000;stroke-width:3.77952766;stroke-miterlimit:4;stroke-dasharray:none"
       id="path88"
       inkscape:connector-curvature="0"
       sodipodi:nodetypes="sssss" />
    <path
       d="m 253.22835,1196.2205 c 0.004,-25.0512 -20.3032,-45.3611 -45.35433,-45.3611 -25.05114,0 -45.35805,20.3099 -45.35434,45.3611 -0.004,25.0511 20.3032,45.361 45.35434,45.361 25.05113,0 45.35805,-20.3099 45.35433,-45.361 z"
       style="fill:none;stroke:#000000;stroke-width:3.77952766;stroke-miterlimit:4;stroke-dasharray:none"
       id="path90"
       inkscape:connector-curvature="0"
       sodipodi:nodetypes="cscsc" />
    <path
       d="m -634.96063,1196.2205 c 0.004,-25.0512 -20.3032,-45.3611 -45.35433,-45.3611 -25.05114,0 -45.35805,20.3099 -45.35433,45.3611 -0.004,25.0511 20.30319,45.361 45.35433,45.361 25.05113,0 45.35805,-20.3099 45.35433,-45.361 z"
       style="fill:none;stroke:#000000;stroke-width:3.77952766;stroke-miterlimit:4;stroke-dasharray:none"
       id="path92"
       inkscape:connector-curvature="0"
       sodipodi:nodetypes="cscsc" />
    <path
       d="m 919.37008,1339.8425 c 0,-4.6966 -3.80734,-8.5039 -8.50394,-8.5039 -4.69659,0 -8.50394,3.8073 -8.50393,8.5039 0,4.6966 3.80734,8.504 8.50393,8.504 4.6966,0 8.50394,-3.8074 8.50394,-8.504 z"
       style="fill:none;stroke:#000000;stroke-width:3.77952766;stroke-miterlimit:4;stroke-dasharray:none"
       id="path94"
       inkscape:connector-curvature="0"
       sodipodi:nodetypes="sssss" />
    <path
       d="m -902.36221,1339.8425 c 0,-4.6966 -3.80734,-8.5039 -8.50393,-8.5039 -4.6966,0 -8.50394,3.8073 -8.50394,8.5039 0,4.6966 3.80734,8.504 8.50394,8.504 4.69659,0 8.50394,-3.8074 8.50393,-8.504 z"
       style="fill:none;stroke:#000000;stroke-width:3.77952766;stroke-miterlimit:4;stroke-dasharray:none"
       id="path96"
       inkscape:connector-curvature="0"
       sodipodi:nodetypes="sssss" />
    <path
       d="m 733.22835,1230.2362 c 0,-31.3106 -25.38229,-56.6929 -56.69292,-56.6929 -31.31063,0 -56.69291,25.3823 -56.69291,56.6929 0,31.3107 25.38228,56.6929 56.69291,56.6929 31.31063,0 56.69292,-25.3822 56.69292,-56.6929 z"
       style="fill:none;stroke:#000000;stroke-width:3.77952766;stroke-miterlimit:4;stroke-dasharray:none"
       id="path98"
       inkscape:connector-curvature="0"
       sodipodi:nodetypes="sssss" />
    <path
       d="m 476.22047,1264.252 c 0,-31.3107 -25.38228,-56.6929 -56.69291,-56.6929 -31.31063,0 -56.69291,25.3822 -56.69291,56.6929 0,31.3106 25.38228,56.6929 56.69291,56.6929 31.31063,0 56.69291,-25.3823 56.69291,-56.6929 z"
       style="fill:none;stroke:#000000;stroke-width:3.77952766;stroke-miterlimit:4;stroke-dasharray:none"
       id="path100"
       inkscape:connector-curvature="0"
       sodipodi:nodetypes="sssss" />
    <path
       d="m 597.16535,1058.2677 c 0,-31.3106 -25.38228,-56.6929 -56.69291,-56.6929 -31.31063,0 -56.69291,25.3823 -56.69291,56.6929 0,31.3107 25.38228,56.6929 56.69291,56.6929 31.31063,0 56.69291,-25.3822 56.69291,-56.6929 z"
       style="fill:none;stroke:#000000;stroke-width:3.77952766;stroke-miterlimit:4;stroke-dasharray:none"
       id="path102"
       inkscape:connector-curvature="0"
       sodipodi:nodetypes="sssss" />
    <path
       d="m -154.96063,1230.2362 c 0,-31.3106 -25.38228,-56.6929 -56.69291,-56.6929 -31.31063,0 -56.69292,25.3823 -56.69292,56.6929 0,31.3107 25.38229,56.6929 56.69292,56.6929 31.31063,0 56.69291,-25.3822 56.69291,-56.6929 z"
       style="fill:none;stroke:#000000;stroke-width:3.77952766;stroke-miterlimit:4;stroke-dasharray:none"
       id="path104"
       inkscape:connector-curvature="0"
       sodipodi:nodetypes="sssss" />
    <path
       d="m -154.96063,1092.2835 c 0,-31.3107 -25.38228,-56.6929 -56.69291,-56.6929 -31.31063,0 -56.69292,25.3822 -56.69292,56.6929 0,31.3106 25.38229,56.6929 56.69292,56.6929 31.31063,0 56.69291,-25.3823 56.69291,-56.6929 z"
       style="fill:none;stroke:#000000;stroke-width:3.77952766;stroke-miterlimit:4;stroke-dasharray:none"
       id="path106"
       inkscape:connector-curvature="0"
       sodipodi:nodetypes="sssss" />
    <path
       d="m -411.9685,1126.2992 c 0,-31.3106 -25.38229,-56.6929 -56.69292,-56.6929 -31.31063,0 -56.69291,25.3823 -56.69291,56.6929 0,31.3107 25.38228,56.6929 56.69291,56.6929 31.31063,0 56.69292,-25.3822 56.69292,-56.6929 z"
       style="fill:none;stroke:#000000;stroke-width:3.77952766;stroke-miterlimit:4;stroke-dasharray:none"
       id="path108"
       inkscape:connector-curvature="0"
       sodipodi:nodetypes="sssss" />
    <path
       d="m 45.354331,912.75591 c 0,-25.04853 -20.305826,-45.35432 -45.354331,-45.35432 -25.048505,0 -45.354331,20.30579 -45.354331,45.35432 0,25.04852 20.305826,45.35431 45.354331,45.35431 25.048505,0 45.354331,-20.30579 45.354331,-45.35431 z"
       style="fill:none;stroke:#000000;stroke-width:3.77952766;stroke-miterlimit:4;stroke-dasharray:none"
       id="path110"
       inkscape:connector-curvature="0"
       sodipodi:nodetypes="sssss" />
    <path
       d="M -944.88189,1453.2283 V 791.81102 H 944.88189 v 661.41728 z"
       style="fill:none;stroke:#000000;stroke-width:3.77952766;stroke-miterlimit:4;stroke-dasharray:none"
       id="path116"
       inkscape:connector-curvature="0"
       sodipodi:nodetypes="ccccc" />
  </g>
  <g
     inkscape:groupmode="layer"
     inkscape:label="MODELSKETCH_VISIBLE"
     id="g122"
     transform="translate(946.77165,-789.92126)" />
  <g
     inkscape:groupmode="layer"
     inkscape:label="MODELSKETCH_CONSTRUCTION"
     id="g124"
     transform="translate(946.77165,-789.92126)" />
  <g
     inkscape:groupmode="layer"
     inkscape:label="TANGENT_LINES"
     id="g126"
     transform="translate(946.77165,-789.92126)" />
  <g
     inkscape:groupmode="layer"
     inkscape:label="TANGENT_HIDDEN"
     id="g128"
     transform="translate(946.77165,-789.92126)" />
  <g
     inkscape:groupmode="layer"
     inkscape:label="INVISIBLE_LINES"
     id="g130"
     transform="translate(946.77165,-789.92126)" />
  <g
     inkscape:groupmode="layer"
     inkscape:label="VIEW_HATCHES"
     id="g132"
     transform="translate(946.77165,-789.92126)" />
  <g
     inkscape:groupmode="layer"
     inkscape:label="SECTION_JOG_LINES"
     id="g134"
     transform="translate(946.77165,-789.92126)" />
</svg>
