  0
SECTION
  2
HEADER
  9
$ACADVER
  1
AC1015
  9
$ACADMAINTVER
 70
     6
  9
$DWGCODEPAGE
  3
ANSI_1252
  9
$INSBASE
 10
0.0
 20
0.0
 30
0.0
  9
$EXTMIN
 10
0.0
 20
0.0
 30
0.0
  9
$EXTMAX
 10
540.0
 20
140.0
 30
0.0
  9
$LIMMIN
 10
0.0
 20
0.0
  9
$LIMMAX
 10
540.0
 20
140.0
  9
$ORTHOMODE
 70
     0
  9
$REGENMODE
 70
     1
  9
$FILLMODE
 70
     1
  9
$QTEXTMODE
 70
     0
  9
$MIRRTEXT
 70
     1
  9
$LTSCALE
 40
1.0
  9
$ATTMODE
 70
     1
  9
$TEXTSIZE
 40
3.5
  9
$TRACEWID
 40
1.0
  9
$TEXTSTYLE
  7
Standard
  9
$CLAYER
  8
0
  9
$CELTYPE
  6
ByLayer
  9
$CECOLOR
 62
   256
  9
$CELTSCALE
 40
1.0
  9
$DISPSILH
 70
     0
  9
$DIMSCALE
 40
1.0
  9
$DIMASZ
 40
3.302
  9
$DIMEXO
 40
1.0
  9
$DIMDLI
 40
3.75
  9
$DIMRND
 40
0.0
  9
$DIMDLE
 40
0.0
  9
$DIMEXE
 40
1.0
  9
$DIMTP
 40
0.0
  9
$DIMTM
 40
0.0
  9
$DIMTXT
 40
3.5
  9
$DIMCEN
 40
2.5
  9
$DIMTSZ
 40
0.0
  9
$DIMTOL
 70
     0
  9
$DIMLIM
 70
     0
  9
$DIMTIH
 70
     1
  9
$DIMTOH
 70
     1
  9
$DIMSE1
 70
     0
  9
$DIMSE2
 70
     0
  9
$DIMTAD
 70
     1
  9
$DIMZIN
 70
     0
  9
$DIMBLK
  1

  9
$DIMASO
 70
     1
  9
$DIMSHO
 70
     1
  9
$DIMPOST
  1

  9
$DIMAPOST
  1

  9
$DIMALT
 70
     0
  9
$DIMALTD
 70
     3
  9
$DIMALTF
 40
0.0393700787
  9
$DIMLFAC
 40
1.0
  9
$DIMTOFL
 70
     1
  9
$DIMTVP
 40
0.0
  9
$DIMTIX
 70
     0
  9
$DIMSOXD
 70
     0
  9
$DIMSAH
 70
     0
  9
$DIMBLK1
  1

  9
$DIMBLK2
  1

  9
$DIMSTYLE
  2
ISO-25
  9
$DIMCLRD
 70
     0
  9
$DIMCLRE
 70
     0
  9
$DIMCLRT
 70
     0
  9
$DIMTFAC
 40
1.0
  9
$DIMGAP
 40
1.524
  9
$DIMJUST
 70
     0
  9
$DIMSD1
 70
     0
  9
$DIMSD2
 70
     0
  9
$DIMTOLJ
 70
     0
  9
$DIMTZIN
 70
     0
  9
$DIMALTZ
 70
     0
  9
$DIMALTTZ
 70
     0
  9
$DIMUPT
 70
     0
  9
$DIMDEC
 70
     3
  9
$DIMTDEC
 70
     3
  9
$DIMALTU
 70
     2
  9
$DIMALTTD
 70
     3
  9
$DIMTXSTY
  7
Standard
  9
$DIMAUNIT
 70
     0
  9
$DIMADEC
 70
     2
  9
$DIMALTRND
 40
0.0
  9
$DIMAZIN
 70
     0
  9
$DIMDSEP
 70
    44
  9
$DIMATFIT
 70
     3
  9
$DIMFRAC
 70
     0
  9
$DIMLDRBLK
  1

  9
$DIMLUNIT
 70
     2
  9
$DIMLWD
 70
    -2
  9
$DIMLWE
 70
    -2
  9
$DIMTMOVE
 70
     0
  9
$LUNITS
 70
     2
  9
$LUPREC
 70
     2
  9
$SKETCHINC
 40
1.0
  9
$FILLETRAD
 40
10.0
  9
$AUNITS
 70
     0
  9
$AUPREC
 70
     2
  9
$MENU
  1
.
  9
$ELEVATION
 40
0.0
  9
$PELEVATION
 40
0.0
  9
$THICKNESS
 40
0.0
  9
$LIMCHECK
 70
     0
  9
$CHAMFERA
 40
10.0
  9
$CHAMFERB
 40
10.0
  9
$CHAMFERC
 40
20.0
  9
$CHAMFERD
 40
0.0
  9
$SKPOLY
 70
     0
  9
$TDCREATE
 40
2457169.948255556
  9
$TDUCREATE
 40
2457169.864922222
  9
$TDUPDATE
 40
2457169.948255567
  9
$TDUUPDATE
 40
2457169.864922234
  9
$TDINDWG
 40
0.0000000116
  9
$TDUSRTIMER
 40
0.0000000116
  9
$USRTIMER
 70
     1
  9
$ANGBASE
 50
0.0
  9
$ANGDIR
 70
     0
  9
$PDMODE
 70
     0
  9
$PDSIZE
 40
-1.0
  9
$PLINEWID
 40
0.0
  9
$SPLFRAME
 70
     0
  9
$SPLINETYPE
 70
     6
  9
$SPLINESEGS
 70
     8
  9
$HANDSEED
  5
177
  9
$SURFTAB1
 70
     6
  9
$SURFTAB2
 70
     6
  9
$SURFTYPE
 70
     6
  9
$SURFU
 70
     6
  9
$SURFV
 70
     6
  9
$UCSBASE
  2

  9
$UCSNAME
  2

  9
$UCSORG
 10
0.0
 20
0.0
 30
0.0
  9
$UCSXDIR
 10
1.0
 20
0.0
 30
0.0
  9
$UCSYDIR
 10
0.0
 20
1.0
 30
0.0
  9
$UCSORTHOREF
  2

  9
$UCSORTHOVIEW
 70
     0
  9
$UCSORGTOP
 10
0.0
 20
0.0
 30
0.0
  9
$UCSORGBOTTOM
 10
0.0
 20
0.0
 30
0.0
  9
$UCSORGLEFT
 10
0.0
 20
0.0
 30
0.0
  9
$UCSORGRIGHT
 10
0.0
 20
0.0
 30
0.0
  9
$UCSORGFRONT
 10
0.0
 20
0.0
 30
0.0
  9
$UCSORGBACK
 10
0.0
 20
0.0
 30
0.0
  9
$PUCSBASE
  2

  9
$PUCSNAME
  2

  9
$PUCSORG
 10
0.0
 20
0.0
 30
0.0
  9
$PUCSXDIR
 10
1.0
 20
0.0
 30
0.0
  9
$PUCSYDIR
 10
0.0
 20
1.0
 30
0.0
  9
$PUCSORTHOREF
  2

  9
$PUCSORTHOVIEW
 70
     0
  9
$PUCSORGTOP
 10
0.0
 20
0.0
 30
0.0
  9
$PUCSORGBOTTOM
 10
0.0
 20
0.0
 30
0.0
  9
$PUCSORGLEFT
 10
0.0
 20
0.0
 30
0.0
  9
$PUCSORGRIGHT
 10
0.0
 20
0.0
 30
0.0
  9
$PUCSORGFRONT
 10
0.0
 20
0.0
 30
0.0
  9
$PUCSORGBACK
 10
0.0
 20
0.0
 30
0.0
  9
$USERI1
 70
     0
  9
$USERI2
 70
     0
  9
$USERI3
 70
     0
  9
$USERI4
 70
     0
  9
$USERI5
 70
     0
  9
$USERR1
 40
0.0
  9
$USERR2
 40
0.0
  9
$USERR3
 40
0.0
  9
$USERR4
 40
0.0
  9
$USERR5
 40
0.0
  9
$WORLDVIEW
 70
     1
  9
$SHADEDGE
 70
     3
  9
$SHADEDIF
 70
    70
  9
$TILEMODE
 70
     1
  9
$MAXACTVP
 70
    64
  9
$PINSBASE
 10
0.0
 20
0.0
 30
0.0
  9
$PLIMCHECK
 70
     0
  9
$PEXTMIN
 10
1.0000000000E+20
 20
1.0000000000E+20
 30
1.0000000000E+20
  9
$PEXTMAX
 10
-1.0000000000E+20
 20
-1.0000000000E+20
 30
-1.0000000000E+20
  9
$PLIMMIN
 10
0.0
 20
0.0
  9
$PLIMMAX
 10
420.0
 20
297.0
  9
$UNITMODE
 70
     0
  9
$VISRETAIN
 70
     1
  9
$PLINEGEN
 70
     0
  9
$PSLTSCALE
 70
     1
  9
$TREEDEPTH
 70
  3020
  9
$CMLSTYLE
  2
Standard
  9
$CMLJUST
 70
     0
  9
$CMLSCALE
 40
20.0
  9
$PROXYGRAPHICS
 70
     1
  9
$MEASUREMENT
 70
     1
  9
$CELWEIGHT
370
    -1
  9
$ENDCAPS
280
     0
  9
$JOINSTYLE
280
     0
  9
$LWDISPLAY
290
     1
  9
$INSUNITS
 70
     4
  9
$HYPERLINKBASE
  1

  9
$STYLESHEET
  1

  9
$XEDIT
290
     1
  9
$CEPSNTYPE
380
     0
  9
$PSTYLEMODE
290
     1
  9
$FINGERPRINTGUID
  2
{D12544AD-4ED9-41E2-B8E8-80E7EB50B38E}
  9
$VERSIONGUID
  2
{FAEB1C32-E019-11D5-929B-00C0DF256EC4}
  9
$EXTNAMES
290
     1
  9
$PSVPSCALE
 40
0.0
  9
$OLESTARTUP
290
     0
  0
ENDSEC
  0
SECTION
  2
CLASSES
  0
CLASS
  1
ACDBDICTIONARYWDFLT
  2
AcDbDictionaryWithDefault
  3
ObjectDBX Classes
 90
        0
280
     0
281
     0
  0
CLASS
  1
VISUALSTYLE
  2
AcDbVisualStyle
  3
ObjectDBX Classes
 90
     4095
280
     0
281
     0
  0
CLASS
  1
DICTIONARYVAR
  2
AcDbDictionaryVar
  3
ObjectDBX Classes
 90
        0
280
     0
281
     0
  0
CLASS
  1
ACDBPLACEHOLDER
  2
AcDbPlaceHolder
  3
ObjectDBX Classes
 90
        0
280
     0
281
     0
  0
CLASS
  1
LAYOUT
  2
AcDbLayout
  3
ObjectDBX Classes
 90
        0
280
     0
281
     0
  0
ENDSEC
  0
SECTION
  2
TABLES
  0
TABLE
  2
VPORT
  5
8
330
0
100
AcDbSymbolTable
 70
     1
  0
VPORT
  5
29
330
8
100
AcDbSymbolTableRecord
100
AcDbViewportTableRecord
  2
*Active
 70
     0
 10
0.0
 20
0.0
 11
1.0
 21
1.0
 12
270.0
 22
70.0
 13
0.0
 23
0.0
 14
10.0
 24
10.0
 15
10.0
 25
10.0
 16
0.0
 26
0.0
 36
1.0
 17
0.0
 27
0.0
 37
0.0
 40
140.0
 41
3.8571428571
 42
50.0
 43
0.0
 44
0.0
 50
0.0
 51
0.0
 71
     0
 72
  2000
 73
     1
 74
     3
 75
     0
 76
     0
 77
     0
 78
     0
281
     0
 65
     1
110
0.0
120
0.0
130
0.0
111
1.0
121
0.0
131
0.0
112
0.0
122
1.0
132
0.0
 79
     0
146
0.0
  0
ENDTAB
  0
TABLE
  2
LTYPE
  5
5
330
0
100
AcDbSymbolTable
 70
     6
  0
LTYPE
  5
14
330
5
100
AcDbSymbolTableRecord
100
AcDbLinetypeTableRecord
  2
ByBlock
 70
     0
  3

 72
    65
 73
     0
 40
0.0
  0
LTYPE
  5
15
330
5
100
AcDbSymbolTableRecord
100
AcDbLinetypeTableRecord
  2
ByLayer
 70
     0
  3

 72
    65
 73
     0
 40
0.0
  0
LTYPE
  5
16
330
5
100
AcDbSymbolTableRecord
100
AcDbLinetypeTableRecord
  2
Continuous
 70
     0
  3
Solid line
 72
    65
 73
     0
 40
0.0
  0
LTYPE
  5
3B
330
5
100
AcDbSymbolTableRecord
100
AcDbLinetypeTableRecord
  2
HIDDEN
 70
     0
  3
Hidden __ __ __ __ __ __ __ __ __ __ __ __ __ __
 72
    65
 73
     2
 40
1.905
 49
1.27
 74
     0
 49
-0.635
 74
     0
  0
LTYPE
  5
3C
330
5
100
AcDbSymbolTableRecord
100
AcDbLinetypeTableRecord
  2
PHANTOM
 70
     0
  3
Phantom ______  __  __  ______  __  __  ______
 72
    65
 73
     6
 40
12.7
 49
6.35
 74
     0
 49
-1.27
 74
     0
 49
1.27
 74
     0
 49
-1.27
 74
     0
 49
1.27
 74
     0
 49
-1.27
 74
     0
  0
LTYPE
  5
3D
330
5
100
AcDbSymbolTableRecord
100
AcDbLinetypeTableRecord
  2
CENTER
 70
     0
  3
Center ____ _ ____ _ ____ _ ____ _ ____ _ ____
 72
    65
 73
     4
 40
10.16
 49
6.35
 74
     0
 49
-1.27
 74
     0
 49
1.27
 74
     0
 49
-1.27
 74
     0
  0
LTYPE
  5
3E
330
5
100
AcDbSymbolTableRecord
100
AcDbLinetypeTableRecord
  2
CENTERX2
 70
     0
  3
Center (2x) ________  __  ________  __  _____
 72
    65
 73
     4
 40
20.32
 49
12.7
 74
     0
 49
-2.54
 74
     0
 49
2.54
 74
     0
 49
-2.54
 74
     0
  0
LTYPE
  5
3F
330
5
100
AcDbSymbolTableRecord
100
AcDbLinetypeTableRecord
  2
DOT2
 70
     0
  3
Dot (.5x) ........................................
 72
    65
 73
     2
 40
0.635
 49
0.0
 74
     0
 49
-0.635
 74
     0
  0
ENDTAB
  0
TABLE
  2
LAYER
  5
2
330
0
100
AcDbSymbolTable
 70
     3
  0
LAYER
  5
10
330
2
100
AcDbSymbolTableRecord
100
AcDbLayerTableRecord
  2
0
 70
     0
 62
     7
  6
Continuous
370
    -3
390
F
  0
LAYER
  5
40
330
2
100
AcDbSymbolTableRecord
100
AcDbLayerTableRecord
  2
SLD-0
 70
     0
 62
     7
  6
Continuous
370
    -3
390
F
  0
LAYER
  5
41
330
2
100
AcDbSymbolTableRecord
100
AcDbLayerTableRecord
  2
1
 70
     0
 62
     7
  6
Continuous
370
    -3
390
F
  0
ENDTAB
  0
TABLE
  2
STYLE
  5
3
330
0
100
AcDbSymbolTable
 70
     1
  0
STYLE
  5
11
330
3
100
AcDbSymbolTableRecord
100
AcDbTextStyleTableRecord
  2
Standard
 70
     0
 40
0.0
 41
1.0
 50
0.0
 71
     0
 42
2.5
  3
txt
  4

  0
ENDTAB
  0
TABLE
  2
VIEW
  5
6
330
0
100
AcDbSymbolTable
 70
     0
  0
ENDTAB
  0
TABLE
  2
UCS
  5
7
330
0
100
AcDbSymbolTable
 70
     0
  0
ENDTAB
  0
TABLE
  2
APPID
  5
9
330
0
100
AcDbSymbolTable
 70
     1
  0
APPID
  5
12
330
9
100
AcDbSymbolTableRecord
100
AcDbRegAppTableRecord
  2
ACAD
 70
     0
  0
ENDTAB
  0
TABLE
  2
DIMSTYLE
  5
A
330
0
100
AcDbSymbolTable
 70
     1
100
AcDbDimStyleTable
  0
DIMSTYLE
105
27
330
A
100
AcDbSymbolTableRecord
100
AcDbDimStyleTableRecord
  2
ISO-25
 70
     0
 41
2.5
 42
0.625
 43
3.75
 44
1.25
 73
     0
 74
     0
 77
     1
 78
     8
140
2.5
141
2.5
143
0.0393700787
147
0.625
171
     3
172
     1
271
     2
272
     2
274
     3
278
    44
283
     0
284
     8
340
11
  0
ENDTAB
  0
TABLE
  2
BLOCK_RECORD
  5
1
330
0
100
AcDbSymbolTable
 70
     3
  0
BLOCK_RECORD
  5
1F
330
1
100
AcDbSymbolTableRecord
100
AcDbBlockTableRecord
  2
*Model_Space
340
22
  0
BLOCK_RECORD
  5
1B
330
1
100
AcDbSymbolTableRecord
100
AcDbBlockTableRecord
  2
*Paper_Space
340
1E
  0
BLOCK_RECORD
  5
23
330
1
100
AcDbSymbolTableRecord
100
AcDbBlockTableRecord
  2
*Paper_Space0
340
26
  0
BLOCK_RECORD
  5
42
330
1
100
AcDbSymbolTableRecord
100
AcDbBlockTableRecord
  2
_FORMAT_A4V
340
0
  0
BLOCK_RECORD
  5
51
330
1
100
AcDbSymbolTableRecord
100
AcDbBlockTableRecord
  2
Hyperfreespin
340
0
  0
ENDTAB
  0
ENDSEC
  0
SECTION
  2
BLOCKS
  0
BLOCK
  5
20
330
1F
100
AcDbEntity
  8
0
100
AcDbBlockBegin
  2
*Model_Space
 70
     0
 10
0.0
 20
0.0
 30
0.0
  3
*Model_Space
  1

  0
ENDBLK
  5
21
330
1F
100
AcDbEntity
  8
0
100
AcDbBlockEnd
  0
BLOCK
  5
1C
330
1B
100
AcDbEntity
 67
     1
  8
0
100
AcDbBlockBegin
  2
*Paper_Space
 70
     0
 10
0.0
 20
0.0
 30
0.0
  3
*Paper_Space
  1

  0
ENDBLK
  5
1D
330
1B
100
AcDbEntity
 67
     1
  8
0
100
AcDbBlockEnd
  0
BLOCK
  5
24
330
23
100
AcDbEntity
  8
0
100
AcDbBlockBegin
  2
*Paper_Space0
 70
     0
 10
0.0
 20
0.0
 30
0.0
  3
*Paper_Space0
  1

  0
ENDBLK
  5
25
330
23
100
AcDbEntity
  8
0
100
AcDbBlockEnd
  0
BLOCK
  5
43
330
42
100
AcDbEntity
  8
0
100
AcDbBlockBegin
  2
_FORMAT_A4V
 70
     0
 10
0.0
 20
0.0
 30
0.0
  3
_FORMAT_A4V
  1

  0
LINE
  5
45
330
42
100
AcDbEntity
  8
1
  6
Continuous
 62
     7
100
AcDbLine
 10
-225.7564400923
 20
700.9736354657
 30
0.0
 11
-225.7564400923
 21
710.9736354657
 31
0.0
  0
LINE
  5
46
330
42
100
AcDbEntity
  8
1
  6
Continuous
 62
     7
100
AcDbLine
 10
-225.7564400923
 20
413.9736354657
 30
0.0
 11
-225.7564400923
 21
423.9736354657
 31
0.0
  0
LINE
  5
47
330
42
100
AcDbEntity
  8
1
  6
Continuous
 62
     7
100
AcDbLine
 10
-15.7564400923
 20
423.9736354657
 30
0.0
 11
-15.7564400923
 21
413.9736354657
 31
0.0
  0
LINE
  5
48
330
42
100
AcDbEntity
  8
1
  6
Continuous
 62
     7
100
AcDbLine
 10
-15.7564400923
 20
710.9736354657
 30
0.0
 11
-15.7564400923
 21
700.9736354657
 31
0.0
  0
LINE
  5
49
330
42
100
AcDbEntity
  8
1
  6
Continuous
 62
     7
100
AcDbLine
 10
-25.7564400923
 20
413.9736354657
 30
0.0
 11
-15.7564400923
 21
413.9736354657
 31
0.0
  0
LINE
  5
4A
330
42
100
AcDbEntity
  8
1
  6
Continuous
 62
     7
100
AcDbLine
 10
-225.7564400923
 20
413.9736354657
 30
0.0
 11
-215.7564400923
 21
413.9736354657
 31
0.0
  0
LINE
  5
4B
330
42
100
AcDbEntity
  8
1
  6
Continuous
 62
     7
100
AcDbLine
 10
-25.7564400923
 20
710.9736354657
 30
0.0
 11
-15.7564400923
 21
710.9736354657
 31
0.0
  0
LINE
  5
4C
330
42
100
AcDbEntity
  8
1
  6
Continuous
 62
     7
100
AcDbLine
 10
-225.7564400923
 20
710.9736354657
 30
0.0
 11
-215.7564400923
 21
710.9736354657
 31
0.0
  0
LINE
  5
4D
330
42
100
AcDbEntity
  8
1
  6
Continuous
 62
     7
100
AcDbLine
 10
-207.7564400923
 20
703.9736354657
 30
0.0
 11
-207.7564400923
 21
420.9736354657
 31
0.0
  0
LINE
  5
4E
330
42
100
AcDbEntity
  8
1
  6
Continuous
 62
     7
100
AcDbLine
 10
-22.7564400923
 20
703.9736354657
 30
0.0
 11
-22.7564400923
 21
420.9736354657
 31
0.0
  0
LINE
  5
4F
330
42
100
AcDbEntity
  8
1
  6
Continuous
 62
     7
100
AcDbLine
 10
-207.7564400923
 20
420.9736354657
 30
0.0
 11
-22.7564400923
 21
420.9736354657
 31
0.0
  0
LINE
  5
50
330
42
100
AcDbEntity
  8
1
  6
Continuous
 62
     7
100
AcDbLine
 10
-207.7564400923
 20
703.9736354657
 30
0.0
 11
-22.7564400923
 21
703.9736354657
 31
0.0
  0
ENDBLK
  5
44
330
42
100
AcDbEntity
  8
0
100
AcDbBlockEnd
  0
BLOCK
  5
52
330
51
100
AcDbEntity
  8
0
100
AcDbBlockBegin
  2
Hyperfreespin
 70
     0
 10
0.0
 20
0.0
 30
0.0
  3
Hyperfreespin
  1

  0
LINE
  5
54
330
51
100
AcDbEntity
  8
1
370
    15
100
AcDbLine
 10
74.5437666245
 20
99.4080972915
 30
0.0
 11
76.0598133098
 21
99.4080972915
 31
0.0
  0
LINE
  5
55
330
51
100
AcDbEntity
  8
1
370
    15
100
AcDbLine
 10
76.0598133098
 20
99.4080972915
 30
0.0
 11
76.0598133098
 21
97.3923812477
 31
0.0
  0
LINE
  5
56
330
51
100
AcDbEntity
  8
1
370
    15
100
AcDbLine
 10
76.0598133098
 20
97.3923812477
 30
0.0
 11
76.662231317
 21
97.3923812477
 31
0.0
  0
LINE
  5
57
330
51
100
AcDbEntity
  8
1
370
    15
100
AcDbLine
 10
76.662231317
 20
97.3923812477
 30
0.0
 11
76.662231317
 21
99.4080972915
 31
0.0
  0
LINE
  5
58
330
51
100
AcDbEntity
  8
1
370
    15
100
AcDbLine
 10
76.662231317
 20
99.4080972915
 30
0.0
 11
78.2238711002
 21
99.4080972915
 31
0.0
  0
LINE
  5
59
330
51
100
AcDbEntity
  8
1
370
    15
100
AcDbLine
 10
78.2238711002
 20
99.4080972915
 30
0.0
 11
78.2238711002
 21
93.4075657395
 31
0.0
  0
LINE
  5
5A
330
51
100
AcDbEntity
  8
1
370
    15
100
AcDbLine
 10
78.2238711002
 20
93.4075657395
 30
0.0
 11
76.662231317
 21
93.4075657395
 31
0.0
  0
LINE
  5
5B
330
51
100
AcDbEntity
  8
1
370
    15
100
AcDbLine
 10
76.662231317
 20
93.4075657395
 30
0.0
 11
76.662231317
 21
95.8302355728
 31
0.0
  0
LINE
  5
5C
330
51
100
AcDbEntity
  8
1
370
    15
100
AcDbLine
 10
76.662231317
 20
95.8302355728
 30
0.0
 11
76.0598133098
 21
95.8302355728
 31
0.0
  0
LINE
  5
5D
330
51
100
AcDbEntity
  8
1
370
    15
100
AcDbLine
 10
76.0598133098
 20
95.8302355728
 30
0.0
 11
76.0598133098
 21
93.4075657395
 31
0.0
  0
LINE
  5
5E
330
51
100
AcDbEntity
  8
1
370
    15
100
AcDbLine
 10
76.0598133098
 20
93.4075657395
 30
0.0
 11
74.5437666245
 21
93.4075657395
 31
0.0
  0
LINE
  5
5F
330
51
100
AcDbEntity
  8
1
370
    15
100
AcDbLine
 10
74.5437666245
 20
93.4075657395
 30
0.0
 11
74.5437666245
 21
99.4080972915
 31
0.0
  0
LINE
  5
60
330
51
100
AcDbEntity
  8
1
370
    15
100
AcDbLine
 10
78.7330859567
 20
97.894611656
 30
0.0
 11
80.2452046314
 21
97.894611656
 31
0.0
  0
LINE
  5
61
330
51
100
AcDbEntity
  8
1
370
    15
100
AcDbLine
 10
80.2452046314
 20
97.894611656
 30
0.0
 11
80.2452046314
 21
94.6146840346
 31
0.0
  0
LINE
  5
62
330
51
100
AcDbEntity
  8
1
370
    15
100
AcDbLine
 10
80.2452046314
 20
94.6146840346
 30
0.0
 11
80.8523194731
 21
94.6146840346
 31
0.0
  0
LINE
  5
63
330
51
100
AcDbEntity
  8
1
370
    15
100
AcDbLine
 10
80.8523194731
 20
94.6146840346
 30
0.0
 11
80.8523194731
 21
97.894611656
 31
0.0
  0
LINE
  5
64
330
51
100
AcDbEntity
  8
1
370
    15
100
AcDbLine
 10
80.8523194731
 20
97.894611656
 30
0.0
 11
82.3138110294
 21
97.894611656
 31
0.0
  0
LINE
  5
65
330
51
100
AcDbEntity
  8
1
370
    15
100
AcDbLine
 10
82.3138110294
 20
97.894611656
 30
0.0
 11
82.3138110294
 21
92.5480485936
 31
0.0
  0
LINE
  5
66
330
51
100
AcDbEntity
  8
1
370
    15
100
AcDbLine
 10
82.3138110294
 20
92.5480485936
 30
0.0
 11
81.7087929804
 21
91.9428683682
 31
0.0
  0
LINE
  5
67
330
51
100
AcDbEntity
  8
1
370
    15
100
AcDbLine
 10
81.7087929804
 20
91.9428683682
 30
0.0
 11
79.3882383749
 21
91.9428683682
 31
0.0
  0
LINE
  5
68
330
51
100
AcDbEntity
  8
1
370
    15
100
AcDbLine
 10
79.3882383749
 20
91.9428683682
 30
0.0
 11
78.782302073
 21
92.5480485936
 31
0.0
  0
LINE
  5
69
330
51
100
AcDbEntity
  8
1
370
    15
100
AcDbLine
 10
78.782302073
 20
92.5480485936
 30
0.0
 11
78.782302073
 21
93.2567100187
 31
0.0
  0
LINE
  5
6A
330
51
100
AcDbEntity
  8
1
370
    15
100
AcDbLine
 10
78.782302073
 20
93.2567100187
 30
0.0
 11
80.1953163162
 21
93.2567100187
 31
0.0
  0
LINE
  5
6B
330
51
100
AcDbEntity
  8
1
370
    15
100
AcDbLine
 10
80.1953163162
 20
93.2567100187
 30
0.0
 11
80.1953163162
 21
92.9023793061
 31
0.0
  0
LINE
  5
6C
330
51
100
AcDbEntity
  8
1
370
    15
100
AcDbLine
 10
80.1953163162
 20
92.9023793061
 30
0.0
 11
80.8523194731
 21
92.9023793061
 31
0.0
  0
LINE
  5
6D
330
51
100
AcDbEntity
  8
1
370
    15
100
AcDbLine
 10
80.8523194731
 20
92.9023793061
 30
0.0
 11
80.8523194731
 21
93.7740420538
 31
0.0
  0
LINE
  5
6E
330
51
100
AcDbEntity
  8
1
370
    15
100
AcDbLine
 10
80.8523194731
 20
93.7740420538
 30
0.0
 11
80.5400588466
 21
93.4613913073
 31
0.0
  0
LINE
  5
6F
330
51
100
AcDbEntity
  8
1
370
    15
100
AcDbLine
 10
80.5400588466
 20
93.4613913073
 30
0.0
 11
79.2859560403
 21
93.4613913073
 31
0.0
  0
LINE
  5
70
330
51
100
AcDbEntity
  8
1
370
    15
100
AcDbLine
 10
79.2859560403
 20
93.4613913073
 30
0.0
 11
78.7330859567
 21
94.0135715294
 31
0.0
  0
LINE
  5
71
330
51
100
AcDbEntity
  8
1
370
    15
100
AcDbLine
 10
78.7330859567
 20
94.0135715294
 30
0.0
 11
78.7330859567
 21
97.894611656
 31
0.0
  0
LINE
  5
72
330
51
100
AcDbEntity
  8
1
370
    15
100
AcDbLine
 10
82.8191228972
 20
97.894611656
 30
0.0
 11
84.2790977263
 21
97.894611656
 31
0.0
  0
LINE
  5
73
330
51
100
AcDbEntity
  8
1
370
    15
100
AcDbLine
 10
84.2790977263
 20
97.894611656
 30
0.0
 11
84.2790977263
 21
97.4877869869
 31
0.0
  0
LINE
  5
74
330
51
100
AcDbEntity
  8
1
370
    15
100
AcDbLine
 10
84.2790977263
 20
97.4877869869
 30
0.0
 11
84.6388294011
 21
97.894611656
 31
0.0
  0
LINE
  5
75
330
51
100
AcDbEntity
  8
1
370
    15
100
AcDbLine
 10
84.6388294011
 20
97.894611656
 30
0.0
 11
85.8435028723
 21
97.894611656
 31
0.0
  0
LINE
  5
76
330
51
100
AcDbEntity
  8
1
370
    15
100
AcDbLine
 10
85.8435028723
 20
97.894611656
 30
0.0
 11
86.4017978163
 21
97.3409460423
 31
0.0
  0
LINE
  5
77
330
51
100
AcDbEntity
  8
1
370
    15
100
AcDbLine
 10
86.4017978163
 20
97.3409460423
 30
0.0
 11
86.4017978163
 21
94.0135715294
 31
0.0
  0
LINE
  5
78
330
51
100
AcDbEntity
  8
1
370
    15
100
AcDbLine
 10
86.4017978163
 20
94.0135715294
 30
0.0
 11
85.8008169706
 21
93.4075657395
 31
0.0
  0
LINE
  5
79
330
51
100
AcDbEntity
  8
1
370
    15
100
AcDbLine
 10
85.8008169706
 20
93.4075657395
 30
0.0
 11
84.6388294011
 21
93.4075657395
 31
0.0
  0
LINE
  5
7A
330
51
100
AcDbEntity
  8
1
370
    15
100
AcDbLine
 10
84.6388294011
 20
93.4075657395
 30
0.0
 11
84.2790977263
 21
93.7643145523
 31
0.0
  0
LINE
  5
7B
330
51
100
AcDbEntity
  8
1
370
    15
100
AcDbLine
 10
84.2790977263
 20
93.7643145523
 30
0.0
 11
84.2790977263
 21
91.9428683682
 31
0.0
  0
LINE
  5
7C
330
51
100
AcDbEntity
  8
1
370
    15
100
AcDbLine
 10
84.2790977263
 20
91.9428683682
 30
0.0
 11
82.8191228972
 21
91.9428683682
 31
0.0
  0
LINE
  5
7D
330
51
100
AcDbEntity
  8
1
370
    15
100
AcDbLine
 10
82.8191228972
 20
91.9428683682
 30
0.0
 11
82.8191228972
 21
97.894611656
 31
0.0
  0
LINE
  5
7E
330
51
100
AcDbEntity
  8
1
370
    15
100
AcDbLine
 10
84.2790977263
 20
96.6905017144
 30
0.0
 11
84.2790977263
 21
94.6146840346
 31
0.0
  0
LINE
  5
7F
330
51
100
AcDbEntity
  8
1
370
    15
100
AcDbLine
 10
84.2790977263
 20
94.6146840346
 30
0.0
 11
84.8935552138
 21
94.6146840346
 31
0.0
  0
LINE
  5
80
330
51
100
AcDbEntity
  8
1
370
    15
100
AcDbLine
 10
84.8935552138
 20
94.6146840346
 30
0.0
 11
84.8935552138
 21
96.6905017144
 31
0.0
  0
LINE
  5
81
330
51
100
AcDbEntity
  8
1
370
    15
100
AcDbLine
 10
84.8935552138
 20
96.6905017144
 30
0.0
 11
84.2790977263
 21
96.6905017144
 31
0.0
  0
LINE
  5
82
330
51
100
AcDbEntity
  8
1
370
    15
100
AcDbLine
 10
86.9031823407
 20
97.3409460423
 30
0.0
 11
87.4522570101
 21
97.894611656
 31
0.0
  0
LINE
  5
83
330
51
100
AcDbEntity
  8
1
370
    15
100
AcDbLine
 10
87.4522570101
 20
97.894611656
 30
0.0
 11
89.9846244819
 21
97.894611656
 31
0.0
  0
LINE
  5
84
330
51
100
AcDbEntity
  8
1
370
    15
100
AcDbLine
 10
89.9846244819
 20
97.894611656
 30
0.0
 11
90.542919426
 21
97.3409460423
 31
0.0
  0
LINE
  5
85
330
51
100
AcDbEntity
  8
1
370
    15
100
AcDbLine
 10
90.542919426
 20
97.3409460423
 30
0.0
 11
90.542919426
 21
95.4282454708
 31
0.0
  0
LINE
  5
86
330
51
100
AcDbEntity
  8
1
370
    15
100
AcDbLine
 10
90.542919426
 20
95.4282454708
 30
0.0
 11
88.3711033171
 21
95.1235981936
 31
0.0
  0
LINE
  5
87
330
51
100
AcDbEntity
  8
1
370
    15
100
AcDbLine
 10
88.3711033171
 20
95.1235981936
 30
0.0
 11
88.3711033171
 21
94.5670634368
 31
0.0
  0
LINE
  5
88
330
51
100
AcDbEntity
  8
1
370
    15
100
AcDbLine
 10
88.3711033171
 20
94.5670634368
 30
0.0
 11
89.0271808759
 21
94.5670634368
 31
0.0
  0
LINE
  5
89
330
51
100
AcDbEntity
  8
1
370
    15
100
AcDbLine
 10
89.0271808759
 20
94.5670634368
 30
0.0
 11
89.0271808759
 21
94.9187400121
 31
0.0
  0
LINE
  5
8A
330
51
100
AcDbEntity
  8
1
370
    15
100
AcDbLine
 10
89.0271808759
 20
94.9187400121
 30
0.0
 11
90.542919426
 21
94.9187400121
 31
0.0
  0
LINE
  5
8B
330
51
100
AcDbEntity
  8
1
370
    15
100
AcDbLine
 10
90.542919426
 20
94.9187400121
 30
0.0
 11
90.542919426
 21
94.0135715294
 31
0.0
  0
LINE
  5
8C
330
51
100
AcDbEntity
  8
1
370
    15
100
AcDbLine
 10
90.542919426
 20
94.0135715294
 30
0.0
 11
89.9419385803
 21
93.4075657395
 31
0.0
  0
LINE
  5
8D
330
51
100
AcDbEntity
  8
1
370
    15
100
AcDbLine
 10
89.9419385803
 20
93.4075657395
 30
0.0
 11
87.5140413149
 21
93.4075657395
 31
0.0
  0
LINE
  5
8E
330
51
100
AcDbEntity
  8
1
370
    15
100
AcDbLine
 10
87.5140413149
 20
93.4075657395
 30
0.0
 11
86.9031823407
 21
94.0133595272
 31
0.0
  0
LINE
  5
8F
330
51
100
AcDbEntity
  8
1
370
    15
100
AcDbLine
 10
86.9031823407
 20
94.0133595272
 30
0.0
 11
86.9031823407
 21
97.3409460423
 31
0.0
  0
LINE
  5
90
330
51
100
AcDbEntity
  8
1
370
    15
100
AcDbLine
 10
88.371103317
 20
96.7873274353
 30
0.0
 11
89.0769160715
 21
96.7873274353
 31
0.0
  0
LINE
  5
91
330
51
100
AcDbEntity
  8
1
370
    15
100
AcDbLine
 10
89.0769160715
 20
96.7873274353
 30
0.0
 11
89.0769160715
 21
96.0793309353
 31
0.0
  0
LINE
  5
92
330
51
100
AcDbEntity
  8
1
370
    15
100
AcDbLine
 10
89.0769160715
 20
96.0793309353
 30
0.0
 11
88.371103317
 21
95.980324425
 31
0.0
  0
LINE
  5
93
330
51
100
AcDbEntity
  8
1
370
    15
100
AcDbLine
 10
88.371103317
 20
95.980324425
 30
0.0
 11
88.371103317
 21
96.7873274353
 31
0.0
  0
LINE
  5
94
330
51
100
AcDbEntity
  8
1
370
    15
100
AcDbLine
 10
91.0430780667
 20
97.894611656
 30
0.0
 11
92.5555879673
 21
97.894611656
 31
0.0
  0
LINE
  5
95
330
51
100
AcDbEntity
  8
1
370
    15
100
AcDbLine
 10
92.5555879673
 20
97.894611656
 30
0.0
 11
92.5555879673
 21
97.5912206524
 31
0.0
  0
LINE
  5
96
330
51
100
AcDbEntity
  8
1
370
    15
100
AcDbLine
 10
92.5555879673
 20
97.5912206524
 30
0.0
 11
92.8625436075
 21
97.894611656
 31
0.0
  0
LINE
  5
97
330
51
100
AcDbEntity
  8
1
370
    15
100
AcDbLine
 10
92.8625436075
 20
97.894611656
 30
0.0
 11
93.5684424299
 21
97.894611656
 31
0.0
  0
LINE
  5
98
330
51
100
AcDbEntity
  8
1
370
    15
100
AcDbLine
 10
93.5684424299
 20
97.894611656
 30
0.0
 11
93.5684424299
 21
96.6905017144
 31
0.0
  0
LINE
  5
99
330
51
100
AcDbEntity
  8
1
370
    15
100
AcDbLine
 10
93.5684424299
 20
96.6905017144
 30
0.0
 11
92.5555879673
 21
96.6905017144
 31
0.0
  0
LINE
  5
9A
330
51
100
AcDbEntity
  8
1
370
    15
100
AcDbLine
 10
92.5555879673
 20
96.6905017144
 30
0.0
 11
92.5555879673
 21
93.4075657395
 31
0.0
  0
LINE
  5
9B
330
51
100
AcDbEntity
  8
1
370
    15
100
AcDbLine
 10
92.5555879673
 20
93.4075657395
 30
0.0
 11
91.0430780667
 21
93.4075657395
 31
0.0
  0
LINE
  5
9C
330
51
100
AcDbEntity
  8
1
370
    15
100
AcDbLine
 10
91.0430780667
 20
93.4075657395
 30
0.0
 11
91.0430780667
 21
97.894611656
 31
0.0
  0
LINE
  5
9D
330
51
100
AcDbEntity
  8
1
370
    15
100
AcDbLine
 10
93.8223466041
 20
99.4080972915
 30
0.0
 11
97.0483592739
 21
99.4080972915
 31
0.0
  0
LINE
  5
9E
330
51
100
AcDbEntity
  8
1
370
    15
100
AcDbLine
 10
97.0483592739
 20
99.4080972915
 30
0.0
 11
97.0483592739
 21
97.999423541
 31
0.0
  0
LINE
  5
9F
330
51
100
AcDbEntity
  8
1
370
    15
100
AcDbLine
 10
97.0483592739
 20
97.999423541
 30
0.0
 11
95.3843870781
 21
97.999423541
 31
0.0
  0
LINE
  5
A0
330
51
100
AcDbEntity
  8
1
370
    15
100
AcDbLine
 10
95.3843870781
 20
97.999423541
 30
0.0
 11
95.3843870781
 21
97.192321645
 31
0.0
  0
LINE
  5
A1
330
51
100
AcDbEntity
  8
1
370
    15
100
AcDbLine
 10
95.3843870781
 20
97.192321645
 30
0.0
 11
96.8984598349
 21
97.192321645
 31
0.0
  0
LINE
  5
A2
330
51
100
AcDbEntity
  8
1
370
    15
100
AcDbLine
 10
96.8984598349
 20
97.192321645
 30
0.0
 11
96.8984598349
 21
95.77789564
 31
0.0
  0
LINE
  5
A3
330
51
100
AcDbEntity
  8
1
370
    15
100
AcDbLine
 10
96.8984598349
 20
95.77789564
 30
0.0
 11
95.3843870781
 21
95.77789564
 31
0.0
  0
LINE
  5
A4
330
51
100
AcDbEntity
  8
1
370
    15
100
AcDbLine
 10
95.3843870781
 20
95.77789564
 30
0.0
 11
95.3843870781
 21
93.4075657395
 31
0.0
  0
LINE
  5
A5
330
51
100
AcDbEntity
  8
1
370
    15
100
AcDbLine
 10
95.3843870781
 20
93.4075657395
 30
0.0
 11
93.8223466041
 21
93.4075657395
 31
0.0
  0
LINE
  5
A6
330
51
100
AcDbEntity
  8
1
370
    15
100
AcDbLine
 10
93.8223466041
 20
93.4075657395
 30
0.0
 11
93.8223466041
 21
99.4080972915
 31
0.0
  0
LINE
  5
A7
330
51
100
AcDbEntity
  8
1
370
    15
100
AcDbLine
 10
108.4557647484
 20
98.6541029946
 30
0.0
 11
109.2124609617
 21
99.4080972915
 31
0.0
  0
LINE
  5
A8
330
51
100
AcDbEntity
  8
1
370
    15
100
AcDbLine
 10
109.2124609617
 20
99.4080972915
 30
0.0
 11
111.4304227179
 21
99.4080972915
 31
0.0
  0
LINE
  5
A9
330
51
100
AcDbEntity
  8
1
370
    15
100
AcDbLine
 10
111.4304227179
 20
99.4080972915
 30
0.0
 11
112.1888529048
 21
98.6541029946
 31
0.0
  0
LINE
  5
AA
330
51
100
AcDbEntity
  8
1
370
    15
100
AcDbLine
 10
112.1888529048
 20
98.6541029946
 30
0.0
 11
112.1888529048
 21
97.6471373149
 31
0.0
  0
LINE
  5
AB
330
51
100
AcDbEntity
  8
1
370
    15
100
AcDbLine
 10
112.1888529048
 20
97.6471373149
 30
0.0
 11
110.6236029557
 21
97.3923812477
 31
0.0
  0
LINE
  5
AC
330
51
100
AcDbEntity
  8
1
370
    15
100
AcDbLine
 10
110.6236029557
 20
97.3923812477
 30
0.0
 11
110.6236029557
 21
98.1015801587
 31
0.0
  0
LINE
  5
AD
330
51
100
AcDbEntity
  8
1
370
    15
100
AcDbLine
 10
110.6236029557
 20
98.1015801587
 30
0.0
 11
110.0203724805
 21
98.1015801587
 31
0.0
  0
LINE
  5
AE
330
51
100
AcDbEntity
  8
1
370
    15
100
AcDbLine
 10
110.0203724805
 20
98.1015801587
 30
0.0
 11
110.0203724805
 21
97.5468408792
 31
0.0
  0
LINE
  5
AF
330
51
100
AcDbEntity
  8
1
370
    15
100
AcDbLine
 10
110.0203724805
 20
97.5468408792
 30
0.0
 11
112.1888529048
 21
96.3676684271
 31
0.0
  0
LINE
  5
B0
330
51
100
AcDbEntity
  8
1
370
    15
100
AcDbLine
 10
112.1888529048
 20
96.3676684271
 30
0.0
 11
112.1888529048
 21
94.1653163862
 31
0.0
  0
LINE
  5
B1
330
51
100
AcDbEntity
  8
1
370
    15
100
AcDbLine
 10
112.1888529048
 20
94.1653163862
 30
0.0
 11
111.4304227179
 21
93.4024242121
 31
0.0
  0
LINE
  5
B2
330
51
100
AcDbEntity
  8
1
370
    15
100
AcDbLine
 10
111.4304227179
 20
93.4024242121
 30
0.0
 11
109.2611003004
 21
93.4024242121
 31
0.0
  0
LINE
  5
B3
330
51
100
AcDbEntity
  8
1
370
    15
100
AcDbLine
 10
109.2611003004
 20
93.4024242121
 30
0.0
 11
108.4557647484
 21
94.2030495349
 31
0.0
  0
LINE
  5
B4
330
51
100
AcDbEntity
  8
1
370
    15
100
AcDbLine
 10
108.4557647484
 20
94.2030495349
 30
0.0
 11
108.4557647484
 21
95.4282454708
 31
0.0
  0
LINE
  5
B5
330
51
100
AcDbEntity
  8
1
370
    15
100
AcDbLine
 10
108.4557647484
 20
95.4282454708
 30
0.0
 11
110.0203724805
 21
95.6828970124
 31
0.0
  0
LINE
  5
B6
330
51
100
AcDbEntity
  8
1
370
    15
100
AcDbLine
 10
110.0203724805
 20
95.6828970124
 30
0.0
 11
110.0203724805
 21
94.7160224275
 31
0.0
  0
LINE
  5
B7
330
51
100
AcDbEntity
  8
1
370
    15
100
AcDbLine
 10
110.0203724805
 20
94.7160224275
 30
0.0
 11
110.6236029557
 21
94.7160224275
 31
0.0
  0
LINE
  5
B8
330
51
100
AcDbEntity
  8
1
370
    15
100
AcDbLine
 10
110.6236029557
 20
94.7160224275
 30
0.0
 11
110.6236029557
 21
95.4730281718
 31
0.0
  0
LINE
  5
B9
330
51
100
AcDbEntity
  8
1
370
    15
100
AcDbLine
 10
110.6236029557
 20
95.4730281718
 30
0.0
 11
108.4557647484
 21
96.6518514004
 31
0.0
  0
LINE
  5
BA
330
51
100
AcDbEntity
  8
1
370
    15
100
AcDbLine
 10
108.4557647484
 20
96.6518514004
 30
0.0
 11
108.4557647484
 21
98.6541029946
 31
0.0
  0
LINE
  5
BB
330
51
100
AcDbEntity
  8
1
370
    15
100
AcDbLine
 10
116.7818506281
 20
97.894611656
 30
0.0
 11
118.293525044
 21
97.894611656
 31
0.0
  0
LINE
  5
BC
330
51
100
AcDbEntity
  8
1
370
    15
100
AcDbLine
 10
118.293525044
 20
97.894611656
 30
0.0
 11
118.293525044
 21
93.4075657395
 31
0.0
  0
LINE
  5
BD
330
51
100
AcDbEntity
  8
1
370
    15
100
AcDbLine
 10
118.293525044
 20
93.4075657395
 30
0.0
 11
116.7818506281
 21
93.4075657395
 31
0.0
  0
LINE
  5
BE
330
51
100
AcDbEntity
  8
1
370
    15
100
AcDbLine
 10
116.7818506281
 20
93.4075657395
 30
0.0
 11
116.7818506281
 21
97.894611656
 31
0.0
  0
LINE
  5
BF
330
51
100
AcDbEntity
  8
1
370
    15
100
AcDbLine
 10
116.7818506281
 20
99.4080972915
 30
0.0
 11
118.293525044
 21
99.4080972915
 31
0.0
  0
LINE
  5
C0
330
51
100
AcDbEntity
  8
1
370
    15
100
AcDbLine
 10
118.293525044
 20
99.4080972915
 30
0.0
 11
118.293525044
 21
98.2542108928
 31
0.0
  0
LINE
  5
C1
330
51
100
AcDbEntity
  8
1
370
    15
100
AcDbLine
 10
118.293525044
 20
98.2542108928
 30
0.0
 11
116.7818506281
 21
98.2542108928
 31
0.0
  0
LINE
  5
C2
330
51
100
AcDbEntity
  8
1
370
    15
100
AcDbLine
 10
116.7818506281
 20
98.2542108928
 30
0.0
 11
116.7818506281
 21
99.4080972915
 31
0.0
  0
LINE
  5
C3
330
51
100
AcDbEntity
  8
1
370
    15
100
AcDbLine
 10
118.7511191979
 20
97.894611656
 30
0.0
 11
120.2594694392
 21
97.894611656
 31
0.0
  0
LINE
  5
C4
330
51
100
AcDbEntity
  8
1
370
    15
100
AcDbLine
 10
120.2594694392
 20
97.894611656
 30
0.0
 11
120.2594694392
 21
97.595872593
 31
0.0
  0
LINE
  5
C5
330
51
100
AcDbEntity
  8
1
370
    15
100
AcDbLine
 10
120.2594694392
 20
97.595872593
 30
0.0
 11
120.6181474811
 21
97.894611656
 31
0.0
  0
LINE
  5
C6
330
51
100
AcDbEntity
  8
1
370
    15
100
AcDbLine
 10
120.6181474811
 20
97.894611656
 30
0.0
 11
121.7248151804
 21
97.894611656
 31
0.0
  0
LINE
  5
C7
330
51
100
AcDbEntity
  8
1
370
    15
100
AcDbLine
 10
121.7248151804
 20
97.894611656
 30
0.0
 11
122.3322980313
 21
97.2906818376
 31
0.0
  0
LINE
  5
C8
330
51
100
AcDbEntity
  8
1
370
    15
100
AcDbLine
 10
122.3322980313
 20
97.2906818376
 30
0.0
 11
122.3322980313
 21
93.4075657395
 31
0.0
  0
LINE
  5
C9
330
51
100
AcDbEntity
  8
1
370
    15
100
AcDbLine
 10
122.3322980313
 20
93.4075657395
 30
0.0
 11
120.8681190419
 21
93.4075657395
 31
0.0
  0
LINE
  5
CA
330
51
100
AcDbEntity
  8
1
370
    15
100
AcDbLine
 10
120.8681190419
 20
93.4075657395
 30
0.0
 11
120.8681190419
 21
96.7380561361
 31
0.0
  0
LINE
  5
CB
330
51
100
AcDbEntity
  8
1
370
    15
100
AcDbLine
 10
120.8681190419
 20
96.7380561361
 30
0.0
 11
120.2594694392
 21
96.7380561361
 31
0.0
  0
LINE
  5
CC
330
51
100
AcDbEntity
  8
1
370
    15
100
AcDbLine
 10
120.2594694392
 20
96.7380561361
 30
0.0
 11
120.2594694392
 21
93.4075657395
 31
0.0
  0
LINE
  5
CD
330
51
100
AcDbEntity
  8
1
370
    15
100
AcDbLine
 10
120.2594694392
 20
93.4075657395
 30
0.0
 11
118.7511191979
 21
93.4075657395
 31
0.0
  0
LINE
  5
CE
330
51
100
AcDbEntity
  8
1
370
    15
100
AcDbLine
 10
118.7511191979
 20
93.4075657395
 30
0.0
 11
118.7511191979
 21
97.894611656
 31
0.0
  0
LINE
  5
CF
330
51
100
AcDbEntity
  8
0
  6
Continuous
 62
     7
370
    15
100
AcDbLine
 10
99.8780424299
 20
96.6905017144
 30
0.0
 11
98.8651879673
 21
96.6905017144
 31
0.0
  0
LINE
  5
D0
330
51
100
AcDbEntity
  8
0
  6
Continuous
 62
     7
370
    15
100
AcDbLine
 10
97.3526780667
 20
93.4075657395
 30
0.0
 11
97.3526780667
 21
97.894611656
 31
0.0
  0
LINE
  5
D1
330
51
100
AcDbEntity
  8
0
  6
Continuous
 62
     7
370
    15
100
AcDbLine
 10
98.8651879673
 20
93.4075657395
 30
0.0
 11
97.3526780667
 21
93.4075657395
 31
0.0
  0
LINE
  5
D2
330
51
100
AcDbEntity
  8
0
  6
Continuous
 62
     7
370
    15
100
AcDbLine
 10
98.8651879673
 20
97.894611656
 30
0.0
 11
98.8651879673
 21
97.5912206524
 31
0.0
  0
LINE
  5
D3
330
51
100
AcDbEntity
  8
0
  6
Continuous
 62
     7
370
    15
100
AcDbLine
 10
99.8780424299
 20
97.894611656
 30
0.0
 11
99.8780424299
 21
96.6905017144
 31
0.0
  0
LINE
  5
D4
330
51
100
AcDbEntity
  8
0
  6
Continuous
 62
     7
370
    15
100
AcDbLine
 10
99.1721436075
 20
97.894611656
 30
0.0
 11
99.8780424299
 21
97.894611656
 31
0.0
  0
LINE
  5
D5
330
51
100
AcDbEntity
  8
0
  6
Continuous
 62
     7
370
    15
100
AcDbLine
 10
98.8651879673
 20
96.6905017144
 30
0.0
 11
98.8651879673
 21
93.4075657395
 31
0.0
  0
LINE
  5
D6
330
51
100
AcDbEntity
  8
0
  6
Continuous
 62
     7
370
    15
100
AcDbLine
 10
97.3526780667
 20
97.894611656
 30
0.0
 11
98.8651879673
 21
97.894611656
 31
0.0
  0
LINE
  5
D7
330
51
100
AcDbEntity
  8
0
  6
Continuous
 62
     7
370
    15
100
AcDbLine
 10
98.8651879673
 20
97.5912206524
 30
0.0
 11
99.1721436075
 21
97.894611656
 31
0.0
  0
LINE
  5
D8
330
51
100
AcDbEntity
  8
0
  6
Continuous
 62
     7
370
    15
100
AcDbLine
 10
100.1471823407
 20
94.0133595272
 30
0.0
 11
100.1471823407
 21
97.3409460423
 31
0.0
  0
LINE
  5
D9
330
51
100
AcDbEntity
  8
0
  6
Continuous
 62
     7
370
    15
100
AcDbLine
 10
102.3209160715
 20
96.7873274353
 30
0.0
 11
102.3209160715
 21
96.0793309353
 31
0.0
  0
LINE
  5
DA
330
51
100
AcDbEntity
  8
0
  6
Continuous
 62
     7
370
    15
100
AcDbLine
 10
103.786919426
 20
94.9187400121
 30
0.0
 11
103.786919426
 21
94.0135715294
 31
0.0
  0
LINE
  5
DB
330
51
100
AcDbEntity
  8
0
  6
Continuous
 62
     7
370
    15
100
AcDbLine
 10
101.615103317
 20
94.5670634368
 30
0.0
 11
102.2711808759
 21
94.5670634368
 31
0.0
  0
LINE
  5
DC
330
51
100
AcDbEntity
  8
0
  6
Continuous
 62
     7
370
    15
100
AcDbLine
 10
101.615103317
 20
95.980324425
 30
0.0
 11
101.615103317
 21
96.7873274353
 31
0.0
  0
LINE
  5
DD
330
51
100
AcDbEntity
  8
0
  6
Continuous
 62
     7
370
    15
100
AcDbLine
 10
100.7580413149
 20
93.4075657395
 30
0.0
 11
100.1471823407
 21
94.0133595272
 31
0.0
  0
LINE
  5
DE
330
51
100
AcDbEntity
  8
0
  6
Continuous
 62
     7
370
    15
100
AcDbLine
 10
102.3209160715
 20
96.0793309353
 30
0.0
 11
101.615103317
 21
95.980324425
 31
0.0
  0
LINE
  5
DF
330
51
100
AcDbEntity
  8
0
  6
Continuous
 62
     7
370
    15
100
AcDbLine
 10
103.1859385803
 20
93.4075657395
 30
0.0
 11
100.7580413149
 21
93.4075657395
 31
0.0
  0
LINE
  5
E0
330
51
100
AcDbEntity
  8
0
  6
Continuous
 62
     7
370
    15
100
AcDbLine
 10
101.615103317
 20
96.7873274353
 30
0.0
 11
102.3209160715
 21
96.7873274353
 31
0.0
  0
LINE
  5
E1
330
51
100
AcDbEntity
  8
0
  6
Continuous
 62
     7
370
    15
100
AcDbLine
 10
103.786919426
 20
97.3409460423
 30
0.0
 11
103.786919426
 21
95.4282454708
 31
0.0
  0
LINE
  5
E2
330
51
100
AcDbEntity
  8
0
  6
Continuous
 62
     7
370
    15
100
AcDbLine
 10
101.615103317
 20
95.1235981936
 30
0.0
 11
101.615103317
 21
94.5670634368
 31
0.0
  0
LINE
  5
E3
330
51
100
AcDbEntity
  8
0
  6
Continuous
 62
     7
370
    15
100
AcDbLine
 10
102.2711808759
 20
94.9187400121
 30
0.0
 11
103.786919426
 21
94.9187400121
 31
0.0
  0
LINE
  5
E4
330
51
100
AcDbEntity
  8
0
  6
Continuous
 62
     7
370
    15
100
AcDbLine
 10
100.6962570101
 20
97.894611656
 30
0.0
 11
103.2286244819
 21
97.894611656
 31
0.0
  0
LINE
  5
E5
330
51
100
AcDbEntity
  8
0
  6
Continuous
 62
     7
370
    15
100
AcDbLine
 10
103.786919426
 20
94.0135715294
 30
0.0
 11
103.1859385803
 21
93.4075657395
 31
0.0
  0
LINE
  5
E6
330
51
100
AcDbEntity
  8
0
  6
Continuous
 62
     7
370
    15
100
AcDbLine
 10
103.786919426
 20
95.4282454708
 30
0.0
 11
101.615103317
 21
95.1235981936
 31
0.0
  0
LINE
  5
E7
330
51
100
AcDbEntity
  8
0
  6
Continuous
 62
     7
370
    15
100
AcDbLine
 10
102.2711808759
 20
94.5670634368
 30
0.0
 11
102.2711808759
 21
94.9187400121
 31
0.0
  0
LINE
  5
E8
330
51
100
AcDbEntity
  8
0
  6
Continuous
 62
     7
370
    15
100
AcDbLine
 10
103.2286244819
 20
97.894611656
 30
0.0
 11
103.786919426
 21
97.3409460423
 31
0.0
  0
LINE
  5
E9
330
51
100
AcDbEntity
  8
0
  6
Continuous
 62
     7
370
    15
100
AcDbLine
 10
100.1471823407
 20
97.3409460423
 30
0.0
 11
100.6962570101
 21
97.894611656
 31
0.0
  0
LINE
  5
EA
330
51
100
AcDbEntity
  8
0
  6
Continuous
 62
     7
370
    15
100
AcDbLine
 10
105.803903317
 20
96.7873274353
 30
0.0
 11
106.5097160715
 21
96.7873274353
 31
0.0
  0
LINE
  5
EB
330
51
100
AcDbEntity
  8
0
  6
Continuous
 62
     7
370
    15
100
AcDbLine
 10
106.4599808759
 20
94.9187400121
 30
0.0
 11
107.975719426
 21
94.9187400121
 31
0.0
  0
LINE
  5
EC
330
51
100
AcDbEntity
  8
0
  6
Continuous
 62
     7
370
    15
100
AcDbLine
 10
105.803903317
 20
95.1235981936
 30
0.0
 11
105.803903317
 21
94.5670634368
 31
0.0
  0
LINE
  5
ED
330
51
100
AcDbEntity
  8
0
  6
Continuous
 62
     7
370
    15
100
AcDbLine
 10
105.803903317
 20
95.980324425
 30
0.0
 11
105.803903317
 21
96.7873274353
 31
0.0
  0
LINE
  5
EE
330
51
100
AcDbEntity
  8
0
  6
Continuous
 62
     7
370
    15
100
AcDbLine
 10
106.4599808759
 20
94.5670634368
 30
0.0
 11
106.4599808759
 21
94.9187400121
 31
0.0
  0
LINE
  5
EF
330
51
100
AcDbEntity
  8
0
  6
Continuous
 62
     7
370
    15
100
AcDbLine
 10
104.3359823407
 20
94.0133595272
 30
0.0
 11
104.3359823407
 21
97.3409460423
 31
0.0
  0
LINE
  5
F0
330
51
100
AcDbEntity
  8
0
  6
Continuous
 62
     7
370
    15
100
AcDbLine
 10
107.3747385803
 20
93.4075657395
 30
0.0
 11
104.9468413149
 21
93.4075657395
 31
0.0
  0
LINE
  5
F1
330
51
100
AcDbEntity
  8
0
  6
Continuous
 62
     7
370
    15
100
AcDbLine
 10
106.5097160715
 20
96.0793309353
 30
0.0
 11
105.803903317
 21
95.980324425
 31
0.0
  0
LINE
  5
F2
330
51
100
AcDbEntity
  8
0
  6
Continuous
 62
     7
370
    15
100
AcDbLine
 10
107.975719426
 20
97.3409460423
 30
0.0
 11
107.975719426
 21
95.4282454708
 31
0.0
  0
LINE
  5
F3
330
51
100
AcDbEntity
  8
0
  6
Continuous
 62
     7
370
    15
100
AcDbLine
 10
104.8850570101
 20
97.894611656
 30
0.0
 11
107.4174244819
 21
97.894611656
 31
0.0
  0
LINE
  5
F4
330
51
100
AcDbEntity
  8
0
  6
Continuous
 62
     7
370
    15
100
AcDbLine
 10
107.975719426
 20
94.0135715294
 30
0.0
 11
107.3747385803
 21
93.4075657395
 31
0.0
  0
LINE
  5
F5
330
51
100
AcDbEntity
  8
0
  6
Continuous
 62
     7
370
    15
100
AcDbLine
 10
106.5097160715
 20
96.7873274353
 30
0.0
 11
106.5097160715
 21
96.0793309353
 31
0.0
  0
LINE
  5
F6
330
51
100
AcDbEntity
  8
0
  6
Continuous
 62
     7
370
    15
100
AcDbLine
 10
107.975719426
 20
95.4282454708
 30
0.0
 11
105.803903317
 21
95.1235981936
 31
0.0
  0
LINE
  5
F7
330
51
100
AcDbEntity
  8
0
  6
Continuous
 62
     7
370
    15
100
AcDbLine
 10
105.803903317
 20
94.5670634368
 30
0.0
 11
106.4599808759
 21
94.5670634368
 31
0.0
  0
LINE
  5
F8
330
51
100
AcDbEntity
  8
0
  6
Continuous
 62
     7
370
    15
100
AcDbLine
 10
104.3359823407
 20
97.3409460423
 30
0.0
 11
104.8850570101
 21
97.894611656
 31
0.0
  0
LINE
  5
F9
330
51
100
AcDbEntity
  8
0
  6
Continuous
 62
     7
370
    15
100
AcDbLine
 10
104.9468413149
 20
93.4075657395
 30
0.0
 11
104.3359823407
 21
94.0133595272
 31
0.0
  0
LINE
  5
FA
330
51
100
AcDbEntity
  8
0
  6
Continuous
 62
     7
370
    15
100
AcDbLine
 10
107.4174244819
 20
97.894611656
 30
0.0
 11
107.975719426
 21
97.3409460423
 31
0.0
  0
LINE
  5
FB
330
51
100
AcDbEntity
  8
0
  6
Continuous
 62
     7
370
    15
100
AcDbLine
 10
107.975719426
 20
94.9187400121
 30
0.0
 11
107.975719426
 21
94.0135715294
 31
0.0
  0
LINE
  5
FC
330
51
100
AcDbEntity
  8
0
  6
Continuous
 62
     7
370
    15
100
AcDbLine
 10
114.1990977263
 20
91.9428683682
 30
0.0
 11
112.7391228972
 21
91.9428683682
 31
0.0
  0
LINE
  5
FD
330
51
100
AcDbEntity
  8
0
  6
Continuous
 62
     7
370
    15
100
AcDbLine
 10
114.1990977263
 20
94.6146840346
 30
0.0
 11
114.8135552138
 21
94.6146840346
 31
0.0
  0
LINE
  5
FE
330
51
100
AcDbEntity
  8
0
  6
Continuous
 62
     7
370
    15
100
AcDbLine
 10
114.1990977263
 20
96.6905017144
 30
0.0
 11
114.1990977263
 21
94.6146840346
 31
0.0
  0
LINE
  5
FF
330
51
100
AcDbEntity
  8
0
  6
Continuous
 62
     7
370
    15
100
AcDbLine
 10
116.3217978163
 20
94.0135715294
 30
0.0
 11
115.7208169706
 21
93.4075657395
 31
0.0
  0
LINE
  5
100
330
51
100
AcDbEntity
  8
0
  6
Continuous
 62
     7
370
    15
100
AcDbLine
 10
114.1990977263
 20
97.487786987
 30
0.0
 11
114.5588294011
 21
97.894611656
 31
0.0
  0
LINE
  5
101
330
51
100
AcDbEntity
  8
0
  6
Continuous
 62
     7
370
    15
100
AcDbLine
 10
114.1990977263
 20
93.7643145523
 30
0.0
 11
114.1990977263
 21
91.9428683682
 31
0.0
  0
LINE
  5
102
330
51
100
AcDbEntity
  8
0
  6
Continuous
 62
     7
370
    15
100
AcDbLine
 10
114.5588294011
 20
93.4075657395
 30
0.0
 11
114.1990977263
 21
93.7643145523
 31
0.0
  0
LINE
  5
103
330
51
100
AcDbEntity
  8
0
  6
Continuous
 62
     7
370
    15
100
AcDbLine
 10
112.7391228972
 20
91.9428683682
 30
0.0
 11
112.7391228972
 21
97.894611656
 31
0.0
  0
LINE
  5
104
330
51
100
AcDbEntity
  8
0
  6
Continuous
 62
     7
370
    15
100
AcDbLine
 10
114.8135552138
 20
94.6146840346
 30
0.0
 11
114.8135552138
 21
96.6905017144
 31
0.0
  0
LINE
  5
105
330
51
100
AcDbEntity
  8
0
  6
Continuous
 62
     7
370
    15
100
AcDbLine
 10
114.1990977263
 20
97.894611656
 30
0.0
 11
114.1990977263
 21
97.487786987
 31
0.0
  0
LINE
  5
106
330
51
100
AcDbEntity
  8
0
  6
Continuous
 62
     7
370
    15
100
AcDbLine
 10
114.8135552138
 20
96.6905017144
 30
0.0
 11
114.1990977263
 21
96.6905017144
 31
0.0
  0
LINE
  5
107
330
51
100
AcDbEntity
  8
0
  6
Continuous
 62
     7
370
    15
100
AcDbLine
 10
114.5588294011
 20
97.894611656
 30
0.0
 11
115.7635028723
 21
97.894611656
 31
0.0
  0
LINE
  5
108
330
51
100
AcDbEntity
  8
0
  6
Continuous
 62
     7
370
    15
100
AcDbLine
 10
116.3217978163
 20
97.3409460423
 30
0.0
 11
116.3217978163
 21
94.0135715294
 31
0.0
  0
LINE
  5
109
330
51
100
AcDbEntity
  8
0
  6
Continuous
 62
     7
370
    15
100
AcDbLine
 10
115.7208169706
 20
93.4075657395
 30
0.0
 11
114.5588294011
 21
93.4075657395
 31
0.0
  0
LINE
  5
10A
330
51
100
AcDbEntity
  8
0
  6
Continuous
 62
     7
370
    15
100
AcDbLine
 10
112.7391228972
 20
97.894611656
 30
0.0
 11
114.1990977263
 21
97.894611656
 31
0.0
  0
LINE
  5
10B
330
51
100
AcDbEntity
  8
0
  6
Continuous
 62
     7
370
    15
100
AcDbLine
 10
115.7635028723
 20
97.894611656
 30
0.0
 11
116.3217978163
 21
97.3409460423
 31
0.0
  0
ENDBLK
  5
53
330
51
100
AcDbEntity
  8
0
100
AcDbBlockEnd
  0
ENDSEC
  0
SECTION
  2
ENTITIES
  0
LINE
  5
10C
330
1F
100
AcDbEntity
  8
0
  6
Continuous
 62
     7
370
    15
100
AcDbLine
 10
17.2070358604
 20
19.8926726847
 30
0.0
 11
517.2070358604
 21
19.8926726847
 31
0.0
  0
LINE
  5
10D
330
1F
100
AcDbEntity
  8
0
  6
Continuous
 62
     7
370
    15
100
AcDbLine
 10
17.2070358604
 20
119.8926726847
 30
0.0
 11
17.2070358604
 21
19.8926726847
 31
0.0
  0
LINE
  5
10E
330
1F
100
AcDbEntity
  8
0
  6
Continuous
 62
     7
370
    15
100
AcDbLine
 10
517.2070358604
 20
119.8926726847
 30
0.0
 11
17.2070358604
 21
119.8926726847
 31
0.0
  0
LINE
  5
10F
330
1F
100
AcDbEntity
  8
0
  6
Continuous
 62
     7
370
    15
100
AcDbLine
 10
517.2070358604
 20
19.8926726847
 30
0.0
 11
517.2070358604
 21
119.8926726847
 31
0.0
  0
CIRCLE
  5
110
330
1F
100
AcDbEntity
  8
0
  6
Continuous
 62
     7
370
    15
100
AcDbCircle
 10
87.2070358604
 20
51.8926726847
 30
0.0
 40
1.999999999999993
  0
CIRCLE
  5
111
330
1F
100
AcDbEntity
  8
0
  6
Continuous
 62
     7
370
    15
100
AcDbCircle
 10
87.2070358604
 20
43.8926726847
 30
0.0
 40
1.999999999999993
  0
CIRCLE
  5
112
330
1F
100
AcDbEntity
  8
0
  6
Continuous
 62
     7
370
    15
100
AcDbCircle
 10
87.2070358604
 20
35.8926726847
 30
0.0
 40
1.999999999999993
  0
CIRCLE
  5
113
330
1F
100
AcDbEntity
  8
0
  6
Continuous
 62
     7
370
    15
100
AcDbCircle
 10
75.7070358604
 20
54.9740883976
 30
0.0
 40
2.0
  0
CIRCLE
  5
114
330
1F
100
AcDbEntity
  8
0
  6
Continuous
 62
     7
370
    15
100
AcDbCircle
 10
67.2884515734
 20
63.3926726847
 30
0.0
 40
1.999999999999993
  0
CIRCLE
  5
115
330
1F
100
AcDbEntity
  8
0
  6
Continuous
 62
     7
370
    15
100
AcDbCircle
 10
64.2070358604
 20
74.8926726847
 30
0.0
 40
1.999999999999972
  0
CIRCLE
  5
116
330
1F
100
AcDbEntity
  8
0
  6
Continuous
 62
     7
370
    15
100
AcDbCircle
 10
67.2884515734
 20
86.3926726847
 30
0.0
 40
1.999999999999986
  0
CIRCLE
  5
117
330
1F
100
AcDbEntity
  8
0
  6
Continuous
 62
     7
370
    15
100
AcDbCircle
 10
75.7070358604
 20
94.8112569717
 30
0.0
 40
1.999999999999986
  0
CIRCLE
  5
118
330
1F
100
AcDbEntity
  8
0
  6
Continuous
 62
     7
370
    15
100
AcDbCircle
 10
87.2070358604
 20
97.8926726847
 30
0.0
 40
1.999999999999986
  0
CIRCLE
  5
119
330
1F
100
AcDbEntity
  8
0
  6
Continuous
 62
     7
370
    15
100
AcDbCircle
 10
98.7070358604
 20
94.8112569717
 30
0.0
 40
1.999999999999986
  0
CIRCLE
  5
11A
330
1F
100
AcDbEntity
  8
0
  6
Continuous
 62
     7
370
    15
100
AcDbCircle
 10
107.1256201475
 20
86.3926726847
 30
0.0
 40
2.000000000000014
  0
CIRCLE
  5
11B
330
1F
100
AcDbEntity
  8
0
  6
Continuous
 62
     7
370
    15
100
AcDbCircle
 10
110.2070358604
 20
74.8926726847
 30
0.0
 40
2.0
  0
CIRCLE
  5
11C
330
1F
100
AcDbEntity
  8
0
  6
Continuous
 62
     7
370
    15
100
AcDbCircle
 10
107.1256201475
 20
63.3926726847
 30
0.0
 40
1.999999999999986
  0
CIRCLE
  5
11D
330
1F
100
AcDbEntity
  8
0
  6
Continuous
 62
     7
370
    15
100
AcDbCircle
 10
98.7070358604
 20
54.9740883976
 30
0.0
 40
2.0
  0
CIRCLE
  5
11E
330
1F
100
AcDbEntity
  8
0
  6
Continuous
 62
     7
370
    15
100
AcDbCircle
 10
75.3438494571
 20
46.2524071768
 30
0.0
 40
1.999999999999936
  0
CIRCLE
  5
11F
330
1F
100
AcDbEntity
  8
0
  6
Continuous
 62
     7
370
    15
100
AcDbCircle
 10
65.2867256436
 20
52.9723624679
 30
0.0
 40
1.999999999999993
  0
CIRCLE
  5
120
330
1F
100
AcDbEntity
  8
0
  6
Continuous
 62
     7
370
    15
100
AcDbCircle
 10
58.5667703526
 20
63.0294862813
 30
0.0
 40
2.0
  0
CIRCLE
  5
121
330
1F
100
AcDbEntity
  8
0
  6
Continuous
 62
     7
370
    15
100
AcDbCircle
 10
56.2070358604
 20
74.8926726847
 30
0.0
 40
2.0
  0
CIRCLE
  5
122
330
1F
100
AcDbEntity
  8
0
  6
Continuous
 62
     7
370
    15
100
AcDbCircle
 10
58.5667703526
 20
86.755859088
 30
0.0
 40
2.0
  0
CIRCLE
  5
123
330
1F
100
AcDbEntity
  8
0
  6
Continuous
 62
     7
370
    15
100
AcDbCircle
 10
65.2867256436
 20
96.8129829014
 30
0.0
 40
2.0
  0
CIRCLE
  5
124
330
1F
100
AcDbEntity
  8
0
  6
Continuous
 62
     7
370
    15
100
AcDbCircle
 10
75.3438494571
 20
103.5329381925
 30
0.0
 40
2.0
  0
CIRCLE
  5
125
330
1F
100
AcDbEntity
  8
0
  6
Continuous
 62
     7
370
    15
100
AcDbCircle
 10
87.2070358604
 20
105.8926726847
 30
0.0
 40
1.999999999999986
  0
CIRCLE
  5
126
330
1F
100
AcDbEntity
  8
0
  6
Continuous
 62
     7
370
    15
100
AcDbCircle
 10
99.0702222637
 20
103.5329381925
 30
0.0
 40
2.000000000000028
  0
CIRCLE
  5
127
330
1F
100
AcDbEntity
  8
0
  6
Continuous
 62
     7
370
    15
100
AcDbCircle
 10
109.1273460772
 20
96.8129829014
 30
0.0
 40
2.0
  0
CIRCLE
  5
128
330
1F
100
AcDbEntity
  8
0
  6
Continuous
 62
     7
370
    15
100
AcDbCircle
 10
115.8473013683
 20
86.755859088
 30
0.0
 40
2.0
  0
CIRCLE
  5
129
330
1F
100
AcDbEntity
  8
0
  6
Continuous
 62
     7
370
    15
100
AcDbCircle
 10
118.2070358604
 20
74.8926726847
 30
0.0
 40
1.999999999999986
  0
CIRCLE
  5
12A
330
1F
100
AcDbEntity
  8
0
  6
Continuous
 62
     7
370
    15
100
AcDbCircle
 10
115.8473013683
 20
63.0294862813
 30
0.0
 40
1.999999999999986
  0
CIRCLE
  5
12B
330
1F
100
AcDbEntity
  8
0
  6
Continuous
 62
     7
370
    15
100
AcDbCircle
 10
109.1273460772
 20
52.9723624679
 30
0.0
 40
1.999999999999993
  0
CIRCLE
  5
12C
330
1F
100
AcDbEntity
  8
0
  6
Continuous
 62
     7
370
    15
100
AcDbCircle
 10
99.0702222637
 20
46.2524071768
 30
0.0
 40
1.999999999999993
  0
CIRCLE
  5
12D
330
1F
100
AcDbEntity
  8
0
  6
Continuous
 62
     7
370
    15
100
AcDbCircle
 10
75.1553730798
 20
37.8014685491
 30
0.0
 40
2.000000000000028
  0
CIRCLE
  5
12E
330
1F
100
AcDbEntity
  8
0
  6
Continuous
 62
     7
370
    15
100
AcDbCircle
 10
64.283411021
 20
43.341009904
 30
0.0
 40
2.0
  0
CIRCLE
  5
12F
330
1F
100
AcDbEntity
  8
0
  6
Continuous
 62
     7
370
    15
100
AcDbCircle
 10
55.6553730798
 20
51.9690478453
 30
0.0
 40
2.0
  0
CIRCLE
  5
130
330
1F
100
AcDbEntity
  8
0
  6
Continuous
 62
     7
370
    15
100
AcDbCircle
 10
50.1158317249
 20
62.841009904
 30
0.0
 40
1.999999999999986
  0
CIRCLE
  5
131
330
1F
100
AcDbEntity
  8
0
  6
Continuous
 62
     7
370
    15
100
AcDbCircle
 10
48.2070358604
 20
74.8926726847
 30
0.0
 40
1.999999999999972
  0
CIRCLE
  5
132
330
1F
100
AcDbEntity
  8
0
  6
Continuous
 62
     7
370
    15
100
AcDbCircle
 10
50.1158317249
 20
86.9443354653
 30
0.0
 40
1.999999999999972
  0
CIRCLE
  5
133
330
1F
100
AcDbEntity
  8
0
  6
Continuous
 62
     7
370
    15
100
AcDbCircle
 10
55.6553730798
 20
97.8162975241
 30
0.0
 40
1.999999999999957
  0
CIRCLE
  5
134
330
1F
100
AcDbEntity
  8
0
  6
Continuous
 62
     7
370
    15
100
AcDbCircle
 10
64.283411021
 20
106.4443354653
 30
0.0
 40
2.0
  0
CIRCLE
  5
135
330
1F
100
AcDbEntity
  8
0
  6
Continuous
 62
     7
370
    15
100
AcDbCircle
 10
75.1553730798
 20
111.9838768202
 30
0.0
 40
2.0
  0
CIRCLE
  5
136
330
1F
100
AcDbEntity
  8
0
  6
Continuous
 62
     7
370
    15
100
AcDbCircle
 10
87.2070358604
 20
113.8926726847
 30
0.0
 40
2.0
  0
CIRCLE
  5
137
330
1F
100
AcDbEntity
  8
0
  6
Continuous
 62
     7
370
    15
100
AcDbCircle
 10
99.258698641
 20
111.9838768202
 30
0.0
 40
1.999999999999986
  0
CIRCLE
  5
138
330
1F
100
AcDbEntity
  8
0
  6
Continuous
 62
     7
370
    15
100
AcDbCircle
 10
110.1306606998
 20
106.4443354653
 30
0.0
 40
1.999999999999972
  0
CIRCLE
  5
139
330
1F
100
AcDbEntity
  8
0
  6
Continuous
 62
     7
370
    15
100
AcDbCircle
 10
118.758698641
 20
97.8162975241
 30
0.0
 40
1.999999999999957
  0
CIRCLE
  5
13A
330
1F
100
AcDbEntity
  8
0
  6
Continuous
 62
     7
370
    15
100
AcDbCircle
 10
124.2982399959
 20
86.9443354653
 30
0.0
 40
2.0
  0
CIRCLE
  5
13B
330
1F
100
AcDbEntity
  8
0
  6
Continuous
 62
     7
370
    15
100
AcDbCircle
 10
126.2070358604
 20
74.8926726847
 30
0.0
 40
1.999999999999986
  0
CIRCLE
  5
13C
330
1F
100
AcDbEntity
  8
0
  6
Continuous
 62
     7
370
    15
100
AcDbCircle
 10
124.2982399959
 20
62.841009904
 30
0.0
 40
1.999999999999986
  0
CIRCLE
  5
13D
330
1F
100
AcDbEntity
  8
0
  6
Continuous
 62
     7
370
    15
100
AcDbCircle
 10
118.758698641
 20
51.9690478453
 30
0.0
 40
1.999999999999993
  0
CIRCLE
  5
13E
330
1F
100
AcDbEntity
  8
0
  6
Continuous
 62
     7
370
    15
100
AcDbCircle
 10
110.1306606998
 20
43.341009904
 30
0.0
 40
1.999999999999993
  0
CIRCLE
  5
13F
330
1F
100
AcDbEntity
  8
0
  6
Continuous
 62
     7
370
    15
100
AcDbCircle
 10
99.258698641
 20
37.8014685491
 30
0.0
 40
2.0
  0
CIRCLE
  5
140
330
1F
100
AcDbEntity
  8
0
  6
Continuous
 62
     7
370
    15
100
AcDbCircle
 10
447.2070358604
 20
43.8926726847
 30
0.0
 40
1.999999999999993
  0
CIRCLE
  5
141
330
1F
100
AcDbEntity
  8
0
  6
Continuous
 62
     7
370
    15
100
AcDbCircle
 10
447.2070358604
 20
35.8926726847
 30
0.0
 40
1.999999999999993
  0
CIRCLE
  5
142
330
1F
100
AcDbEntity
  8
0
  6
Continuous
 62
     7
370
    15
100
AcDbCircle
 10
435.7070358604
 20
54.9740883976
 30
0.0
 40
2.0
  0
CIRCLE
  5
143
330
1F
100
AcDbEntity
  8
0
  6
Continuous
 62
     7
370
    15
100
AcDbCircle
 10
427.2884515734
 20
63.3926726847
 30
0.0
 40
2.0
  0
CIRCLE
  5
144
330
1F
100
AcDbEntity
  8
0
  6
Continuous
 62
     7
370
    15
100
AcDbCircle
 10
424.2070358604
 20
74.8926726847
 30
0.0
 40
1.999999999999972
  0
CIRCLE
  5
145
330
1F
100
AcDbEntity
  8
0
  6
Continuous
 62
     7
370
    15
100
AcDbCircle
 10
427.2884515734
 20
86.3926726847
 30
0.0
 40
1.999999999999972
  0
CIRCLE
  5
146
330
1F
100
AcDbEntity
  8
0
  6
Continuous
 62
     7
370
    15
100
AcDbCircle
 10
435.7070358604
 20
94.8112569717
 30
0.0
 40
2.0
  0
CIRCLE
  5
147
330
1F
100
AcDbEntity
  8
0
  6
Continuous
 62
     7
370
    15
100
AcDbCircle
 10
447.2070358604
 20
97.8926726847
 30
0.0
 40
1.999999999999986
  0
CIRCLE
  5
148
330
1F
100
AcDbEntity
  8
0
  6
Continuous
 62
     7
370
    15
100
AcDbCircle
 10
458.7070358604
 20
94.8112569717
 30
0.0
 40
1.999999999999986
  0
CIRCLE
  5
149
330
1F
100
AcDbEntity
  8
0
  6
Continuous
 62
     7
370
    15
100
AcDbCircle
 10
467.1256201475
 20
86.3926726847
 30
0.0
 40
2.000000000000014
  0
CIRCLE
  5
14A
330
1F
100
AcDbEntity
  8
0
  6
Continuous
 62
     7
370
    15
100
AcDbCircle
 10
470.2070358604
 20
74.8926726847
 30
0.0
 40
1.999999999999986
  0
CIRCLE
  5
14B
330
1F
100
AcDbEntity
  8
0
  6
Continuous
 62
     7
370
    15
100
AcDbCircle
 10
467.1256201475
 20
63.3926726847
 30
0.0
 40
2.0
  0
CIRCLE
  5
14C
330
1F
100
AcDbEntity
  8
0
  6
Continuous
 62
     7
370
    15
100
AcDbCircle
 10
458.7070358604
 20
54.9740883976
 30
0.0
 40
2.0
  0
CIRCLE
  5
14D
330
1F
100
AcDbEntity
  8
0
  6
Continuous
 62
     7
370
    15
100
AcDbCircle
 10
435.3438494571
 20
46.2524071768
 30
0.0
 40
1.999999999999936
  0
CIRCLE
  5
14E
330
1F
100
AcDbEntity
  8
0
  6
Continuous
 62
     7
370
    15
100
AcDbCircle
 10
425.2867256436
 20
52.9723624679
 30
0.0
 40
1.999999999999993
  0
CIRCLE
  5
14F
330
1F
100
AcDbEntity
  8
0
  6
Continuous
 62
     7
370
    15
100
AcDbCircle
 10
418.5667703526
 20
63.0294862813
 30
0.0
 40
1.999999999999986
  0
CIRCLE
  5
150
330
1F
100
AcDbEntity
  8
0
  6
Continuous
 62
     7
370
    15
100
AcDbCircle
 10
416.2070358604
 20
74.8926726847
 30
0.0
 40
2.0
  0
CIRCLE
  5
151
330
1F
100
AcDbEntity
  8
0
  6
Continuous
 62
     7
370
    15
100
AcDbCircle
 10
418.5667703526
 20
86.755859088
 30
0.0
 40
1.999999999999986
  0
CIRCLE
  5
152
330
1F
100
AcDbEntity
  8
0
  6
Continuous
 62
     7
370
    15
100
AcDbCircle
 10
425.2867256436
 20
96.8129829014
 30
0.0
 40
1.999999999999986
  0
CIRCLE
  5
153
330
1F
100
AcDbEntity
  8
0
  6
Continuous
 62
     7
370
    15
100
AcDbCircle
 10
435.3438494571
 20
103.5329381925
 30
0.0
 40
2.0
  0
CIRCLE
  5
154
330
1F
100
AcDbEntity
  8
0
  6
Continuous
 62
     7
370
    15
100
AcDbCircle
 10
447.2070358604
 20
105.8926726847
 30
0.0
 40
2.0
  0
CIRCLE
  5
155
330
1F
100
AcDbEntity
  8
0
  6
Continuous
 62
     7
370
    15
100
AcDbCircle
 10
478.2070358604
 20
74.8926726847
 30
0.0
 40
2.0
  0
CIRCLE
  5
156
330
1F
100
AcDbEntity
  8
0
  6
Continuous
 62
     7
370
    15
100
AcDbCircle
 10
475.8473013683
 20
63.0294862813
 30
0.0
 40
1.999999999999986
  0
CIRCLE
  5
157
330
1F
100
AcDbEntity
  8
0
  6
Continuous
 62
     7
370
    15
100
AcDbCircle
 10
469.1273460772
 20
52.9723624679
 30
0.0
 40
1.999999999999993
  0
CIRCLE
  5
158
330
1F
100
AcDbEntity
  8
0
  6
Continuous
 62
     7
370
    15
100
AcDbCircle
 10
459.0702222637
 20
46.2524071768
 30
0.0
 40
1.999999999999993
  0
CIRCLE
  5
159
330
1F
100
AcDbEntity
  8
0
  6
Continuous
 62
     7
370
    15
100
AcDbCircle
 10
435.1553730798
 20
37.8014685491
 30
0.0
 40
2.000000000000028
  0
CIRCLE
  5
15A
330
1F
100
AcDbEntity
  8
0
  6
Continuous
 62
     7
370
    15
100
AcDbCircle
 10
424.283411021
 20
43.341009904
 30
0.0
 40
2.0
  0
CIRCLE
  5
15B
330
1F
100
AcDbEntity
  8
0
  6
Continuous
 62
     7
370
    15
100
AcDbCircle
 10
415.6553730798
 20
51.9690478453
 30
0.0
 40
1.999999999999993
  0
CIRCLE
  5
15C
330
1F
100
AcDbEntity
  8
0
  6
Continuous
 62
     7
370
    15
100
AcDbCircle
 10
410.1158317249
 20
62.841009904
 30
0.0
 40
2.0
  0
CIRCLE
  5
15D
330
1F
100
AcDbEntity
  8
0
  6
Continuous
 62
     7
370
    15
100
AcDbCircle
 10
408.2070358604
 20
74.8926726847
 30
0.0
 40
1.999999999999986
  0
CIRCLE
  5
15E
330
1F
100
AcDbEntity
  8
0
  6
Continuous
 62
     7
370
    15
100
AcDbCircle
 10
410.1158317249
 20
86.9443354653
 30
0.0
 40
1.999999999999972
  0
CIRCLE
  5
15F
330
1F
100
AcDbEntity
  8
0
  6
Continuous
 62
     7
370
    15
100
AcDbCircle
 10
415.6553730798
 20
97.8162975241
 30
0.0
 40
1.999999999999972
  0
CIRCLE
  5
160
330
1F
100
AcDbEntity
  8
0
  6
Continuous
 62
     7
370
    15
100
AcDbCircle
 10
424.283411021
 20
106.4443354653
 30
0.0
 40
2.0
  0
CIRCLE
  5
161
330
1F
100
AcDbEntity
  8
0
  6
Continuous
 62
     7
370
    15
100
AcDbCircle
 10
435.1553730798
 20
111.9838768202
 30
0.0
 40
2.000000000000028
  0
CIRCLE
  5
162
330
1F
100
AcDbEntity
  8
0
  6
Continuous
 62
     7
370
    15
100
AcDbCircle
 10
447.2070358604
 20
113.8926726847
 30
0.0
 40
1.999999999999986
  0
CIRCLE
  5
163
330
1F
100
AcDbEntity
  8
0
  6
Continuous
 62
     7
370
    15
100
AcDbCircle
 10
459.258698641
 20
111.9838768202
 30
0.0
 40
1.999999999999986
  0
CIRCLE
  5
164
330
1F
100
AcDbEntity
  8
0
  6
Continuous
 62
     7
370
    15
100
AcDbCircle
 10
470.1306606998
 20
106.4443354653
 30
0.0
 40
1.999999999999957
  0
CIRCLE
  5
165
330
1F
100
AcDbEntity
  8
0
  6
Continuous
 62
     7
370
    15
100
AcDbCircle
 10
478.758698641
 20
97.8162975241
 30
0.0
 40
1.999999999999972
  0
CIRCLE
  5
166
330
1F
100
AcDbEntity
  8
0
  6
Continuous
 62
     7
370
    15
100
AcDbCircle
 10
484.2982399959
 20
86.9443354653
 30
0.0
 40
2.0
  0
CIRCLE
  5
167
330
1F
100
AcDbEntity
  8
0
  6
Continuous
 62
     7
370
    15
100
AcDbCircle
 10
486.2070358604
 20
74.8926726847
 30
0.0
 40
1.999999999999986
  0
CIRCLE
  5
168
330
1F
100
AcDbEntity
  8
0
  6
Continuous
 62
     7
370
    15
100
AcDbCircle
 10
484.2982399959
 20
62.841009904
 30
0.0
 40
1.999999999999986
  0
CIRCLE
  5
169
330
1F
100
AcDbEntity
  8
0
  6
Continuous
 62
     7
370
    15
100
AcDbCircle
 10
478.758698641
 20
51.9690478453
 30
0.0
 40
1.999999999999993
  0
CIRCLE
  5
16A
330
1F
100
AcDbEntity
  8
0
  6
Continuous
 62
     7
370
    15
100
AcDbCircle
 10
470.1306606998
 20
43.341009904
 30
0.0
 40
1.999999999999993
  0
CIRCLE
  5
16B
330
1F
100
AcDbEntity
  8
0
  6
Continuous
 62
     7
370
    15
100
AcDbCircle
 10
459.258698641
 20
37.8014685491
 30
0.0
 40
2.0
  0
CIRCLE
  5
16C
330
1F
100
AcDbEntity
  8
0
  6
Continuous
 62
     7
370
    15
100
AcDbCircle
 10
447.2070358604
 20
51.8926726847
 30
0.0
 40
1.999999999999993
  0
CIRCLE
  5
16D
330
1F
100
AcDbEntity
  8
0
  6
Continuous
 62
     7
370
    15
100
AcDbCircle
 10
475.8473013683
 20
86.755859088
 30
0.0
 40
2.0
  0
CIRCLE
  5
16E
330
1F
100
AcDbEntity
  8
0
  6
Continuous
 62
     7
370
    15
100
AcDbCircle
 10
469.1273460772
 20
96.8129829014
 30
0.0
 40
2.0
  0
CIRCLE
  5
16F
330
1F
100
AcDbEntity
  8
0
  6
Continuous
 62
     7
370
    15
100
AcDbCircle
 10
459.0702222637
 20
103.5329381925
 30
0.0
 40
2.000000000000028
  0
ENDSEC
  0
SECTION
  2
OBJECTS
  0
DICTIONARY
  5
C
330
0
100
AcDbDictionary
281
     1
  3
ACAD_GROUP
350
D
  3
ACAD_LAYOUT
350
1A
  3
ACAD_MLEADERSTYLE
350
172
  3
ACAD_MLINESTYLE
350
17
  3
ACAD_PLOTSETTINGS
350
19
  3
ACAD_PLOTSTYLENAME
350
E
  3
ACAD_VISUALSTYLE
350
2A
  3
AcDbVariableDictionary
350
170
  0
DICTIONARY
  5
D
102
{ACAD_REACTORS
330
C
102
}
330
C
100
AcDbDictionary
281
     1
  0
DICTIONARY
  5
1A
102
{ACAD_REACTORS
330
C
102
}
330
C
100
AcDbDictionary
281
     1
  3
Layout1
350
1E
  3
Layout2
350
26
  3
Model
350
22
  0
DICTIONARY
  5
172
102
{ACAD_REACTORS
330
C
102
}
330
C
100
AcDbDictionary
281
     1
  0
DICTIONARY
  5
17
102
{ACAD_REACTORS
330
C
102
}
330
C
100
AcDbDictionary
281
     1
  3
Standard
350
18
  0
DICTIONARY
  5
19
102
{ACAD_REACTORS
330
C
102
}
330
C
100
AcDbDictionary
281
     1
  0
ACDBDICTIONARYWDFLT
  5
E
102
{ACAD_REACTORS
330
C
102
}
330
C
100
AcDbDictionary
281
     1
  3
Normal
350
F
100
AcDbDictionaryWithDefault
340
F
  0
DICTIONARY
  5
2A
102
{ACAD_REACTORS
330
C
102
}
330
C
100
AcDbDictionary
281
     1
  3
2dWireframe
350
2F
  3
3D Hidden
350
31
  3
3dWireframe
350
30
  3
Basic
350
32
  3
Brighten
350
36
  3
ColorChange
350
3A
  3
Conceptual
350
34
  3
Dim
350
35
  3
Facepattern
350
39
  3
Flat
350
2B
  3
FlatWithEdges
350
2C
  3
Gouraud
350
2D
  3
GouraudWithEdges
350
2E
  3
Linepattern
350
38
  3
Realistic
350
33
  3
Thicken
350
37
  0
DICTIONARY
  5
170
102
{ACAD_REACTORS
330
C
102
}
330
C
100
AcDbDictionary
281
     1
  3
DIMASSOC
350
175
  3
HIDETEXT
350
176
  3
PSOLHEIGHT
350
174
  3
PSOLWIDTH
350
173
  0
LAYOUT
  5
1E
102
{ACAD_REACTORS
330
1A
102
}
330
1A
100
AcDbPlotSettings
  1

  2
none_device
  4

  6

 40
0.0
 41
0.0
 42
0.0
 43
0.0
 44
0.0
 45
0.0
 46
0.0
 47
0.0
 48
0.0
 49
0.0
140
0.0
141
0.0
142
1.0
143
1.0
 70
   688
 72
     0
 73
     0
 74
     5
  7

 75
    16
147
1.0
148
0.0
149
0.0
100
AcDbLayout
  1
Layout1
 70
     1
 71
     1
 10
0.0
 20
0.0
 11
420.0
 21
297.0
 12
0.0
 22
0.0
 32
0.0
 14
1.0000000000E+20
 24
1.0000000000E+20
 34
1.0000000000E+20
 15
-1.0000000000E+20
 25
-1.0000000000E+20
 35
-1.0000000000E+20
146
0.0
 13
0.0
 23
0.0
 33
0.0
 16
1.0
 26
0.0
 36
0.0
 17
0.0
 27
1.0
 37
0.0
 76
     0
330
1B
  0
LAYOUT
  5
26
102
{ACAD_REACTORS
330
1A
102
}
330
1A
100
AcDbPlotSettings
  1

  2
none_device
  4

  6

 40
0.0
 41
0.0
 42
0.0
 43
0.0
 44
0.0
 45
0.0
 46
0.0
 47
0.0
 48
0.0
 49
0.0
140
0.0
141
0.0
142
1.0
143
1.0
 70
   688
 72
     0
 73
     0
 74
     5
  7

 75
    16
147
1.0
148
0.0
149
0.0
100
AcDbLayout
  1
Layout2
 70
     1
 71
     2
 10
0.0
 20
0.0
 11
0.0
 21
0.0
 12
0.0
 22
0.0
 32
0.0
 14
0.0
 24
0.0
 34
0.0
 15
0.0
 25
0.0
 35
0.0
146
0.0
 13
0.0
 23
0.0
 33
0.0
 16
1.0
 26
0.0
 36
0.0
 17
0.0
 27
1.0
 37
0.0
 76
     0
330
23
  0
LAYOUT
  5
22
102
{ACAD_REACTORS
330
1A
102
}
330
1A
100
AcDbPlotSettings
  1

  2
none_device
  4

  6

 40
0.0
 41
0.0
 42
0.0
 43
0.0
 44
0.0
 45
0.0
 46
0.0
 47
0.0
 48
0.0
 49
0.0
140
0.0
141
0.0
142
1.0
143
1.0
 70
  1712
 72
     0
 73
     0
 74
     0
  7

 75
     0
147
1.0
148
0.0
149
0.0
100
AcDbLayout
  1
Model
 70
     1
 71
     0
 10
0.0
 20
0.0
 11
540.0
 21
140.0
 12
0.0
 22
0.0
 32
0.0
 14
0.0
 24
0.0
 34
0.0
 15
540.0
 25
140.0
 35
0.0
146
0.0
 13
0.0
 23
0.0
 33
0.0
 16
1.0
 26
0.0
 36
0.0
 17
0.0
 27
1.0
 37
0.0
 76
     0
330
1F
331
29
  0
MLINESTYLE
  5
18
102
{ACAD_REACTORS
330
17
102
}
330
17
100
AcDbMlineStyle
  2
Standard
 70
     0
  3

 62
   256
 51
90.0
 52
90.0
 71
     2
 49
0.5
 62
   256
  6
BYLAYER
 49
-0.5
 62
   256
  6
BYLAYER
  0
ACDBPLACEHOLDER
  5
F
102
{ACAD_REACTORS
330
E
102
}
330
E
  0
VISUALSTYLE
  5
2F
102
{ACAD_REACTORS
330
2A
102
}
330
2A
100
AcDbVisualStyle
  2
2dWireframe
 70
     4
 71
     0
 72
     2
 73
     0
 90
        0
 40
-0.6
 41
-30.0
 62
     5
 63
     7
 74
     1
 91
        4
 64
     7
 65
   257
 75
     1
175
     1
 42
1.0
 92
        0
 66
   257
 43
1.0
 76
     1
 77
     6
 78
     2
 67
     7
 79
     5
170
     0
171
     0
290
     0
174
     0
 93
        1
 44
0.0
173
     0
291
     0
 45
0.0
1001
ACAD
1000
AcDbSavedByObjectVersion
1070
     0
  0
VISUALSTYLE
  5
31
102
{ACAD_REACTORS
330
2A
102
}
330
2A
100
AcDbVisualStyle
  2
3D Hidden
 70
     6
 71
     1
 72
     2
 73
     2
 90
        0
 40
-0.6
 41
-30.0
 62
     5
 63
     7
 74
     2
 91
        2
 64
     7
 65
   257
 75
     2
175
     1
 42
40.0
 92
        0
 66
   257
 43
1.0
 76
     1
 77
     6
 78
     2
 67
     7
 79
     3
170
     0
171
     0
290
     0
174
     0
 93
        1
 44
0.0
173
     0
291
     0
 45
0.0
1001
ACAD
1000
AcDbSavedByObjectVersion
1070
     0
  0
VISUALSTYLE
  5
30
102
{ACAD_REACTORS
330
2A
102
}
330
2A
100
AcDbVisualStyle
  2
3dWireframe
 70
     5
 71
     0
 72
     2
 73
     0
 90
        0
 40
-0.6
 41
-30.0
 62
     5
 63
     7
 74
     1
 91
        4
 64
     7
 65
   257
 75
     1
175
     1
 42
1.0
 92
        0
 66
   257
 43
1.0
 76
     1
 77
     6
 78
     2
 67
     7
 79
     5
170
     0
171
     0
290
     0
174
     0
 93
        1
 44
0.0
173
     0
291
     0
 45
0.0
1001
ACAD
1000
AcDbSavedByObjectVersion
1070
     0
  0
VISUALSTYLE
  5
32
102
{ACAD_REACTORS
330
2A
102
}
330
2A
100
AcDbVisualStyle
  2
Basic
 70
     7
 71
     1
 72
     0
 73
     1
 90
        0
 40
-0.6
 41
-30.0
 62
     5
 63
     7
 74
     0
 91
        4
 64
     7
 65
   257
 75
     1
175
     1
 42
1.0
 92
        8
 66
     7
 43
1.0
 76
     1
 77
     6
 78
     2
 67
     7
 79
     5
170
     0
171
     0
290
     0
174
     0
 93
        1
 44
0.0
173
     0
291
     1
 45
0.0
1001
ACAD
1000
AcDbSavedByObjectVersion
1070
     0
  0
VISUALSTYLE
  5
36
102
{ACAD_REACTORS
330
2A
102
}
330
2A
100
AcDbVisualStyle
  2
Brighten
 70
    12
 71
     2
 72
     2
 73
     0
 90
        0
 40
-0.6
 41
-30.0
 62
     5
 63
     7
 74
     1
 91
        4
 64
     7
 65
   257
 75
     1
175
     1
 42
1.0
 92
        8
 66
     7
 43
1.0
 76
     1
 77
     6
 78
     2
 67
     7
 79
     5
170
     0
171
     0
290
     0
174
     0
 93
        1
 44
50.0
173
     0
291
     1
 45
0.0
1001
ACAD
1000
AcDbSavedByObjectVersion
1070
     0
  0
VISUALSTYLE
  5
3A
102
{ACAD_REACTORS
330
2A
102
}
330
2A
100
AcDbVisualStyle
  2
ColorChange
 70
    16
 71
     2
 72
     2
 73
     3
 90
        0
 40
-0.6
 41
-30.0
 62
     5
 63
     8
 74
     1
 91
        4
 64
     7
 65
   257
 75
     1
175
     1
 42
1.0
 92
        8
 66
     8
 43
1.0
 76
     1
 77
     6
 78
     2
 67
     7
 79
     5
170
     0
171
     0
290
     0
174
     0
 93
        1
 44
0.0
173
     0
291
     1
 45
0.0
1001
ACAD
1000
AcDbSavedByObjectVersion
1070
     0
  0
VISUALSTYLE
  5
34
102
{ACAD_REACTORS
330
2A
102
}
330
2A
100
AcDbVisualStyle
  2
Conceptual
 70
     9
 71
     3
 72
     2
 73
     0
 90
        0
 40
-0.6
 41
-30.0
 62
     5
 63
     7
 74
     2
 91
        2
 64
     7
 65
   257
 75
     1
175
     1
 42
40.0
 92
        8
 66
     7
 43
1.0
 76
     1
 77
     6
 78
     2
 67
     7
 79
     3
170
     0
171
     0
290
     0
174
     0
 93
        1
 44
0.0
173
     0
291
     0
 45
0.0
1001
ACAD
1000
AcDbSavedByObjectVersion
1070
     0
  0
VISUALSTYLE
  5
35
102
{ACAD_REACTORS
330
2A
102
}
330
2A
100
AcDbVisualStyle
  2
Dim
 70
    11
 71
     2
 72
     2
 73
     0
 90
        0
 40
-0.6
 41
-30.0
 62
     5
 63
     7
 74
     1
 91
        4
 64
     7
 65
   257
 75
     1
175
     1
 42
1.0
 92
        8
 66
     7
 43
1.0
 76
     1
 77
     6
 78
     2
 67
     7
 79
     5
170
     0
171
     0
290
     0
174
     0
 93
        1
 44
-50.0
173
     0
291
     1
 45
0.0
1001
ACAD
1000
AcDbSavedByObjectVersion
1070
     0
  0
VISUALSTYLE
  5
39
102
{ACAD_REACTORS
330
2A
102
}
330
2A
100
AcDbVisualStyle
  2
Facepattern
 70
    15
 71
     2
 72
     2
 73
     0
 90
        0
 40
-0.6
 41
-30.0
 62
     5
 63
     7
 74
     1
 91
        4
 64
     7
 65
   257
 75
     1
175
     1
 42
1.0
 92
        8
 66
     7
 43
1.0
 76
     1
 77
     6
 78
     2
 67
     7
 79
     5
170
     0
171
     0
290
     0
174
     0
 93
        1
 44
0.0
173
     0
291
     1
 45
0.0
1001
ACAD
1000
AcDbSavedByObjectVersion
1070
     0
  0
VISUALSTYLE
  5
2B
102
{ACAD_REACTORS
330
2A
102
}
330
2A
100
AcDbVisualStyle
  2
Flat
 70
     0
 71
     2
 72
     1
 73
     1
 90
        2
 40
-0.6
 41
30.0
 62
     5
 63
     7
 74
     0
 91
        4
 64
     7
 65
   257
 75
     1
175
     1
 42
1.0
 92
        8
 66
     7
 43
1.0
 76
     1
 77
     6
 78
     2
 67
     7
 79
     5
170
     0
171
     0
290
     0
174
     0
 93
       13
 44
0.0
173
     0
291
     1
 45
0.0
1001
ACAD
1000
AcDbSavedByObjectVersion
1070
     0
  0
VISUALSTYLE
  5
2C
102
{ACAD_REACTORS
330
2A
102
}
330
2A
100
AcDbVisualStyle
  2
FlatWithEdges
 70
     1
 71
     2
 72
     1
 73
     1
 90
        2
 40
-0.6
 41
30.0
 62
     5
 63
     7
 74
     1
 91
        4
 64
     7
 65
   257
 75
     1
175
     1
 42
1.0
 92
        0
 66
   257
 43
1.0
 76
     1
 77
     6
 78
     2
 67
     7
 79
     5
170
     0
171
     0
290
     0
174
     0
 93
       13
 44
0.0
173
     0
291
     1
 45
0.0
1001
ACAD
1000
AcDbSavedByObjectVersion
1070
     0
  0
VISUALSTYLE
  5
2D
102
{ACAD_REACTORS
330
2A
102
}
330
2A
100
AcDbVisualStyle
  2
Gouraud
 70
     2
 71
     2
 72
     2
 73
     1
 90
        2
 40
-0.6
 41
30.0
 62
     5
 63
     7
 74
     0
 91
        4
 64
     7
 65
   257
 75
     1
175
     1
 42
1.0
 92
        0
 66
     7
 43
1.0
 76
     1
 77
     6
 78
     2
 67
     7
 79
     5
170
     0
171
     0
290
     0
174
     0
 93
       13
 44
0.0
173
     0
291
     1
 45
0.0
1001
ACAD
1000
AcDbSavedByObjectVersion
1070
     0
  0
VISUALSTYLE
  5
2E
102
{ACAD_REACTORS
330
2A
102
}
330
2A
100
AcDbVisualStyle
  2
GouraudWithEdges
 70
     3
 71
     2
 72
     2
 73
     1
 90
        2
 40
-0.6
 41
30.0
 62
     5
 63
     7
 74
     1
 91
        4
 64
     7
 65
   257
 75
     1
175
     1
 42
1.0
 92
        0
 66
   257
 43
1.0
 76
     1
 77
     6
 78
     2
 67
     7
 79
     5
170
     0
171
     0
290
     0
174
     0
 93
       13
 44
0.0
173
     0
291
     1
 45
0.0
1001
ACAD
1000
AcDbSavedByObjectVersion
1070
     0
  0
VISUALSTYLE
  5
38
102
{ACAD_REACTORS
330
2A
102
}
330
2A
100
AcDbVisualStyle
  2
Linepattern
 70
    14
 71
     2
 72
     2
 73
     0
 90
        0
 40
-0.6
 41
-30.0
 62
     5
 63
     7
 74
     1
 91
        4
 64
     7
 65
   257
 75
     7
175
     7
 42
1.0
 92
        8
 66
     7
 43
1.0
 76
     1
 77
     6
 78
     2
 67
     7
 79
     5
170
     0
171
     0
290
     0
174
     0
 93
        1
 44
0.0
173
     0
291
     1
 45
0.0
1001
ACAD
1000
AcDbSavedByObjectVersion
1070
     0
  0
VISUALSTYLE
  5
33
102
{ACAD_REACTORS
330
2A
102
}
330
2A
100
AcDbVisualStyle
  2
Realistic
 70
     8
 71
     2
 72
     2
 73
     0
 90
        0
 40
-0.6
 41
-30.0
 62
     5
 63
     7
 74
     1
 91
        0
 64
     7
 65
   257
 75
     1
175
     1
 42
1.0
 92
        8
 66
     8
 43
1.0
 76
     1
 77
     6
 78
     2
 67
     7
 79
     5
170
     0
171
     0
290
     0
174
     0
 93
       13
 44
0.0
173
     0
291
     0
 45
0.0
1001
ACAD
1000
AcDbSavedByObjectVersion
1070
     0
  0
VISUALSTYLE
  5
37
102
{ACAD_REACTORS
330
2A
102
}
330
2A
100
AcDbVisualStyle
  2
Thicken
 70
    13
 71
     2
 72
     2
 73
     0
 90
        0
 40
-0.6
 41
-30.0
 62
     5
 63
     7
 74
     1
 91
        4
 64
     7
 65
   257
 75
     1
175
     1
 42
1.0
 92
       12
 66
     7
 43
1.0
 76
     1
 77
     6
 78
     2
 67
     7
 79
     5
170
     0
171
     0
290
     0
174
     0
 93
        1
 44
0.0
173
     0
291
     1
 45
0.0
1001
ACAD
1000
AcDbSavedByObjectVersion
1070
     0
  0
DICTIONARYVAR
  5
175
102
{ACAD_REACTORS
330
170
102
}
330
170
100
DictionaryVariables
280
     0
  1
2
  0
DICTIONARYVAR
  5
176
102
{ACAD_REACTORS
330
170
102
}
330
170
100
DictionaryVariables
280
     0
  1
1
  0
DICTIONARYVAR
  5
174
102
{ACAD_REACTORS
330
170
102
}
330
170
100
DictionaryVariables
280
     0
  1
80.000000
  0
DICTIONARYVAR
  5
173
102
{ACAD_REACTORS
330
170
102
}
330
170
100
DictionaryVariables
280
     0
  1
5.000000
  0
ENDSEC
  0
EOF
